<?xml version="1.0" encoding="UTF-8" standalone="no"?>
<!DOCTYPE svg  PUBLIC '-//W3C//DTD SVG 1.1//EN'  'http://www.w3.org/Graphics/SVG/1.1/DTD/svg11.dtd'>
<svg xmlns="http://www.w3.org/2000/svg">
<defs>
<font id="CentraleSansCndLight-Regular" horiz-adv-x="586">
<font-face underline-position="-50" font-weight="350" descent="-200" panose-1="2 0 0 0 0 0 0 0 0 0" units-per-em="1000" unicode-range="U+000D-FB04" bbox="-33 -232 1098 922" x-height="520" underline-thickness="50" font-family="CentraleSansCndLight" ascent="800" cap-height="700"/>
<missing-glyph d="M106 631v-650l143 321zM435 641l-147 -339l147 -335v674zM114 693l154 -349l152 349h-306zM71 732h401v-853h-401v853zM421 -83l-152 343l-154 -343h306z" horiz-adv-x="540"/>
<glyph glyph-name="f_f" horiz-adv-x="508" unicode="ff" d="M496 740l-12 -48q-19 5 -39 5q-71 0 -71 -94v-83h119v-45h-119v-475h-60v475h-174v-475h-60v475h-56v37l56 8v71q0 72 31.5 110.5t89.5 38.5q32 0 61 -8l-12 -48q-19 5 -39 5q-71 0 -71 -94v-75h174v79q0 72 31.5 110.5t89.5 38.5q32 0 61 -8z"/>
<glyph glyph-name="f_i" horiz-adv-x="466" unicode="fi" d="M369 695l-25 -39q-48 33 -103 33q-38 0 -61.5 -21.5t-31 -49t-7.5 -62.5v-36h255v-520h-60v475h-195v-475h-60v475h-56v37l56 8v48q0 77 41.5 124.5t113.5 47.5q70 0 133 -45z"/>
<glyph glyph-name="f_l" horiz-adv-x="482" unicode="fl" d="M336 557q0 5 -0.5 14t-5.5 31.5t-14.5 40t-30 32t-48.5 14.5q-45 0 -71 -35t-26 -100v-34h105v-45h-105v-475h-60v475h-56v37l56 8v34q0 86 43.5 136t112.5 50q67 0 113.5 -47.5t46.5 -135.5v-478q0 -37 30 -37l26 4v-47q-24 -8 -50 -8q-33 0 -49.5 19t-16.5 49v498z"/>
<glyph glyph-name="f_f_i" horiz-adv-x="685" unicode="ffi" d="M263 732l-12 -48q-19 5 -39 5q-71 0 -71 -94v-75h173v58q0 76 40.5 123t109.5 47q74 0 134 -39l-18 -40q-48 28 -110 28q-53 0 -74.5 -36.5t-21.5 -87.5v-53h241v-520h-60v475h-181v-475h-60v475h-173v-475h-60v475h-56v37l56 8v71q0 72 31.5 110.5t89.5 38.5q32 0 61 -8 z"/>
<glyph glyph-name="f_f_l" horiz-adv-x="715" unicode="ffl" d="M570 565q0 5 -0.5 14t-5.5 31.5t-14.5 40t-30 32t-48.5 14.5q-45 0 -71 -35t-26 -100v-42h105v-45h-105v-475h-60v475h-173v-475h-60v475h-56v37l56 8v71q0 72 31.5 110.5t89.5 38.5q32 0 61 -8l-12 -48q-19 5 -39 5q-71 0 -71 -94v-75h173v42q0 86 43.5 136t112.5 50 q67 0 113.5 -47.5t46.5 -135.5v-486q0 -37 30 -37l26 4v-47q-24 -8 -50 -8q-33 0 -49.5 19t-16.5 49v506z"/>
<glyph glyph-name=".notdef" d="M106 631v-650l143 321zM435 641l-147 -339l147 -335v674zM114 693l154 -349l152 349h-306zM71 732h401v-853h-401v853zM421 -83l-152 343l-154 -343h306z" horiz-adv-x="540"/>
<glyph glyph-name=".null" horiz-adv-x="0"/>
<glyph glyph-name=".null" horiz-adv-x="0"/>
<glyph glyph-name="nonmarkingreturn" horiz-adv-x="333"/>
<glyph glyph-name="CR" horiz-adv-x="248" unicode=""/>
<glyph glyph-name="space" horiz-adv-x="225" unicode=" "/>
<glyph glyph-name="exclam" horiz-adv-x="229" unicode="!" d="M115 75q18 0 29 -11.5t11 -30.5q0 -18 -11 -29.5t-29 -11.5t-29 11.5t-11 29.5q0 19 11.5 30.5t28.5 11.5zM76 700h76l-15 -520h-47z"/>
<glyph glyph-name="quotedbl" horiz-adv-x="324" unicode='&quot;' d="M78 702h67l-38 -244h-36zM203 702h67l-40 -244h-36z"/>
<glyph glyph-name="numbersign" horiz-adv-x="662" unicode="#" d="M260 474l-38 -255h183l39 255h-184zM241 702h52l-26 -176h184l27 176h52l-27 -176h114l-8 -52h-113l-39 -255h114l-8 -52h-113l-25 -167h-52l25 167h-184l-25 -167h-53l25 167h-117l8 52h117l38 255h-117l8 52h117z"/>
<glyph glyph-name="dollar" horiz-adv-x="497" unicode="$" d="M271 -91h-40v82q-87 5 -176 51l20 44q89 -43 174 -43q65 0 101 35.5t36 99.5q0 30 -10 52.5t-34 39t-40.5 24.5t-53.5 23t-56 23.5t-49.5 27t-46 38t-28 51t-12.5 70.5q0 82 45.5 129.5t129.5 52.5v88h40v-88q74 -3 156 -43l-18 -46q-77 36 -156 36q-59 0 -96 -33.5 t-37 -94.5q0 -19 5 -36t10.5 -29t19.5 -23.5t22.5 -18t29 -16t29.5 -13.5t33 -13q34 -14 53.5 -22.5t47.5 -26.5t43 -37t26.5 -49t11.5 -67q0 -83 -47.5 -131t-132.5 -55v-82z"/>
<glyph glyph-name="percent" horiz-adv-x="685" unicode="%" d="M515 41q35 0 56 33t21 84q0 53 -21 86.5t-57 33.5q-35 0 -57 -33t-22 -85t22.5 -85.5t57.5 -33.5zM513 -9q-59 0 -96 47t-37 119q0 74 37.5 122.5t97.5 48.5q59 0 95.5 -48t36.5 -122q0 -72 -37 -119.5t-97 -47.5zM173 422q35 0 56 33t21 84q0 53 -21 86.5t-57 33.5 q-35 0 -57 -33t-22 -85t22.5 -85.5t57.5 -33.5zM171 372q-59 0 -96 47t-37 119q0 74 37.5 122.5t97.5 48.5q59 0 95.5 -48t36.5 -122q0 -72 -37 -119.5t-97 -47.5zM140 0l344 700h59l-344 -700h-59z"/>
<glyph glyph-name="ampersand" horiz-adv-x="558" unicode="&amp;" d="M236 661q-40 0 -65 -27t-25 -68q0 -12 3 -24.5t6.5 -21.5t12.5 -23l13.5 -21t18 -25.5t19.5 -26.5q54 37 80.5 68t26.5 74q0 42 -25.5 68.5t-64.5 26.5zM385 118l-181 242q-112 -66 -112 -165q0 -69 43.5 -110t108.5 -41q92 0 141 74zM234 709q58 0 98.5 -39.5 t40.5 -101.5q0 -55 -33 -96t-94 -82l167 -226q3 2 9.5 17t13.5 45t7 62h50q0 -102 -44 -173l86 -115h-64l-54 74q-62 -83 -172 -83q-90 0 -149.5 53.5t-59.5 142.5q0 68 36 117t104 96q-2 3 -15.5 21t-16.5 23t-13.5 20.5t-14 24t-9 22.5t-7.5 26.5t-2 26.5q0 58 37.5 101.5 t98.5 43.5z"/>
<glyph glyph-name="quotesingle" horiz-adv-x="200" unicode="&apos;" d="M79 702h67l-38 -244h-36z"/>
<glyph glyph-name="parenleft" horiz-adv-x="297" unicode="(" d="M265 -92l-28 -37q-33 30 -63 68.5t-61 92t-49.5 121.5t-18.5 139q0 132 59 240.5t133 176.5l27 -36q-155 -165 -155 -384q0 -215 156 -381z"/>
<glyph glyph-name="parenright" horiz-adv-x="296" unicode=")" d="M60 -129l-28 37q156 166 156 381q0 221 -156 384l28 36q74 -67 132.5 -176t58.5 -241q0 -71 -18.5 -139t-49 -121.5t-60.5 -92t-63 -68.5z"/>
<glyph glyph-name="asterisk" horiz-adv-x="371" unicode="*" d="M61 542l101 59l-101 58l21 36l92 -75l-9 135h40l-9 -134l92 74l22 -36l-103 -58l103 -59l-22 -36l-92 74l9 -132h-40l9 133l-92 -75z"/>
<glyph glyph-name="plus" horiz-adv-x="437" unicode="+" d="M198 515h42v-170h142v-44h-142v-170h-42v170h-142v44h142v170z"/>
<glyph glyph-name="comma" horiz-adv-x="211" unicode="," d="M101 66q24 0 37 -22t13 -52q0 -72 -74 -116l-11 19q19 15 33 39.5t14 49.5q0 10 -3 20q-2 -9 -15 -9q-14 0 -22 9t-8 24q0 16 10.5 27t25.5 11z"/>
<glyph glyph-name="hyphen" horiz-adv-x="433" unicode="-" d="M65 346h303v-44h-303v44z"/>
<glyph glyph-name="period" horiz-adv-x="194" unicode="." d="M63 31q0 15 9.5 25.5t23.5 10.5t24.5 -10.5t10.5 -25.5q0 -16 -10 -26t-25 -10q-14 0 -23.5 10t-9.5 26z"/>
<glyph glyph-name="slash" horiz-adv-x="408" unicode="/" d="M325 735h51l-294 -769h-50q43 114 142.5 374t150.5 395z"/>
<glyph glyph-name="zero" horiz-adv-x="595" unicode="0" d="M298 45q83 0 131.5 85.5t48.5 219.5q0 133 -48.5 219t-132.5 86q-83 0 -132 -85.5t-49 -218.5q0 -135 49 -220.5t133 -85.5zM297 -9q-110 0 -177 102t-67 258q0 154 67 256t178 102q110 0 176.5 -101t66.5 -255q0 -157 -66.5 -259.5t-177.5 -102.5z"/>
<glyph glyph-name="one" horiz-adv-x="283" unicode="1" d="M29 621l120 79h47v-700h-60v630l-87 -51z"/>
<glyph glyph-name="two" horiz-adv-x="487" unicode="2" d="M84 613l-24 42q91 54 166 54q84 0 138 -55t54 -148q0 -40 -12.5 -79.5t-39 -78t-41 -56t-43.5 -50.5l-165 -189h320v-53h-391v52l205 231q110 127 110 219q0 70 -41 110.5t-107 40.5q-46 0 -129 -40z"/>
<glyph glyph-name="three" horiz-adv-x="479" unicode="3" d="M85 631l-14 42q76 36 152 36q78 0 129.5 -46.5t51.5 -123.5q0 -60 -32.5 -104.5t-82.5 -59.5q65 -18 102.5 -64.5t37.5 -117.5q0 -91 -60 -146.5t-152 -55.5q-91 0 -165 48l20 45q72 -39 134 -39q70 0 116.5 42.5t46.5 114.5q0 73 -50 112.5t-116 39.5h-43v45h50 q54 0 94.5 35.5t40.5 96.5q0 59 -38.5 91.5t-97.5 32.5q-61 0 -124 -24z"/>
<glyph glyph-name="four" horiz-adv-x="516" unicode="4" d="M340 597l-244 -372h244v372zM348 700h52v-475h76v-47h-76v-178h-60v178h-307v46z"/>
<glyph glyph-name="five" horiz-adv-x="490" unicode="5" d="M417 700v-53h-268l-25 -240q51 40 119 40q88 0 144 -62.5t56 -158.5q0 -105 -61.5 -170t-164.5 -65q-39 0 -74 9.5t-49 17t-44 24.5l22 44q74 -41 138 -41q83 0 128 51t45 130q0 74 -42.5 123.5t-109.5 49.5q-63 0 -115 -48l-43 23l35 326h309z"/>
<glyph glyph-name="six" horiz-adv-x="523" unicode="6" d="M272 402q-65 0 -109 -52.5t-44 -128.5q0 -70 42.5 -123.5t108.5 -53.5q65 0 105.5 52t40.5 126q0 78 -40.5 129t-103.5 51zM450 666l-21 -46q-72 35 -129 35q-85 0 -136.5 -70.5t-53.5 -224.5q0 -7 1 -19q21 52 65 82t104 30q84 0 139.5 -62.5t55.5 -166.5 q0 -100 -56 -166.5t-149 -66.5q-107 0 -161 90.5t-54 247.5q0 50 5 96.5t21 100t41 92.5t70 65t103 26q85 0 155 -43z"/>
<glyph glyph-name="seven" horiz-adv-x="449" unicode="7" d="M42 700h383v-53l-249 -647h-59l248 647h-323v53z"/>
<glyph glyph-name="eight" horiz-adv-x="500" unicode="8" d="M133 528q0 -57 32 -94t85 -37t85 37t32 94q0 60 -34.5 95.5t-82.5 35.5t-82.5 -35.5t-34.5 -95.5zM396 193q0 66 -40.5 108.5t-105.5 42.5t-105.5 -42.5t-40.5 -108.5q0 -67 41.5 -109t104.5 -42t104.5 42t41.5 109zM78 533q0 81 51 128.5t121 47.5t121 -48t51 -128 q0 -57 -26.5 -100t-72.5 -58q54 -17 92 -64.5t38 -119.5q0 -91 -60 -145t-143 -55q-83 1 -143 55t-60 145q0 72 38 119.5t92 64.5q-46 15 -72.5 58t-26.5 100z"/>
<glyph glyph-name="nine" horiz-adv-x="523" unicode="9" d="M251 294q64 0 108.5 56t44.5 129q0 70 -42.5 123.5t-108.5 53.5q-65 0 -105.5 -52t-40.5 -126q0 -81 39.5 -132.5t104.5 -51.5zM73 34l21 46q72 -35 129 -35q85 0 136.5 70.5t53.5 224.5q0 5 -1 17q-21 -51 -65 -81.5t-104 -30.5q-87 0 -141 62.5t-54 168.5 q0 100 56 166.5t149 66.5q107 0 161 -90.5t54 -247.5q0 -50 -5 -96.5t-21 -100t-41 -92.5t-70 -65t-103 -26q-85 0 -155 43z"/>
<glyph glyph-name="colon" horiz-adv-x="198" unicode=":" d="M65 31q0 15 10 25.5t24 10.5t24 -10.5t10 -25.5q0 -16 -9.5 -26t-24.5 -10t-24.5 10t-9.5 26zM65 408q0 15 10 25.5t24 10.5t24 -10.5t10 -25.5q0 -16 -9.5 -26t-24.5 -10t-24.5 10t-9.5 26z"/>
<glyph glyph-name="semicolon" horiz-adv-x="227" unicode=";" d="M107 67q24 0 37.5 -22t13.5 -51q0 -72 -74 -116l-11 19q19 15 33 39t14 50q0 10 -3 20q-2 -9 -15 -9q-30 0 -30 33q0 16 10 26.5t25 10.5zM75 408q0 15 10 25.5t24 10.5t24 -10.5t10 -25.5q0 -16 -9.5 -26t-24.5 -10t-24.5 10t-9.5 26z"/>
<glyph glyph-name="less" horiz-adv-x="371" unicode="&lt;" d="M295 502v-50l-192 -115q42 -26 194 -116v-51l-247 148v38q27 16 112.5 66.5t132.5 79.5z"/>
<glyph glyph-name="equal" horiz-adv-x="428" unicode="=" d="M69 271h290v-44h-290v44zM69 428h290v-44h-290v44z"/>
<glyph glyph-name="greater" horiz-adv-x="370" unicode="&gt;" d="M75 452v50l244 -146v-38l-246 -148v51l193 116q-81 47 -191 115z"/>
<glyph glyph-name="question" horiz-adv-x="407" unicode="?" d="M181 74q17 0 28 -11.5t11 -30.5q0 -18 -10.5 -29.5t-28.5 -11.5t-29.5 11.5t-11.5 29.5q0 19 11.5 30.5t29.5 11.5zM189 709q69 0 123 -45.5t54 -122.5q0 -40 -16.5 -73.5t-40.5 -57t-48 -46.5t-40.5 -51.5t-16.5 -60.5v-72h-49v54q0 42 16 77t38.5 59t45.5 47.5t39 53 t16 64.5q0 58 -37 89t-87 31q-65 0 -120 -42l-23 43q27 23 67.5 38t78.5 15z"/>
<glyph glyph-name="at" horiz-adv-x="789" unicode="@" d="M381 130q48 0 81 34.5t33 84.5v51q-47 10 -88 10q-113 0 -113 -91q0 -41 24 -65t63 -24zM605 95q-48 0 -73.5 26t-27.5 71q-12 -46 -47 -71.5t-80 -25.5q-51 0 -86 32.5t-35 91.5q0 64 40.5 93t101.5 29q20 0 44 -2.5t38 -4.5l15 -3v43q0 58 -23.5 79.5t-70.5 21.5 t-101 -16l-8 30q60 22 121 22q63 0 92 -32.5t29 -102.5v-176q0 -37 19.5 -54t51.5 -17q103 0 103 183q0 176 -86 265.5t-213 89.5q-143 0 -231 -106.5t-88 -267.5q0 -100 34.5 -181t104 -131t162.5 -50q66 0 120 25l14 -34q-66 -31 -137 -31q-153 0 -246 115.5t-93 287.5 q0 178 100 296.5t259 118.5q146 0 243 -103t97 -286q0 -104 -34.5 -164.5t-108.5 -60.5z"/>
<glyph glyph-name="A" horiz-adv-x="561" unicode="A" d="M278 641l-117 -396h237l-118 396h-2zM240 705h81l214 -705h-64l-59 195h-266l-58 -195h-62z"/>
<glyph glyph-name="B" horiz-adv-x="567" unicode="B" d="M148 647v-269h167q49 0 82 34.5t33 92.5q0 62 -33 102t-88 40h-161zM148 53h189q55 0 88.5 39t33.5 97q0 60 -35 100t-91 40h-185v-276zM86 700h230q73 0 123 -52t50 -135q0 -59 -26 -99t-70 -56q53 -12 90.5 -58.5t37.5 -116.5q0 -80 -50 -131.5t-124 -51.5h-261v700z "/>
<glyph glyph-name="C" horiz-adv-x="570" unicode="C" d="M357 709q97 0 174 -51l-23 -47q-72 43 -150 43q-104 0 -175.5 -88t-71.5 -216t71.5 -216t175.5 -88q78 0 150 43l23 -48q-81 -50 -174 -50q-131 0 -221 101.5t-90 257.5q0 155 90 257t221 102z"/>
<glyph glyph-name="D" horiz-adv-x="609" unicode="D" d="M148 647v-594h133q62 0 111 35q103 73 103 262q0 190 -103 263q-48 34 -111 34h-133zM292 0h-206v700h206q76 0 137 -42q64 -44 97 -125.5t33 -182.5q0 -98 -32 -180t-99 -128q-62 -42 -136 -42z"/>
<glyph glyph-name="E" horiz-adv-x="550" unicode="E" d="M86 700h408v-53h-346v-281h298v-51h-298v-262h358v-53h-420v700z"/>
<glyph glyph-name="F" horiz-adv-x="521" unicode="F" d="M86 700h408v-53h-346v-286h298v-51h-298v-310h-62v700z"/>
<glyph glyph-name="G" horiz-adv-x="637" unicode="G" d="M363 709q103 0 188 -54l-24 -46q-77 45 -162 45q-111 0 -182 -89t-71 -216q0 -129 70.5 -216t178.5 -87q91 0 166 78v172h-161v51h219v-247q-94 -109 -231 -109q-129 0 -218 102.5t-89 255.5q0 155 91 257.5t225 102.5z"/>
<glyph glyph-name="H" horiz-adv-x="642" unicode="H" d="M86 700h62v-322h346v322h62v-700h-62v327h-346v-327h-62v700z"/>
<glyph glyph-name="I" horiz-adv-x="235" unicode="I" d="M86 700h62v-700h-62v700z"/>
<glyph glyph-name="J" horiz-adv-x="441" unicode="J" d="M180 -3q-62 0 -107.5 38.5t-62.5 77.5l37 24q56 -91 134 -91q60 0 89 45t29 116v493h62v-474q0 -105 -45 -167t-136 -62z"/>
<glyph glyph-name="K" horiz-adv-x="542" unicode="K" d="M86 0v700h62v-210l-2 -200l2 -1l136 194l155 217h73l-223 -312l245 -388h-72l-211 340l-103 -138v-202h-62z"/>
<glyph glyph-name="L" horiz-adv-x="492" unicode="L" d="M86 700h62v-647h329v-53h-391v700z"/>
<glyph glyph-name="M" horiz-adv-x="782" unicode="M" d="M608 700h87v-700h-62v601l-211 -560h-63l-211 560v-601h-62v700h88l217 -587z"/>
<glyph glyph-name="N" horiz-adv-x="628" unicode="N" d="M86 700h66l329 -595h1l-2 369v226h62v-700h-68l-327 596h-1l2 -289v-307h-62v700z"/>
<glyph glyph-name="O" horiz-adv-x="705" unicode="O" d="M112 349q0 -129 67.5 -215.5t173.5 -86.5t174 86t68 216q0 127 -69 216t-173 89t-172.5 -87.5t-68.5 -217.5zM47 350q0 153 86.5 256t219.5 103t219.5 -103t86.5 -256q0 -152 -85.5 -255t-220.5 -104q-134 1 -220 104t-86 255z"/>
<glyph glyph-name="P" horiz-adv-x="543" unicode="P" d="M148 647v-310h169q60 0 99.5 44t39.5 110t-39 111t-100 45h-169zM86 700h235q83 0 138 -59.5t55 -148.5t-56 -148.5t-137 -59.5h-173v-284h-62v700z"/>
<glyph glyph-name="Q" horiz-adv-x="702" unicode="Q" d="M110 350q0 -130 67.5 -217t172.5 -87q106 0 173.5 88t67.5 216q0 129 -68.5 216.5t-172.5 87.5t-172 -87.5t-68 -216.5zM446 7v-2q43 -28 101 -51t85 -29l-15 -52q-50 12 -116.5 46t-117.5 73q-17 -1 -33 -1q-134 0 -219 103.5t-85 256.5t86 255.5t218 102.5 q133 0 219 -102.5t86 -255.5q0 -122 -63 -218t-146 -126z"/>
<glyph glyph-name="R" horiz-adv-x="574" unicode="R" d="M148 647v-291h191q52 0 88 41.5t36 105.5q0 60 -37.5 102t-101.5 42h-176zM86 700h239q86 0 141 -56t55 -141q0 -148 -131 -193l151 -310h-68l-146 305h-179v-305h-62v700z"/>
<glyph glyph-name="S" horiz-adv-x="503" unicode="S" d="M251 -9q-98 0 -205 52l20 46q100 -45 180 -45q74 0 113 36t39 96q0 33 -12.5 57.5t-41.5 43t-49.5 27.5t-63.5 25q-41 15 -67 28.5t-55 36t-43.5 55.5t-14.5 77q0 89 54.5 136t148.5 47q98 0 184 -42l-19 -46l-5 2q-4 2 -10 4t-15.5 5.5t-20 6.5t-23.5 6t-26 5.5t-28 4 t-29 1.5q-67 0 -107 -34t-40 -94q0 -32 11 -55t36.5 -40.5t45 -26.5t57.5 -24q94 -36 127 -60q71 -51 71 -144t-58 -140t-154 -47z"/>
<glyph glyph-name="T" horiz-adv-x="497" unicode="T" d="M10 700h477v-52h-206v-648h-62v648h-209v52z"/>
<glyph glyph-name="U" horiz-adv-x="609" unicode="U" d="M80 700h62v-482q0 -76 45 -124t118 -48t117.5 48t44.5 124v482h62v-477q0 -104 -61 -168t-163 -64q-104 0 -164.5 65t-60.5 167v477z"/>
<glyph glyph-name="V" horiz-adv-x="548" unicode="V" d="M21 700h67l188 -621l187 621h65l-214 -700h-77z"/>
<glyph glyph-name="W" horiz-adv-x="829" unicode="W" d="M455 700l137 -634l147 634h59l-166 -700h-84l-134 622l-134 -622h-84l-169 700h64l147 -634l137 634h80z"/>
<glyph glyph-name="X" horiz-adv-x="553" unicode="X" d="M278 399h2l189 301h67l-224 -352l223 -348h-73l-186 297h-2l-186 -297h-69l222 348l-224 352h72z"/>
<glyph glyph-name="Y" horiz-adv-x="518" unicode="Y" d="M17 700h68l174 -351h4l172 351h64l-210 -414v-286h-59v286z"/>
<glyph glyph-name="Z" horiz-adv-x="518" unicode="Z" d="M42 700h443v-44l-379 -602l1 -3l144 2h229v-53h-450v44l378 603l-2 2l-144 -2h-220v53z"/>
<glyph glyph-name="bracketleft" horiz-adv-x="256" unicode="[" d="M215 709v-49h-86v-796h86v-47h-136v892h136z"/>
<glyph glyph-name="backslash" horiz-adv-x="409" unicode="\" d="M327 -34l-294 769h50q49 -128 147 -384.5t147 -384.5h-50z"/>
<glyph glyph-name="bracketright" horiz-adv-x="256" unicode="]" d="M41 660v49h136v-892h-136v47h86v796h-86z"/>
<glyph glyph-name="underscore" horiz-adv-x="481" unicode="_" d="M65 -89h352v-44h-352v44z"/>
<glyph glyph-name="grave" horiz-adv-x="248" unicode="`" d="M77 716l44 25l53 -153h-38z"/>
<glyph glyph-name="a" horiz-adv-x="484" unicode="a" d="M347 204v48q-54 12 -116 12q-139 0 -139 -113q0 -56 32 -81.5t76 -25.5q63 0 105 44.5t42 115.5zM88 453l-12 48q88 28 161 28q86 0 128 -39.5t42 -126.5v-291q0 -16 7 -21.5t20 -5.5l23 2v-43q-20 -8 -49 -8q-61 0 -61 70v17q-18 -38 -57.5 -65t-97.5 -27 q-70 0 -115 40.5t-45 116.5q0 85 54 126t138 41q56 0 123 -13v55q0 69 -29.5 94t-88.5 25q-70 0 -141 -23z"/>
<glyph glyph-name="b" horiz-adv-x="548" unicode="b" d="M288 476q-67 0 -111.5 -61.5t-44.5 -154.5t43.5 -154.5t111.5 -61.5t112.5 62t44.5 154t-43.5 154t-112.5 62zM71 732h60v-312q22 50 69.5 79.5t98.5 29.5q90 0 148.5 -77.5t58.5 -191.5t-58.5 -191.5t-149.5 -77.5q-58 0 -104 33t-66 83l-8 -107h-49v732z"/>
<glyph glyph-name="c" horiz-adv-x="441" unicode="c" d="M277 -9q-101 0 -168.5 77.5t-67.5 191.5q0 113 67.5 191t168.5 78q62 0 128 -34l-19 -44q-1 1 -13.5 6.5t-37.5 12t-48 6.5q-82 0 -133.5 -65t-51.5 -151t51.5 -151t133.5 -65q45 0 99 24l19 -44q-66 -33 -128 -33z"/>
<glyph glyph-name="d" horiz-adv-x="548" unicode="d" d="M260 476q-69 0 -112.5 -62t-43.5 -154t44.5 -154t112.5 -62t111.5 61.5t43.5 154.5t-44.5 154.5t-111.5 61.5zM417 732h60v-732h-49l-8 107q-20 -50 -66 -83t-104 -33q-91 0 -149.5 77.5t-58.5 191.5t58.5 191.5t148.5 77.5q51 0 98.5 -29.5t69.5 -79.5v312z"/>
<glyph glyph-name="e" horiz-adv-x="497" unicode="e" d="M104 284h294q1 75 -33.5 133.5t-102.5 58.5q-69 0 -112 -53.5t-46 -138.5zM41 260q0 114 60 191.5t158 77.5q93 0 147.5 -74.5t54.5 -177.5q0 -29 -2 -40h-355q5 -82 55 -137.5t124 -55.5q57 0 130 34l17 -45q-80 -42 -157 -42q-102 0 -167 78t-65 191z"/>
<glyph glyph-name="f" horiz-adv-x="280" unicode="f" d="M272 732l-11 -48q-25 5 -48 5q-43 0 -56.5 -27t-13.5 -84v-58h119v-45h-119v-475h-60v475h-56v37l56 8v53q0 86 27 126.5t95 40.5q31 0 67 -8z"/>
<glyph glyph-name="g" horiz-adv-x="455" unicode="g" d="M256 48q-87 0 -117 10q-38 -29 -38 -86q0 -29 11.5 -48.5t32 -27.5t40 -11t45.5 -3q19 0 33.5 1t33.5 6.5t31.5 14.5t21.5 26.5t9 41.5q0 40 -24.5 58t-78.5 18zM229 480q-49 0 -79 -32.5t-30 -88.5q0 -54 28.5 -86t80.5 -32t80.5 32t28.5 87t-30 87.5t-79 32.5zM421 520 v-41l-72 -5q48 -35 48 -115q0 -75 -43.5 -120t-125.5 -45q-47 0 -79 17q-35 -21 -35 -58q0 -34 29.5 -44.5t86.5 -10.5h40q149 0 149 -127q0 -141 -186 -141q-35 0 -65 5t-60.5 18t-48.5 40.5t-18 66.5q0 67 57 119q-39 24 -39 71q0 51 50 86q-48 42 -48 123 q0 79 45.5 124.5t120.5 45.5q35 0 69 -9h125z"/>
<glyph glyph-name="h" horiz-adv-x="518" unicode="h" d="M71 732h61v-304q18 42 56 71.5t97 29.5q78 0 122.5 -56.5t44.5 -163.5v-309h-60v314q0 76 -32 119t-88 43q-66 0 -103 -54.5t-37 -122.5v-299h-61v732z"/>
<glyph glyph-name="i" horiz-adv-x="210" unicode="i" d="M36 520h103v-520h-60v470l-43 10v40zM100 701q19 0 31.5 -12.5t12.5 -30.5q0 -20 -12 -32t-32 -12t-32 12t-12 31t12 31.5t32 12.5z"/>
<glyph glyph-name="j" horiz-adv-x="213" unicode="j" d="M101 701q19 0 31.5 -12.5t12.5 -30.5q0 -20 -12.5 -32t-31.5 -12q-20 0 -32 12t-12 31t12 31.5t32 12.5zM-13 -159l12 43q20 -5 37 -5q46 0 46 81v510l-43 10v40h103v-539q0 -25 -0.5 -38.5t-5.5 -38.5t-14.5 -38.5t-29.5 -25t-48 -11.5q-30 0 -57 12z"/>
<glyph glyph-name="k" horiz-adv-x="423" unicode="k" d="M71 732h60v-252l-1 -242l209 282h65l-176 -237l174 -283h-69l-142 236l-60 -79v-157h-60v732z"/>
<glyph glyph-name="l" horiz-adv-x="222" unicode="l" d="M76 732h60v-653q0 -37 30 -37l26 4v-47q-24 -8 -50 -8q-33 0 -49.5 19t-16.5 49v673z"/>
<glyph glyph-name="m" horiz-adv-x="772" unicode="m" d="M71 520h45l11 -84q15 39 54 66t88 27q50 0 86 -28.5t47 -78.5q13 43 54 75t95 32q74 0 114.5 -49.5t40.5 -140.5v-339h-60v341q0 64 -28 99.5t-81 35.5q-51 0 -84.5 -42t-33.5 -104v-330h-60v347q0 62 -29.5 95.5t-79.5 33.5t-84.5 -43t-34.5 -103v-330h-60v520z"/>
<glyph glyph-name="n" horiz-adv-x="518" unicode="n" d="M71 520h45l12 -97q4 12 14.5 27.5t29 34.5t49.5 31.5t67 12.5q77 0 120.5 -56.5t43.5 -163.5v-309h-60v314q0 76 -32 119t-88 43q-66 0 -103.5 -54.5t-37.5 -122.5v-299h-60v520z"/>
<glyph glyph-name="o" horiz-adv-x="536" unicode="o" d="M267 476q-74 0 -119.5 -62t-45.5 -155q0 -91 45.5 -153t119.5 -62q73 0 119.5 62t46.5 153q0 92 -46 154.5t-120 62.5zM40 259q0 115 64.5 192.5t162.5 77.5q99 0 163.5 -77t64.5 -193q0 -114 -64.5 -191t-163.5 -77q-98 0 -162.5 77t-64.5 191z"/>
<glyph glyph-name="p" horiz-adv-x="546" unicode="p" d="M286 476q-69 0 -112 -62t-43 -154q0 -94 44.5 -155t111.5 -61q69 0 112.5 62t43.5 154t-44.5 154t-112.5 62zM297 529q91 0 149.5 -77.5t58.5 -191.5t-58.5 -191.5t-148.5 -77.5q-57 0 -103 31t-64 75v-267h-60v690h46l10 -110q20 54 66 86.5t104 32.5z"/>
<glyph glyph-name="q" horiz-adv-x="545" unicode="q" d="M260 476q-68 0 -112.5 -62t-44.5 -154t43.5 -154t112.5 -62q67 0 111.5 61t44.5 155q0 92 -43 154t-112 62zM249 529q58 0 104 -32.5t66 -86.5l10 110h46v-690h-60v267q-18 -44 -64 -75t-103 -31q-90 0 -148.5 77.5t-58.5 191.5t58.5 191.5t149.5 77.5z"/>
<glyph glyph-name="r" horiz-adv-x="289" unicode="r" d="M71 520h46l9 -99q12 41 48.5 71.5t91.5 31.5v-57q-60 0 -97.5 -45t-37.5 -121v-301h-60v520z"/>
<glyph glyph-name="s" horiz-adv-x="402" unicode="s" d="M204 -9q-84 0 -159 40l14 43q78 -34 140 -34q54 0 81.5 25t27.5 67q0 30 -17.5 51t-35.5 29.5t-62 24.5q-9 3 -13 5q-31 12 -49.5 20.5t-41.5 25.5t-34 42t-11 58q0 66 44.5 103.5t115.5 37.5q76 0 142 -32l-16 -43q-60 26 -121 26q-49 0 -78.5 -24t-29.5 -66 q0 -40 26 -59.5t86 -40.5q30 -11 44.5 -17t39.5 -20t37 -28t22 -38t10 -54q0 -68 -44.5 -105t-117.5 -37z"/>
<glyph glyph-name="t" horiz-adv-x="294" unicode="t" d="M96 670h48v-150h117v-45h-117v-335q0 -53 15 -76.5t52 -23.5q20 0 49 8l2 -44q-34 -13 -68 -13q-62 0 -86 34.5t-24 109.5v340h-64v37l64 7z"/>
<glyph glyph-name="u" horiz-adv-x="517" unicode="u" d="M66 520h60v-319q0 -157 120 -157q69 0 104 48.5t35 115.5v312h61v-520h-46l-10 85q-17 -40 -58.5 -67t-100.5 -27q-77 0 -121 50.5t-44 156.5v322z"/>
<glyph glyph-name="v" horiz-adv-x="461" unicode="v" d="M32 520h62l138 -457l137 457h60l-162 -520h-72z"/>
<glyph glyph-name="w" horiz-adv-x="713" unicode="w" d="M326 520h60l113 -447l121 447h58l-143 -520h-71l-108 431l-108 -431h-71l-142 520h58l120 -447z"/>
<glyph glyph-name="x" horiz-adv-x="442" unicode="x" d="M22 0l165 258l-162 262h66l133 -220l133 220h63l-163 -262l165 -258h-66l-134 217l-135 -217h-65z"/>
<glyph glyph-name="y" horiz-adv-x="462" unicode="y" d="M32 520h61l141 -450l135 450h61l-216 -690h-59l50 161z"/>
<glyph glyph-name="z" horiz-adv-x="431" unicode="z" d="M42 520h353v-48l-294 -421l1 -3l126 1h167v-49h-365v46l296 423l-1 2l-140 -1h-143v50z"/>
<glyph glyph-name="braceleft" horiz-adv-x="282" unicode="{" d="M94 262q50 -13 50 -87v-224q0 -50 17 -68t57 -18h23v-48h-18q-45 0 -71.5 9.5t-39 35.5t-15.5 53.5t-3 81.5v175q0 68 -58 70v41q58 2 58 70v175q0 104 23.5 142.5t105.5 38.5h18v-48h-23q-46 0 -60 -22.5t-14 -85.5v-203q0 -72 -50 -88z"/>
<glyph glyph-name="bar" horiz-adv-x="206" unicode="|" d="M78 798h49v-949h-49v949z"/>
<glyph glyph-name="braceright" horiz-adv-x="283" unicode="}" d="M188 262q-50 16 -50 88v203q0 63 -14 85.5t-60 22.5h-23v48h18q82 0 105.5 -38.5t23.5 -142.5v-175q0 -68 58 -70v-41q-58 -2 -58 -70v-175q0 -54 -3 -81.5t-15.5 -53.5t-39 -35.5t-71.5 -9.5h-18v48h23q40 0 57 18t17 68v224q0 74 50 87z"/>
<glyph glyph-name="exclamdown" horiz-adv-x="214" unicode="¡" d="M106 446q-18 0 -29 11.5t-11 30.5q0 18 11 29.5t29 11.5t29 -11.5t11 -29.5q0 -19 -11.5 -30.5t-28.5 -11.5zM145 -179h-76l15 520h47z"/>
<glyph glyph-name="cent" horiz-adv-x="478" unicode="¢" d="M283 -9h-30v82q-96 8 -153.5 83.5t-57.5 184.5t57.5 184.5t153.5 83.5v83h30v-82q61 -3 121 -35l-17 -45q-2 2 -15 7.5t-41 12.5t-55 7q-84 0 -129 -62t-45 -154t45 -154t129 -62q27 0 55 7t41 12.5t15 7.5l17 -45q-59 -34 -121 -35v-81z"/>
<glyph glyph-name="sterling" horiz-adv-x="496" unicode="£" d="M418 631l-38 -30q-44 53 -99 53q-58 0 -88.5 -40t-30.5 -109v-152h211v-38h-211v-156q0 -41 -15.5 -68.5t-32.5 -38.5h325v-52h-392v52q2 1 5.5 3t13 11t16.5 19.5t12.5 29.5t5.5 41v159h-46v38h46v147q0 93 46 151t133 58q84 0 139 -78z"/>
<glyph glyph-name="yen" horiz-adv-x="540" unicode="¥" d="M29 700h66l174 -352h4l171 352h67l-210 -414v-34h109v-32h-109v-58h109v-31h-109v-131h-59v131h-111v31h111v58h-111v32h111v34z"/>
<glyph glyph-name="section" horiz-adv-x="511" unicode="§" d="M165 410q-61 -53 -61 -128q0 -29 15.5 -52t45.5 -39.5t56.5 -27t66 -23t57.5 -20.5q61 59 61 128q0 29 -15.5 51.5t-44.5 38.5t-56 27t-66 23.5t-59 21.5zM72 -124l18 47q75 -34 142 -37h21q134 0 134 100q0 41 -34.5 68t-84 43t-98.5 35t-83.5 57t-34.5 95q0 84 75 149 q-69 45 -69 113q0 154 201 154q89 0 179 -45l-19 -46q-82 38 -155 38q-139 0 -139 -103q0 -42 34.5 -69.5t83.5 -43.5t98 -34.5t83.5 -55.5t34.5 -93q0 -48 -25.5 -89t-49.5 -62q69 -42 69 -112q0 -155 -201 -155q-88 0 -180 46z"/>
<glyph glyph-name="dieresis" horiz-adv-x="390" unicode="¨" d="M251 637q0 14 9 24t22 10q14 0 23.5 -9.5t9.5 -24.5q0 -14 -9.5 -23t-23.5 -9q-13 0 -22 9t-9 23zM78 637q0 14 9 24t22 10q14 0 23 -9.5t9 -24.5q0 -14 -9 -23t-23 -9q-13 0 -22 9t-9 23z"/>
<glyph glyph-name="copyright" horiz-adv-x="705" unicode="©" d="M433 248l25 -30q-41 -41 -97 -41q-64 0 -109.5 51t-45.5 125q0 73 45 124.5t107 51.5q60 0 100 -42l-25 -28q-31 26 -69 26q-46 0 -77 -38.5t-31 -93.5t30.5 -93.5t78.5 -38.5q38 0 68 27zM354 28q112 0 193 94t81 227q0 134 -81 228.5t-194 94.5q-112 0 -193 -95 t-81 -227q0 -133 81 -227.5t194 -94.5zM354 700q124 0 212 -103t88 -247q0 -145 -88 -247.5t-212 -102.5t-213 102.5t-89 247.5t88.5 247.5t213.5 102.5z"/>
<glyph glyph-name="ordfeminine" horiz-adv-x="417" unicode="ª" d="M57 308h294v-39h-294v39zM276 495v47q-37 8 -71 8q-103 0 -103 -82q0 -36 22 -54.5t56 -18.5q42 0 69 29t27 71zM101 676l-10 34q66 22 122 22q105 0 105 -122v-198q0 -16 14 -16l16 2v-30q-9 -6 -29 -6q-41 0 -41 44v16q-11 -24 -36.5 -43t-66.5 -19q-48 0 -80 28.5 t-32 80.5q0 60 40.5 84.5t100.5 24.5q16 0 34 -2t28 -4l10 -2v23q0 50 -17.5 75t-61.5 25q-35 0 -96 -17z"/>
<glyph glyph-name="guillemotleft" horiz-adv-x="484" unicode="«" d="M400 494l30 -32l-136 -202l136 -202l-30 -31l-171 226v14zM210 494l30 -32l-136 -202l136 -202l-30 -31l-171 226v14z"/>
<glyph glyph-name="registered" horiz-adv-x="513" unicode="®" d="M212 573v-91h59q16 0 27.5 13.5t11.5 31.5q0 21 -11.5 33.5t-28.5 12.5h-58zM192 592h81q25 0 41 -18.5t16 -46.5q0 -23 -12 -40t-31 -22l50 -101h-23l-49 99h-53v-99h-20v228zM257 676q-75 0 -120.5 -58t-45.5 -142q0 -86 45.5 -143t120.5 -57q73 0 120 57t47 143 q0 84 -46 142t-121 58zM257 700q85 0 137.5 -64.5t52.5 -159.5q0 -94 -53 -159t-137 -65t-137 64.5t-53 159.5t52.5 159.5t137.5 64.5z"/>
<glyph glyph-name="macron" horiz-adv-x="390" unicode="¯" d="M71 648h251v-39h-251v39z"/>
<glyph glyph-name="degree" horiz-adv-x="283" unicode="°" d="M85 622q0 -26 17 -44.5t39 -18.5t38.5 18t16.5 45t-17 45t-38 18q-22 0 -39 -18.5t-17 -44.5zM59 623q0 39 24.5 65.5t57.5 26.5q34 0 57.5 -25.5t23.5 -65.5q0 -42 -23.5 -68t-57.5 -26t-58 26t-24 67z"/>
<glyph glyph-name="plusminus" horiz-adv-x="427" unicode="±" d="M68 129h292v-42h-292v42zM193 525h42v-136h125v-41h-125v-136h-42v136h-126v41h126v136z"/>
<glyph glyph-name="acute" horiz-adv-x="248" unicode="´" d="M125 746l44 -25l-64 -123h-33z"/>
<glyph glyph-name="mu" horiz-adv-x="523" unicode="µ" d="M136 -170h-58v690h58v-314q0 -162 127 -162q69 0 104.5 45.5t35.5 118.5v312h59v-520h-44l-10 85q-45 -94 -156 -94q-86 0 -116 63v-224z"/>
<glyph glyph-name="paragraph" horiz-adv-x="453" unicode="¶" d="M365 -87h-45v740h-63v-740h-46v389h-26q-71 0 -110 58t-39 144q0 89 46.5 142.5t113.5 53.5h169v-787z"/>
<glyph glyph-name="periodcentered" horiz-adv-x="232" unicode="·" d="M115 359q23 0 39 -17.5t16 -42.5q0 -24 -16 -41t-39 -17q-21 0 -37 17t-16 41q0 25 16 42.5t37 17.5z"/>
<glyph glyph-name="cedilla" horiz-adv-x="270" unicode="¸" d="M105 -94l-14 20l22 66h33l-14 -55q5 1 11 1q26 0 45 -16t19 -49q0 -35 -22.5 -53t-59.5 -18q-29 0 -62 10l8 30q30 -6 45 -6q49 0 49 37q0 35 -40 35z"/>
<glyph glyph-name="ordmasculine" horiz-adv-x="464" unicode="º" d="M85 308h294v-39h-294v39zM230 693q-52 0 -84.5 -42t-32.5 -105t32.5 -105t84.5 -42t84.5 42t32.5 105t-32.5 105t-84.5 42zM230 360q-73 0 -117.5 54t-44.5 132t44.5 132t117.5 54t117.5 -54t44.5 -132t-44.5 -132t-117.5 -54z"/>
<glyph glyph-name="guillemotright" horiz-adv-x="485" unicode="»" d="M54 462l30 32l171 -227v-14l-171 -226l-30 31l136 202zM244 462l30 32l171 -227v-14l-171 -226l-30 31l136 202z"/>
<glyph glyph-name="questiondown" horiz-adv-x="399" unicode="¿" d="M223 446q-17 0 -28 11.5t-11 30.5q0 18 10.5 29.5t28.5 11.5t29.5 -11.5t11.5 -29.5q0 -19 -11.5 -30.5t-29.5 -11.5zM215 -189q-69 0 -123 45.5t-54 122.5q0 40 16.5 73.5t40.5 57t48 46.5t40.5 51.5t16.5 60.5v72h49v-54q0 -42 -16 -77t-38.5 -59t-45.5 -47.5t-39 -53 t-16 -64.5q0 -58 37 -89t87 -31q65 0 120 42l23 -43q-27 -23 -67.5 -38t-78.5 -15z"/>
<glyph glyph-name="Agrave" horiz-adv-x="561" unicode="À" d="M278 641l-117 -396h237l-118 396h-2zM240 705h81l214 -705h-64l-59 195h-266l-58 -195h-62zM204 871l44 25l53 -153h-38z"/>
<glyph glyph-name="Aacute" horiz-adv-x="561" unicode="Á" d="M278 641l-117 -396h237l-118 396h-2zM240 705h81l214 -705h-64l-59 195h-266l-58 -195h-62zM317 896l44 -25l-59 -128h-38z"/>
<glyph glyph-name="Acircumflex" horiz-adv-x="561" unicode="Â" d="M278 641l-117 -396h237l-118 396h-2zM240 705h81l214 -705h-64l-59 195h-266l-58 -195h-62zM224 749h-50l83 112h46l83 -112h-50l-56 81z"/>
<glyph glyph-name="Atilde" horiz-adv-x="561" unicode="Ã" d="M278 641l-117 -396h237l-118 396h-2zM240 705h81l214 -705h-64l-59 195h-266l-58 -195h-62zM179 764l-18 12q12 26 33 42t44 16q22 0 55 -20.5t53 -20.5q24 0 49 33l17 -14q-31 -60 -77 -60q-23 0 -55.5 20.5t-52.5 20.5q-28 0 -48 -29z"/>
<glyph glyph-name="Adieresis" horiz-adv-x="562" unicode="Ä" d="M278 641l-117 -396h237l-118 396h-2zM240 705h81l214 -705h-64l-59 195h-266l-58 -195h-62zM330 785q0 16 10 27t24 11q16 0 26 -10.5t10 -27.5q0 -15 -10 -25.5t-26 -10.5q-15 0 -24.5 10.5t-9.5 25.5zM159 785q0 16 10 27t24 11q16 0 26 -10.5t10 -27.5 q0 -15 -10 -25.5t-26 -10.5q-15 0 -24.5 10.5t-9.5 25.5z"/>
<glyph glyph-name="Aring" horiz-adv-x="561" unicode="Å" d="M278 641l-117 -396h237l-118 396h-2zM240 705h81l214 -705h-64l-59 195h-266l-58 -195h-62zM279 879q-23 0 -35 -14t-12 -35t12 -34.5t35 -13.5t35 13.5t12 34.5t-12 35t-35 14zM279 751q-36 0 -60 22t-24 57t24 57.5t60 22.5t60 -22.5t24 -57.5t-24 -57t-60 -22z"/>
<glyph glyph-name="AE" horiz-adv-x="796" unicode="Æ" d="M366 644h-36l-155 -396h191v396zM13 0l281 700h480v-53h-346v-281h298v-51h-298v-262h358v-53h-420v196h-212l-76 -196h-65z"/>
<glyph glyph-name="Ccedilla" horiz-adv-x="571" unicode="Ç" d="M357 709q97 0 174 -51l-23 -47q-72 43 -150 43q-104 0 -175.5 -88t-71.5 -216t71.5 -216t175.5 -88q78 0 150 43l23 -48q-78 -47 -168 -50l-13 -54q5 1 11 1q26 0 45 -16t19 -49q0 -35 -22.5 -53t-59.5 -18q-29 0 -62 10l8 30q30 -6 45 -6q49 0 49 37q0 35 -40 35l-20 -2 l-14 20l22 66q-122 11 -203.5 110.5t-81.5 247.5q0 155 90 257t221 102z"/>
<glyph glyph-name="Egrave" horiz-adv-x="548" unicode="È" d="M86 700h408v-53h-346v-281h298v-51h-298v-262h358v-53h-420v700zM221 871l44 25l53 -153h-38z"/>
<glyph glyph-name="Eacute" horiz-adv-x="548" unicode="É" d="M86 700h408v-53h-346v-281h298v-51h-298v-262h358v-53h-420v700zM317 896l44 -25l-59 -128h-38z"/>
<glyph glyph-name="Ecircumflex" horiz-adv-x="548" unicode="Ê" d="M86 700h408v-53h-346v-281h298v-51h-298v-262h358v-53h-420v700zM242 749h-50l83 112h46l83 -112h-50l-56 81z"/>
<glyph glyph-name="Edieresis" horiz-adv-x="548" unicode="Ë" d="M86 700h408v-53h-346v-281h298v-51h-298v-262h358v-53h-420v700zM348 785q0 16 10 27t24 11q16 0 26 -10.5t10 -27.5q0 -15 -10 -25.5t-26 -10.5q-15 0 -24.5 10.5t-9.5 25.5zM177 785q0 16 10 27t24 11q16 0 26 -10.5t10 -27.5q0 -15 -10 -25.5t-26 -10.5 q-15 0 -24.5 10.5t-9.5 25.5z"/>
<glyph glyph-name="Igrave" horiz-adv-x="234" unicode="Ì" d="M85 700h62v-700h-62v700zM39 871l44 25l53 -153h-38z"/>
<glyph glyph-name="Iacute" horiz-adv-x="235" unicode="Í" d="M86 700h62v-700h-62v700zM152 896l44 -25l-59 -128h-38z"/>
<glyph glyph-name="Icircumflex" horiz-adv-x="235" unicode="Î" d="M87 700h62v-700h-62v700zM63 749h-50l83 112h46l83 -112h-50l-56 81z"/>
<glyph glyph-name="Idieresis" horiz-adv-x="235" unicode="Ï" d="M87 700h62v-700h-62v700zM169 785q0 16 10 27t24 11q16 0 26 -10.5t10 -27.5q0 -15 -10 -25.5t-26 -10.5q-15 0 -24.5 10.5t-9.5 25.5zM-2 785q0 16 10 27t24 11q16 0 26 -10.5t10 -27.5q0 -15 -10 -25.5t-26 -10.5q-15 0 -24.5 10.5t-9.5 25.5z"/>
<glyph glyph-name="Eth" horiz-adv-x="611" unicode="Ð" d="M151 647v-279h137v-32h-137v-283h133q62 0 111 35q103 73 103 262q0 190 -103 263q-48 34 -111 34h-133zM295 0h-206v336h-78v32h78v332h206q76 0 137 -42q64 -44 97 -125.5t33 -182.5q0 -98 -32 -180t-99 -128q-62 -42 -136 -42z"/>
<glyph glyph-name="Ntilde" horiz-adv-x="628" unicode="Ñ" d="M86 700h66l329 -595h1l-2 369v226h62v-700h-68l-327 596h-1l2 -289v-307h-62v700zM210 764l-18 12q12 26 33 42t44 16q22 0 55 -20.5t53 -20.5q24 0 49 33l17 -14q-31 -60 -77 -60q-23 0 -55.5 20.5t-52.5 20.5q-28 0 -48 -29z"/>
<glyph glyph-name="Ograve" horiz-adv-x="705" unicode="Ò" d="M112 349q0 -129 67.5 -215.5t173.5 -86.5t174 86t68 216q0 127 -69 216t-173 89t-172.5 -87.5t-68.5 -217.5zM47 350q0 153 86.5 256t219.5 103t219.5 -103t86.5 -256q0 -152 -85.5 -255t-220.5 -104q-134 1 -220 104t-86 255zM320 871l44 25l53 -153h-38z"/>
<glyph glyph-name="Oacute" horiz-adv-x="705" unicode="Ó" d="M112 349q0 -129 67.5 -215.5t173.5 -86.5t174 86t68 216q0 127 -69 216t-173 89t-172.5 -87.5t-68.5 -217.5zM47 350q0 153 86.5 256t219.5 103t219.5 -103t86.5 -256q0 -152 -85.5 -255t-220.5 -104q-134 1 -220 104t-86 255zM367 896l44 -25l-59 -128h-38z"/>
<glyph glyph-name="Ocircumflex" horiz-adv-x="705" unicode="Ô" d="M112 349q0 -129 67.5 -215.5t173.5 -86.5t174 86t68 216q0 127 -69 216t-173 89t-172.5 -87.5t-68.5 -217.5zM47 350q0 153 86.5 256t219.5 103t219.5 -103t86.5 -256q0 -152 -85.5 -255t-220.5 -104q-134 1 -220 104t-86 255zM298 749h-50l83 112h46l83 -112h-50l-56 81 z"/>
<glyph glyph-name="Otilde" horiz-adv-x="705" unicode="Õ" d="M112 349q0 -129 67.5 -215.5t173.5 -86.5t174 86t68 216q0 127 -69 216t-173 89t-172.5 -87.5t-68.5 -217.5zM47 350q0 153 86.5 256t219.5 103t219.5 -103t86.5 -256q0 -152 -85.5 -255t-220.5 -104q-134 1 -220 104t-86 255zM248 764l-18 12q12 26 33 42t44 16 q22 0 55 -20.5t53 -20.5q24 0 49 33l17 -14q-31 -60 -77 -60q-23 0 -55.5 20.5t-52.5 20.5q-28 0 -48 -29z"/>
<glyph glyph-name="Odieresis" horiz-adv-x="705" unicode="Ö" d="M112 349q0 -129 67.5 -215.5t173.5 -86.5t174 86t68 216q0 127 -69 216t-173 89t-172.5 -87.5t-68.5 -217.5zM47 350q0 153 86.5 256t219.5 103t219.5 -103t86.5 -256q0 -152 -85.5 -255t-220.5 -104q-134 1 -220 104t-86 255zM403 785q0 16 10 27t24 11q16 0 26 -10.5 t10 -27.5q0 -15 -10 -25.5t-26 -10.5q-15 0 -24.5 10.5t-9.5 25.5zM232 785q0 16 10 27t24 11q16 0 26 -10.5t10 -27.5q0 -15 -10 -25.5t-26 -10.5q-15 0 -24.5 10.5t-9.5 25.5z"/>
<glyph glyph-name="multiply" horiz-adv-x="383" unicode="×" d="M94 463l98 -113l98 113l27 -25l-100 -116l100 -117l-28 -24l-97 113l-97 -113l-28 24l101 117l-101 116z"/>
<glyph glyph-name="Oslash" horiz-adv-x="705" unicode="Ø" d="M595 349q0 144 -85 234l-275 -501q52 -35 118 -35q106 0 174 86t68 216zM112 349q0 -149 85 -236l276 502q-55 39 -120 39q-104 0 -172.5 -87.5t-68.5 -217.5zM47 350q0 153 86.5 256t219.5 103q81 0 148 -42l35 63h55l-50 -92q55 -49 86.5 -124t31.5 -164 q0 -152 -85.5 -255t-220.5 -104q-84 2 -146 40l-34 -62h-55l49 90q-57 49 -88.5 125.5t-31.5 165.5z"/>
<glyph glyph-name="Ugrave" horiz-adv-x="609" unicode="Ù" d="M80 700h62v-482q0 -76 45 -124t118 -48t117.5 48t44.5 124v482h62v-477q0 -104 -61 -168t-163 -64q-104 0 -164.5 65t-60.5 167v477zM251 871l44 25l53 -153h-38z"/>
<glyph glyph-name="Uacute" horiz-adv-x="609" unicode="Ú" d="M80 700h62v-482q0 -76 45 -124t118 -48t117.5 48t44.5 124v482h62v-477q0 -104 -61 -168t-163 -64q-104 0 -164.5 65t-60.5 167v477zM327 896l44 -25l-59 -128h-38z"/>
<glyph glyph-name="Ucircumflex" horiz-adv-x="609" unicode="Û" d="M80 700h62v-482q0 -76 45 -124t118 -48t117.5 48t44.5 124v482h62v-477q0 -104 -61 -168t-163 -64q-104 0 -164.5 65t-60.5 167v477zM250 749h-50l83 112h46l83 -112h-50l-56 81z"/>
<glyph glyph-name="Udieresis" horiz-adv-x="609" unicode="Ü" d="M80 700h62v-482q0 -76 45 -124t118 -48t117.5 48t44.5 124v482h62v-477q0 -104 -61 -168t-163 -64q-104 0 -164.5 65t-60.5 167v477zM357 785q0 16 10 27t24 11q16 0 26 -10.5t10 -27.5q0 -15 -10 -25.5t-26 -10.5q-15 0 -24.5 10.5t-9.5 25.5zM186 785q0 16 10 27t24 11 q16 0 26 -10.5t10 -27.5q0 -15 -10 -25.5t-26 -10.5q-15 0 -24.5 10.5t-9.5 25.5z"/>
<glyph glyph-name="Yacute" horiz-adv-x="518" unicode="Ý" d="M17 700h68l174 -351h4l172 351h64l-210 -414v-286h-59v286zM289 896l44 -25l-59 -128h-38z"/>
<glyph glyph-name="Thorn" horiz-adv-x="548" unicode="Þ" d="M148 510v-308h169q60 0 99.5 44t39.5 110t-39 110t-100 44h-169zM148 700v-136h173q83 0 138 -59t55 -148t-56 -149t-137 -60h-173v-148h-62v700h62z"/>
<glyph glyph-name="germandbls" horiz-adv-x="494" unicode="ß" d="M242 709q73 0 116 -44t43 -120q0 -50 -25.5 -107t-25.5 -85q0 -31 19 -56.5t41 -41.5t41 -49.5t19 -79.5q0 -67 -39 -109.5t-111 -42.5q-76 0 -121 24l14 47q60 -20 96 -20q49 0 76.5 27t27.5 74q0 32 -12.5 55.5t-29.5 39t-34.5 31t-30 40t-12.5 56.5q0 39 26.5 93 t26.5 97q0 17 -3 33t-12.5 37t-31.5 33.5t-54 12.5q-19 0 -36.5 -5.5t-36.5 -20.5t-30.5 -48t-11.5 -81v-499h-60v498q0 39 9 74.5t27.5 67t53 50.5t81.5 19z"/>
<glyph glyph-name="agrave" horiz-adv-x="484" unicode="à" d="M347 204v48q-54 12 -116 12q-139 0 -139 -113q0 -56 32 -81.5t76 -25.5q63 0 105 44.5t42 115.5zM88 453l-12 48q88 28 161 28q86 0 128 -39.5t42 -126.5v-291q0 -16 7 -21.5t20 -5.5l23 2v-43q-20 -8 -49 -8q-61 0 -61 70v17q-18 -38 -57.5 -65t-97.5 -27 q-70 0 -115 40.5t-45 116.5q0 85 54 126t138 41q56 0 123 -13v55q0 69 -29.5 94t-88.5 25q-70 0 -141 -23zM199 711l44 25l53 -153h-38z"/>
<glyph glyph-name="aacute" horiz-adv-x="484" unicode="á" d="M347 204v48q-54 12 -116 12q-139 0 -139 -113q0 -56 32 -81.5t76 -25.5q63 0 105 44.5t42 115.5zM88 453l-12 48q88 28 161 28q86 0 128 -39.5t42 -126.5v-291q0 -16 7 -21.5t20 -5.5l23 2v-43q-20 -8 -49 -8q-61 0 -61 70v17q-18 -38 -57.5 -65t-97.5 -27 q-70 0 -115 40.5t-45 116.5q0 85 54 126t138 41q56 0 123 -13v55q0 69 -29.5 94t-88.5 25q-70 0 -141 -23zM261 736l44 -25l-59 -128h-38z"/>
<glyph glyph-name="acircumflex" horiz-adv-x="484" unicode="â" d="M347 204v48q-54 12 -116 12q-139 0 -139 -113q0 -56 32 -81.5t76 -25.5q63 0 105 44.5t42 115.5zM88 453l-12 48q88 28 161 28q86 0 128 -39.5t42 -126.5v-291q0 -16 7 -21.5t20 -5.5l23 2v-43q-20 -8 -49 -8q-61 0 -61 70v17q-18 -38 -57.5 -65t-97.5 -27 q-70 0 -115 40.5t-45 116.5q0 85 54 126t138 41q56 0 123 -13v55q0 69 -29.5 94t-88.5 25q-70 0 -141 -23zM188 583h-50l83 112h46l83 -112h-50l-56 81z"/>
<glyph glyph-name="atilde" horiz-adv-x="484" unicode="ã" d="M347 204v48q-54 12 -116 12q-139 0 -139 -113q0 -56 32 -81.5t76 -25.5q63 0 105 44.5t42 115.5zM88 453l-12 48q88 28 161 28q86 0 128 -39.5t42 -126.5v-291q0 -16 7 -21.5t20 -5.5l23 2v-43q-20 -8 -49 -8q-61 0 -61 70v17q-18 -38 -57.5 -65t-97.5 -27 q-70 0 -115 40.5t-45 116.5q0 85 54 126t138 41q56 0 123 -13v55q0 69 -29.5 94t-88.5 25q-70 0 -141 -23zM134 605l-18 12q12 26 33 42t44 16q22 0 55 -20.5t53 -20.5q24 0 49 33l17 -14q-31 -60 -77 -60q-23 0 -55.5 20.5t-52.5 20.5q-28 0 -48 -29z"/>
<glyph glyph-name="adieresis" horiz-adv-x="484" unicode="ä" d="M347 204v48q-54 12 -116 12q-139 0 -139 -113q0 -56 32 -81.5t76 -25.5q63 0 105 44.5t42 115.5zM88 453l-12 48q88 28 161 28q86 0 128 -39.5t42 -126.5v-291q0 -16 7 -21.5t20 -5.5l23 2v-43q-20 -8 -49 -8q-61 0 -61 70v17q-18 -38 -57.5 -65t-97.5 -27 q-70 0 -115 40.5t-45 116.5q0 85 54 126t138 41q56 0 123 -13v55q0 69 -29.5 94t-88.5 25q-70 0 -141 -23zM298 622q0 16 10 27t24 11q16 0 26 -10.5t10 -27.5q0 -15 -10 -25.5t-26 -10.5q-15 0 -24.5 10.5t-9.5 25.5zM127 622q0 16 10 27t24 11q16 0 26 -10.5t10 -27.5 q0 -15 -10 -25.5t-26 -10.5q-15 0 -24.5 10.5t-9.5 25.5z"/>
<glyph glyph-name="aring" horiz-adv-x="484" unicode="å" d="M347 204v48q-54 12 -116 12q-139 0 -139 -113q0 -56 32 -81.5t76 -25.5q63 0 105 44.5t42 115.5zM88 453l-12 48q88 28 161 28q86 0 128 -39.5t42 -126.5v-291q0 -16 7 -21.5t20 -5.5l23 2v-43q-20 -8 -49 -8q-61 0 -61 70v17q-18 -38 -57.5 -65t-97.5 -27 q-70 0 -115 40.5t-45 116.5q0 85 54 126t138 41q56 0 123 -13v55q0 69 -29.5 94t-88.5 25q-70 0 -141 -23zM265 720q-23 0 -35 -14t-12 -35t12 -34.5t35 -13.5t35 13.5t12 34.5t-12 35t-35 14zM265 592q-36 0 -60 22t-24 57t24 57.5t60 22.5t60 -22.5t24 -57.5t-24 -57 t-60 -22z"/>
<glyph glyph-name="ae" horiz-adv-x="792" unicode="æ" d="M360 155q-18 46 -18 98q-77 11 -111 11q-139 0 -139 -113q0 -56 32 -81.5t76 -25.5q56 0 98.5 34.5t61.5 76.5zM405 284h305q1 75 -33.5 133.5t-102.5 58.5q-73 0 -119.5 -53.5t-49.5 -138.5zM88 453l-12 48q88 28 161 28q128 0 159 -91q65 91 175 91q93 0 147.5 -74.5 t54.5 -177.5q0 -29 -2 -40h-366q5 -81 60 -137t130 -56q57 0 130 34l17 -45q-80 -42 -157 -42q-65 0 -117 30.5t-84 83.5q-32 -55 -82 -84.5t-110 -29.5q-70 0 -115 40.5t-45 116.5q0 84 54 125.5t138 41.5q54 0 119 -13q1 8 4 17v38q0 69 -29.5 94t-88.5 25q-70 0 -141 -23 z"/>
<glyph glyph-name="ccedilla" horiz-adv-x="441" unicode="ç" d="M227 -94l-14 20l23 70q-87 13 -141 87t-54 177q0 113 67.5 191t168.5 78q62 0 128 -34l-19 -44q-1 1 -13.5 6.5t-37.5 12t-48 6.5q-82 0 -133.5 -65t-51.5 -151t51.5 -151t133.5 -65q45 0 99 24l19 -44q-66 -33 -128 -33h-10l-13 -54q5 1 11 1q26 0 45 -16t19 -49 q0 -35 -22.5 -53t-59.5 -18q-29 0 -62 10l8 30q30 -6 45 -6q49 0 49 37q0 35 -40 35z"/>
<glyph glyph-name="egrave" horiz-adv-x="497" unicode="è" d="M104 284h294q1 75 -33.5 133.5t-102.5 58.5q-69 0 -112 -53.5t-46 -138.5zM41 260q0 114 60 191.5t158 77.5q93 0 147.5 -74.5t54.5 -177.5q0 -29 -2 -40h-355q5 -82 55 -137.5t124 -55.5q57 0 130 34l17 -45q-80 -42 -157 -42q-102 0 -167 78t-65 191zM206 711l44 25 l53 -153h-38z"/>
<glyph glyph-name="eacute" horiz-adv-x="497" unicode="é" d="M104 284h294q1 75 -33.5 133.5t-102.5 58.5q-69 0 -112 -53.5t-46 -138.5zM41 260q0 114 60 191.5t158 77.5q93 0 147.5 -74.5t54.5 -177.5q0 -29 -2 -40h-355q5 -82 55 -137.5t124 -55.5q57 0 130 34l17 -45q-80 -42 -157 -42q-102 0 -167 78t-65 191zM276 736l44 -25 l-59 -128h-38z"/>
<glyph glyph-name="ecircumflex" horiz-adv-x="497" unicode="ê" d="M104 284h294q1 75 -33.5 133.5t-102.5 58.5q-69 0 -112 -53.5t-46 -138.5zM41 260q0 114 60 191.5t158 77.5q93 0 147.5 -74.5t54.5 -177.5q0 -29 -2 -40h-355q5 -82 55 -137.5t124 -55.5q57 0 130 34l17 -45q-80 -42 -157 -42q-102 0 -167 78t-65 191zM203 583h-50 l83 112h46l83 -112h-50l-56 81z"/>
<glyph glyph-name="edieresis" horiz-adv-x="497" unicode="ë" d="M104 284h294q1 75 -33.5 133.5t-102.5 58.5q-69 0 -112 -53.5t-46 -138.5zM41 260q0 114 60 191.5t158 77.5q93 0 147.5 -74.5t54.5 -177.5q0 -29 -2 -40h-355q5 -82 55 -137.5t124 -55.5q57 0 130 34l17 -45q-80 -42 -157 -42q-102 0 -167 78t-65 191zM314 622 q0 16 10 27t24 11q16 0 26 -10.5t10 -27.5q0 -15 -10 -25.5t-26 -10.5q-15 0 -24.5 10.5t-9.5 25.5zM143 622q0 16 10 27t24 11q16 0 26 -10.5t10 -27.5q0 -15 -10 -25.5t-26 -10.5q-15 0 -24.5 10.5t-9.5 25.5z"/>
<glyph glyph-name="igrave" horiz-adv-x="209" unicode="ì" d="M35 520h103v-520h-60v470l-43 10v40zM20 711l44 25l53 -153h-38z"/>
<glyph glyph-name="iacute" horiz-adv-x="210" unicode="í" d="M36 520h103v-520h-60v470l-43 10v40zM131 736l44 -25l-59 -128h-38z"/>
<glyph glyph-name="icircumflex" horiz-adv-x="210" unicode="î" d="M36 520h103v-520h-60v470l-43 10v40zM37 583h-50l83 112h46l83 -112h-50l-56 81z"/>
<glyph glyph-name="idieresis" horiz-adv-x="209" unicode="ï" d="M35 520h103v-520h-60v470l-43 10v40zM144 622q0 16 10 27t24 11q16 0 26 -10.5t10 -27.5q0 -15 -10 -25.5t-26 -10.5q-15 0 -24.5 10.5t-9.5 25.5zM-27 622q0 16 10 27t24 11q16 0 26 -10.5t10 -27.5q0 -15 -10 -25.5t-26 -10.5q-15 0 -24.5 10.5t-9.5 25.5z"/>
<glyph glyph-name="eth" horiz-adv-x="473" unicode="ð" d="M228 428q-68 0 -102.5 -54t-34.5 -138q0 -81 34 -137t102 -56q64 0 103 57.5t39 141.5q0 83 -40 134.5t-101 51.5zM156 773q71 -31 121 -81l76 64l21 -25l-75 -63q70 -77 102 -180.5t32 -201.5q0 -134 -57 -214t-149 -80t-144 69.5t-52 175.5q0 112 55 177t139 65 q52 0 93.5 -31.5t59.5 -83.5h1q-10 85 -42 161t-68 116l-76 -63l-20 24l74 63q-40 43 -107 77z"/>
<glyph glyph-name="ntilde" horiz-adv-x="518" unicode="ñ" d="M71 520h45l12 -97q4 12 14.5 27.5t29 34.5t49.5 31.5t67 12.5q77 0 120.5 -56.5t43.5 -163.5v-309h-60v314q0 76 -32 119t-88 43q-66 0 -103.5 -54.5t-37.5 -122.5v-299h-60v520zM152 605l-18 12q12 26 33 42t44 16q22 0 55 -20.5t53 -20.5q24 0 49 33l17 -14 q-31 -60 -77 -60q-23 0 -55.5 20.5t-52.5 20.5q-28 0 -48 -29z"/>
<glyph glyph-name="ograve" horiz-adv-x="536" unicode="ò" d="M267 476q-74 0 -119.5 -62t-45.5 -155q0 -91 45.5 -153t119.5 -62q73 0 119.5 62t46.5 153q0 92 -46 154.5t-120 62.5zM40 259q0 115 64.5 192.5t162.5 77.5q99 0 163.5 -77t64.5 -193q0 -114 -64.5 -191t-163.5 -77q-98 0 -162.5 77t-64.5 191zM223 711l44 25l53 -153 h-38z"/>
<glyph glyph-name="oacute" horiz-adv-x="536" unicode="ó" d="M267 476q-74 0 -119.5 -62t-45.5 -155q0 -91 45.5 -153t119.5 -62q73 0 119.5 62t46.5 153q0 92 -46 154.5t-120 62.5zM40 259q0 115 64.5 192.5t162.5 77.5q99 0 163.5 -77t64.5 -193q0 -114 -64.5 -191t-163.5 -77q-98 0 -162.5 77t-64.5 191zM275 736l44 -25l-59 -128 h-38z"/>
<glyph glyph-name="ocircumflex" horiz-adv-x="536" unicode="ô" d="M267 476q-74 0 -119.5 -62t-45.5 -155q0 -91 45.5 -153t119.5 -62q73 0 119.5 62t46.5 153q0 92 -46 154.5t-120 62.5zM40 259q0 115 64.5 192.5t162.5 77.5q99 0 163.5 -77t64.5 -193q0 -114 -64.5 -191t-163.5 -77q-98 0 -162.5 77t-64.5 191zM211 583h-50l83 112h46 l83 -112h-50l-56 81z"/>
<glyph glyph-name="otilde" horiz-adv-x="536" unicode="õ" d="M267 476q-74 0 -119.5 -62t-45.5 -155q0 -91 45.5 -153t119.5 -62q73 0 119.5 62t46.5 153q0 92 -46 154.5t-120 62.5zM40 259q0 115 64.5 192.5t162.5 77.5q99 0 163.5 -77t64.5 -193q0 -114 -64.5 -191t-163.5 -77q-98 0 -162.5 77t-64.5 191zM160 605l-18 12 q12 26 33 42t44 16q22 0 55 -20.5t53 -20.5q24 0 49 33l17 -14q-31 -60 -77 -60q-23 0 -55.5 20.5t-52.5 20.5q-28 0 -48 -29z"/>
<glyph glyph-name="odieresis" horiz-adv-x="536" unicode="ö" d="M267 476q-74 0 -119.5 -62t-45.5 -155q0 -91 45.5 -153t119.5 -62q73 0 119.5 62t46.5 153q0 92 -46 154.5t-120 62.5zM40 259q0 115 64.5 192.5t162.5 77.5q99 0 163.5 -77t64.5 -193q0 -114 -64.5 -191t-163.5 -77q-98 0 -162.5 77t-64.5 191zM317 622q0 16 10 27 t24 11q16 0 26 -10.5t10 -27.5q0 -15 -10 -25.5t-26 -10.5q-15 0 -24.5 10.5t-9.5 25.5zM146 622q0 16 10 27t24 11q16 0 26 -10.5t10 -27.5q0 -15 -10 -25.5t-26 -10.5q-15 0 -24.5 10.5t-9.5 25.5z"/>
<glyph glyph-name="divide" horiz-adv-x="490" unicode="÷" d="M209 161q0 17 10.5 28.5t25.5 11.5t26 -12t11 -28t-11 -28t-26 -12q-16 0 -26 11.5t-10 28.5zM65 341h361v-44h-361v44zM245 518q16 0 27.5 -12t11.5 -28q0 -17 -11.5 -29t-27.5 -12t-26.5 12t-10.5 29t11 28.5t26 11.5z"/>
<glyph glyph-name="oslash" horiz-adv-x="536" unicode="ø" d="M433 259q0 100 -52 161l-195 -352q37 -24 81 -24q73 0 119.5 62t46.5 153zM267 476q-74 0 -119.5 -62t-45.5 -155q0 -101 52 -162l195 353q-37 26 -82 26zM40 259q0 115 64.5 192.5t162.5 77.5q59 0 109 -31l32 58h48l-46 -83q85 -79 85 -214q0 -114 -64.5 -191 t-163.5 -77q-57 0 -107 29l-31 -56h-48l45 81q-86 78 -86 214z"/>
<glyph glyph-name="ugrave" horiz-adv-x="517" unicode="ù" d="M66 520h60v-319q0 -157 120 -157q69 0 104 48.5t35 115.5v312h61v-520h-46l-10 85q-17 -40 -58.5 -67t-100.5 -27q-77 0 -121 50.5t-44 156.5v322zM191 711l44 25l53 -153h-38z"/>
<glyph glyph-name="uacute" horiz-adv-x="517" unicode="ú" d="M66 520h60v-319q0 -157 120 -157q69 0 104 48.5t35 115.5v312h61v-520h-46l-10 85q-17 -40 -58.5 -67t-100.5 -27q-77 0 -121 50.5t-44 156.5v322zM278 736l44 -25l-59 -128h-38z"/>
<glyph glyph-name="ucircumflex" horiz-adv-x="517" unicode="û" d="M66 520h60v-319q0 -157 120 -157q69 0 104 48.5t35 115.5v312h61v-520h-46l-10 85q-17 -40 -58.5 -67t-100.5 -27q-77 0 -121 50.5t-44 156.5v322zM201 583h-50l83 112h46l83 -112h-50l-56 81z"/>
<glyph glyph-name="udieresis" horiz-adv-x="517" unicode="ü" d="M66 520h60v-319q0 -157 120 -157q69 0 104 48.5t35 115.5v312h61v-520h-46l-10 85q-17 -40 -58.5 -67t-100.5 -27q-77 0 -121 50.5t-44 156.5v322zM308 622q0 16 10 27t24 11q16 0 26 -10.5t10 -27.5q0 -15 -10 -25.5t-26 -10.5q-15 0 -24.5 10.5t-9.5 25.5zM137 622 q0 16 10 27t24 11q16 0 26 -10.5t10 -27.5q0 -15 -10 -25.5t-26 -10.5q-15 0 -24.5 10.5t-9.5 25.5z"/>
<glyph glyph-name="yacute" horiz-adv-x="462" unicode="ý" d="M32 520h61l141 -450l135 450h61l-216 -690h-59l50 161zM254 736l44 -25l-59 -128h-38z"/>
<glyph glyph-name="thorn" horiz-adv-x="546" unicode="þ" d="M283 476q-67 0 -110.5 -61.5t-43.5 -152.5q0 -96 44 -157t112 -61q69 0 114.5 61.5t45.5 151.5t-46.5 154.5t-115.5 64.5zM294 529q91 0 150.5 -79.5t59.5 -193.5q0 -111 -57 -188t-150 -77q-58 0 -104 31t-64 75v-267h-58v870h58v-280q22 50 66.5 79.5t98.5 29.5z"/>
<glyph glyph-name="ydieresis" horiz-adv-x="462" unicode="ÿ" d="M32 520h61l141 -450l135 450h61l-216 -690h-59l50 161zM278 622q0 16 10 27t24 11q16 0 26 -10.5t10 -27.5q0 -15 -10 -25.5t-26 -10.5q-15 0 -24.5 10.5t-9.5 25.5zM107 622q0 16 10 27t24 11q16 0 26 -10.5t10 -27.5q0 -15 -10 -25.5t-26 -10.5q-15 0 -24.5 10.5 t-9.5 25.5z"/>
<glyph glyph-name="Amacron" horiz-adv-x="561" unicode="Ā" d="M278 641l-117 -396h237l-118 396h-2zM240 705h81l214 -705h-64l-59 195h-266l-58 -195h-62zM155 800h251v-39h-251v39z"/>
<glyph glyph-name="amacron" horiz-adv-x="484" unicode="ā" d="M347 204v48q-54 12 -116 12q-139 0 -139 -113q0 -56 32 -81.5t76 -25.5q63 0 105 44.5t42 115.5zM88 453l-12 48q88 28 161 28q86 0 128 -39.5t42 -126.5v-291q0 -16 7 -21.5t20 -5.5l23 2v-43q-20 -8 -49 -8q-61 0 -61 70v17q-18 -38 -57.5 -65t-97.5 -27 q-70 0 -115 40.5t-45 116.5q0 85 54 126t138 41q56 0 123 -13v55q0 69 -29.5 94t-88.5 25q-70 0 -141 -23zM116 640h251v-39h-251v39z"/>
<glyph glyph-name="Abreve" horiz-adv-x="561" unicode="Ă" d="M278 641l-117 -396h237l-118 396h-2zM240 705h81l214 -705h-64l-59 195h-266l-58 -195h-62zM174 856h30q6 -32 23 -48.5t53 -16.5q62 0 73 65h30q-6 -53 -31 -78.5t-72 -25.5q-51 0 -76 25.5t-30 78.5z"/>
<glyph glyph-name="abreve" horiz-adv-x="484" unicode="ă" d="M347 204v48q-54 12 -116 12q-139 0 -139 -113q0 -56 32 -81.5t76 -25.5q63 0 105 44.5t42 115.5zM88 453l-12 48q88 28 161 28q86 0 128 -39.5t42 -126.5v-291q0 -16 7 -21.5t20 -5.5l23 2v-43q-20 -8 -49 -8q-61 0 -61 70v17q-18 -38 -57.5 -65t-97.5 -27 q-70 0 -115 40.5t-45 116.5q0 85 54 126t138 41q56 0 123 -13v55q0 69 -29.5 94t-88.5 25q-70 0 -141 -23zM132 694h30q6 -32 23 -48.5t53 -16.5q62 0 73 65h30q-6 -53 -31 -78.5t-72 -25.5q-51 0 -76 25.5t-30 78.5z"/>
<glyph glyph-name="Aogonek" horiz-adv-x="563" unicode="Ą" d="M278 641l-117 -396h237l-118 396h-2zM240 705h81l214 -705q-26 -15 -42.5 -43t-16.5 -56q0 -22 11.5 -34.5t29.5 -12.5l24 4l7 -22q-19 -12 -44 -12q-31 0 -48.5 20.5t-17.5 52.5q0 30 16 58t40 45h-23l-59 195h-266l-58 -195h-62z"/>
<glyph glyph-name="aogonek" horiz-adv-x="484" unicode="ą" d="M347 204v48q-54 12 -116 12q-139 0 -139 -113q0 -56 32 -81.5t76 -25.5q63 0 105 44.5t42 115.5zM88 453l-12 48q88 28 161 28q86 0 128 -39.5t42 -126.5v-291q0 -16 7 -21.5t20 -5.5l23 2v-43q-9 -4 -38 -8q-23 -14 -34.5 -40.5t-11.5 -51.5q0 -50 40 -50l24 4l6 -21 q-20 -13 -43 -13q-31 0 -48.5 20.5t-17.5 53.5q0 61 52 100q-39 12 -39 68v17q-18 -38 -57.5 -65t-97.5 -27q-70 0 -115 40.5t-45 116.5q0 85 54 126t138 41q56 0 123 -13v55q0 69 -29.5 94t-88.5 25q-70 0 -141 -23z"/>
<glyph glyph-name="Cacute" horiz-adv-x="570" unicode="Ć" d="M357 709q97 0 174 -51l-23 -47q-72 43 -150 43q-104 0 -175.5 -88t-71.5 -216t71.5 -216t175.5 -88q78 0 150 43l23 -48q-81 -50 -174 -50q-131 0 -221 101.5t-90 257.5q0 155 90 257t221 102zM365 896l44 -25l-59 -128h-38z"/>
<glyph glyph-name="cacute" horiz-adv-x="441" unicode="ć" d="M277 -9q-101 0 -168.5 77.5t-67.5 191.5q0 113 67.5 191t168.5 78q62 0 128 -34l-19 -44q-1 1 -13.5 6.5t-37.5 12t-48 6.5q-82 0 -133.5 -65t-51.5 -151t51.5 -151t133.5 -65q45 0 99 24l19 -44q-66 -33 -128 -33zM291 736l44 -25l-59 -128h-38z"/>
<glyph glyph-name="Ccircumflex" horiz-adv-x="570" unicode="Ĉ" d="M357 709q97 0 174 -51l-23 -47q-72 43 -150 43q-104 0 -175.5 -88t-71.5 -216t71.5 -216t175.5 -88q78 0 150 43l23 -48q-81 -50 -174 -50q-131 0 -221 101.5t-90 257.5q0 155 90 257t221 102zM293 749h-50l83 112h46l83 -112h-50l-56 81z"/>
<glyph glyph-name="ccircumflex" horiz-adv-x="441" unicode="ĉ" d="M277 -9q-101 0 -168.5 77.5t-67.5 191.5q0 113 67.5 191t168.5 78q62 0 128 -34l-19 -44q-1 1 -13.5 6.5t-37.5 12t-48 6.5q-82 0 -133.5 -65t-51.5 -151t51.5 -151t133.5 -65q45 0 99 24l19 -44q-66 -33 -128 -33zM215 583h-50l83 112h46l83 -112h-50l-56 81z"/>
<glyph glyph-name="Cdotaccent" horiz-adv-x="570" unicode="Ċ" d="M357 709q97 0 174 -51l-23 -47q-72 43 -150 43q-104 0 -175.5 -88t-71.5 -216t71.5 -216t175.5 -88q78 0 150 43l23 -48q-81 -50 -174 -50q-131 0 -221 101.5t-90 257.5q0 155 90 257t221 102zM319 785q0 16 10 27t24 11q16 0 26 -10.5t10 -27.5q0 -15 -10 -25.5 t-26 -10.5q-15 0 -24.5 10.5t-9.5 25.5z"/>
<glyph glyph-name="cdotaccent" horiz-adv-x="441" unicode="ċ" d="M277 -9q-101 0 -168.5 77.5t-67.5 191.5q0 113 67.5 191t168.5 78q62 0 128 -34l-19 -44q-1 1 -13.5 6.5t-37.5 12t-48 6.5q-82 0 -133.5 -65t-51.5 -151t51.5 -151t133.5 -65q45 0 99 24l19 -44q-66 -33 -128 -33zM247 622q0 16 10 27t24 11q16 0 26 -10.5t10 -27.5 q0 -15 -10 -25.5t-26 -10.5q-15 0 -24.5 10.5t-9.5 25.5z"/>
<glyph glyph-name="Ccaron" horiz-adv-x="570" unicode="Č" d="M357 709q97 0 174 -51l-23 -47q-72 43 -150 43q-104 0 -175.5 -88t-71.5 -216t71.5 -216t175.5 -88q78 0 150 43l23 -48q-81 -50 -174 -50q-131 0 -221 101.5t-90 257.5q0 155 90 257t221 102zM248 861h50l56 -81l56 81h50l-83 -112h-46z"/>
<glyph glyph-name="ccaron" horiz-adv-x="441" unicode="č" d="M277 -9q-101 0 -168.5 77.5t-67.5 191.5q0 113 67.5 191t168.5 78q62 0 128 -34l-19 -44q-1 1 -13.5 6.5t-37.5 12t-48 6.5q-82 0 -133.5 -65t-51.5 -151t51.5 -151t133.5 -65q45 0 99 24l19 -44q-66 -33 -128 -33zM170 695h50l56 -81l56 81h50l-83 -112h-46z"/>
<glyph glyph-name="Dcaron" horiz-adv-x="609" unicode="Ď" d="M148 647v-594h133q62 0 111 35q103 73 103 262q0 190 -103 263q-48 34 -111 34h-133zM292 0h-206v700h206q76 0 137 -42q64 -44 97 -125.5t33 -182.5q0 -98 -32 -180t-99 -128q-62 -42 -136 -42zM175 861h50l56 -81l56 81h50l-83 -112h-46z"/>
<glyph glyph-name="dcaron" horiz-adv-x="589" unicode="ď" d="M260 476q-69 0 -112.5 -62t-43.5 -154t44.5 -154t112.5 -62t111.5 61.5t43.5 154.5t-44.5 154.5t-111.5 61.5zM417 732h60v-732h-49l-8 107q-20 -50 -66 -83t-104 -33q-91 0 -149.5 77.5t-58.5 191.5t58.5 191.5t148.5 77.5q51 0 98.5 -29.5t69.5 -79.5v312zM586 732h44 q0 -43 -12 -90.5t-28 -74.5l-27 11q23 66 23 154z"/>
<glyph glyph-name="Dcroat" horiz-adv-x="611" unicode="Đ" d="M151 647v-279h137v-32h-137v-283h133q62 0 111 35q103 73 103 262q0 190 -103 263q-48 34 -111 34h-133zM295 0h-206v336h-78v32h78v332h206q76 0 137 -42q64 -44 97 -125.5t33 -182.5q0 -98 -32 -180t-99 -128q-62 -42 -136 -42z"/>
<glyph glyph-name="dcroat" horiz-adv-x="546" unicode="đ" d="M260 476q-69 0 -112.5 -62t-43.5 -154t44.5 -154t112.5 -62t111.5 61.5t43.5 154.5t-44.5 154.5t-111.5 61.5zM417 732h60v-99h66v-27h-66v-606h-49l-8 107q-20 -50 -66 -83t-104 -33q-91 0 -149.5 77.5t-58.5 191.5t58.5 191.5t148.5 77.5q51 0 98.5 -29.5t69.5 -79.5 v186h-133v27h133v99z"/>
<glyph glyph-name="Emacron" horiz-adv-x="548" unicode="Ē" d="M86 700h408v-53h-346v-281h298v-51h-298v-262h358v-53h-420v700zM169 800h251v-39h-251v39z"/>
<glyph glyph-name="emacron" horiz-adv-x="497" unicode="ē" d="M104 284h294q1 75 -33.5 133.5t-102.5 58.5q-69 0 -112 -53.5t-46 -138.5zM41 260q0 114 60 191.5t158 77.5q93 0 147.5 -74.5t54.5 -177.5q0 -29 -2 -40h-355q5 -82 55 -137.5t124 -55.5q57 0 130 34l17 -45q-80 -42 -157 -42q-102 0 -167 78t-65 191zM131 640h251v-39 h-251v39z"/>
<glyph glyph-name="Ebreve" horiz-adv-x="548" unicode="Ĕ" d="M86 700h408v-53h-346v-281h298v-51h-298v-262h358v-53h-420v700zM187 856h30q6 -32 23 -48.5t53 -16.5q62 0 73 65h30q-6 -53 -31 -78.5t-72 -25.5q-51 0 -76 25.5t-30 78.5z"/>
<glyph glyph-name="ebreve" horiz-adv-x="497" unicode="ĕ" d="M104 284h294q1 75 -33.5 133.5t-102.5 58.5q-69 0 -112 -53.5t-46 -138.5zM41 260q0 114 60 191.5t158 77.5q93 0 147.5 -74.5t54.5 -177.5q0 -29 -2 -40h-355q5 -82 55 -137.5t124 -55.5q57 0 130 34l17 -45q-80 -42 -157 -42q-102 0 -167 78t-65 191zM151 696h30 q6 -32 23 -48.5t53 -16.5q62 0 73 65h30q-6 -53 -31 -78.5t-72 -25.5q-51 0 -76 25.5t-30 78.5z"/>
<glyph glyph-name="Edotaccent" horiz-adv-x="548" unicode="Ė" d="M86 700h408v-53h-346v-281h298v-51h-298v-262h358v-53h-420v700zM254 785q0 16 10 27t24 11q16 0 26 -10.5t10 -27.5q0 -15 -10 -25.5t-26 -10.5q-15 0 -24.5 10.5t-9.5 25.5z"/>
<glyph glyph-name="edotaccent" horiz-adv-x="497" unicode="ė" d="M104 284h294q1 75 -33.5 133.5t-102.5 58.5q-69 0 -112 -53.5t-46 -138.5zM41 260q0 114 60 191.5t158 77.5q93 0 147.5 -74.5t54.5 -177.5q0 -29 -2 -40h-355q5 -82 55 -137.5t124 -55.5q57 0 130 34l17 -45q-80 -42 -157 -42q-102 0 -167 78t-65 191zM228 622 q0 16 10 27t24 11q16 0 26 -10.5t10 -27.5q0 -15 -10 -25.5t-26 -10.5q-15 0 -24.5 10.5t-9.5 25.5z"/>
<glyph glyph-name="Eogonek" horiz-adv-x="548" unicode="Ę" d="M86 700h408v-53h-346v-281h298v-51h-298v-262h358v-53h-24q-25 -14 -37.5 -42.5t-12.5 -53.5q0 -50 40 -50l24 4l6 -21q-20 -13 -43 -13q-31 0 -48.5 20.5t-17.5 53.5q0 61 51 102h-358v700z"/>
<glyph glyph-name="eogonek" horiz-adv-x="499" unicode="ę" d="M105 284h294q1 75 -33.5 133.5t-102.5 58.5q-69 0 -112 -53.5t-46 -138.5zM42 260q0 114 60 191.5t158 77.5q93 0 147.5 -74.5t54.5 -177.5q0 -29 -2 -40h-355q5 -82 55 -137.5t124 -55.5q57 0 130 34l17 -45q-32 -17 -67 -28q-39 -31 -39 -101q0 -50 39 -50l25 4l6 -21 q-20 -13 -44 -13q-30 0 -47.5 20.5t-17.5 54.5q0 53 33 96q-30 -4 -45 -4q-102 0 -167 78t-65 191z"/>
<glyph glyph-name="Ecaron" horiz-adv-x="548" unicode="Ě" d="M86 700h408v-53h-346v-281h298v-51h-298v-262h358v-53h-420v700zM186 861h42l65 -75l62 75h43l-84 -110h-45z"/>
<glyph glyph-name="ecaron" horiz-adv-x="497" unicode="ě" d="M104 284h294q1 75 -33.5 133.5t-102.5 58.5q-69 0 -112 -53.5t-46 -138.5zM41 260q0 114 60 191.5t158 77.5q93 0 147.5 -74.5t54.5 -177.5q0 -29 -2 -40h-355q5 -82 55 -137.5t124 -55.5q57 0 130 34l17 -45q-80 -42 -157 -42q-102 0 -167 78t-65 191zM156 695h50 l56 -81l56 81h50l-83 -112h-46z"/>
<glyph glyph-name="Gcircumflex" horiz-adv-x="636" unicode="Ĝ" d="M363 709q103 0 188 -54l-24 -46q-77 45 -162 45q-111 0 -182 -89t-71 -216q0 -129 70.5 -216t178.5 -87q91 0 166 78v172h-161v51h219v-247q-94 -109 -231 -109q-129 0 -218 102.5t-89 255.5q0 155 91 257.5t225 102.5zM300 749h-50l83 112h46l83 -112h-50l-56 81z"/>
<glyph glyph-name="gcircumflex" horiz-adv-x="455" unicode="ĝ" d="M256 48q-87 0 -117 10q-38 -29 -38 -86q0 -29 11.5 -48.5t32 -27.5t40 -11t45.5 -3q19 0 33.5 1t33.5 6.5t31.5 14.5t21.5 26.5t9 41.5q0 40 -24.5 58t-78.5 18zM229 480q-49 0 -79 -32.5t-30 -88.5q0 -54 28.5 -86t80.5 -32t80.5 32t28.5 87t-30 87.5t-79 32.5zM421 520 v-41l-72 -5q48 -35 48 -115q0 -75 -43.5 -120t-125.5 -45q-47 0 -79 17q-35 -21 -35 -58q0 -34 29.5 -44.5t86.5 -10.5h40q149 0 149 -127q0 -141 -186 -141q-35 0 -65 5t-60.5 18t-48.5 40.5t-18 66.5q0 67 57 119q-39 24 -39 71q0 51 50 86q-48 42 -48 123 q0 79 45.5 124.5t120.5 45.5q35 0 69 -9h125zM171 583h-50l83 112h46l83 -112h-50l-56 81z"/>
<glyph glyph-name="Gbreve" horiz-adv-x="636" unicode="Ğ" d="M363 709q103 0 188 -54l-24 -46q-77 45 -162 45q-111 0 -182 -89t-71 -216q0 -129 70.5 -216t178.5 -87q91 0 166 78v172h-161v51h219v-247q-94 -109 -231 -109q-129 0 -218 102.5t-89 255.5q0 155 91 257.5t225 102.5zM253 856h30q6 -32 23 -48.5t53 -16.5q62 0 73 65 h30q-6 -53 -31 -78.5t-72 -25.5q-51 0 -76 25.5t-30 78.5z"/>
<glyph glyph-name="gbreve" horiz-adv-x="455" unicode="ğ" d="M256 48q-87 0 -117 10q-38 -29 -38 -86q0 -29 11.5 -48.5t32 -27.5t40 -11t45.5 -3q19 0 33.5 1t33.5 6.5t31.5 14.5t21.5 26.5t9 41.5q0 40 -24.5 58t-78.5 18zM229 480q-49 0 -79 -32.5t-30 -88.5q0 -54 28.5 -86t80.5 -32t80.5 32t28.5 87t-30 87.5t-79 32.5zM421 520 v-41l-72 -5q48 -35 48 -115q0 -75 -43.5 -120t-125.5 -45q-47 0 -79 17q-35 -21 -35 -58q0 -34 29.5 -44.5t86.5 -10.5h40q149 0 149 -127q0 -141 -186 -141q-35 0 -65 5t-60.5 18t-48.5 40.5t-18 66.5q0 67 57 119q-39 24 -39 71q0 51 50 86q-48 42 -48 123 q0 79 45.5 124.5t120.5 45.5q35 0 69 -9h125zM124 696h30q6 -32 23 -48.5t53 -16.5q62 0 73 65h30q-6 -53 -31 -78.5t-72 -25.5q-51 0 -76 25.5t-30 78.5z"/>
<glyph glyph-name="Gdotaccent" horiz-adv-x="636" unicode="Ġ" d="M363 709q103 0 188 -54l-24 -46q-77 45 -162 45q-111 0 -182 -89t-71 -216q0 -129 70.5 -216t178.5 -87q91 0 166 78v172h-161v51h219v-247q-94 -109 -231 -109q-129 0 -218 102.5t-89 255.5q0 155 91 257.5t225 102.5zM322 785q0 16 10 27t24 11q16 0 26 -10.5t10 -27.5 q0 -15 -10 -25.5t-26 -10.5q-15 0 -24.5 10.5t-9.5 25.5z"/>
<glyph glyph-name="gdotaccent" horiz-adv-x="455" unicode="ġ" d="M256 48q-87 0 -117 10q-38 -29 -38 -86q0 -29 11.5 -48.5t32 -27.5t40 -11t45.5 -3q19 0 33.5 1t33.5 6.5t31.5 14.5t21.5 26.5t9 41.5q0 40 -24.5 58t-78.5 18zM229 480q-49 0 -79 -32.5t-30 -88.5q0 -54 28.5 -86t80.5 -32t80.5 32t28.5 87t-30 87.5t-79 32.5zM421 520 v-41l-72 -5q48 -35 48 -115q0 -75 -43.5 -120t-125.5 -45q-47 0 -79 17q-35 -21 -35 -58q0 -34 29.5 -44.5t86.5 -10.5h40q149 0 149 -127q0 -141 -186 -141q-35 0 -65 5t-60.5 18t-48.5 40.5t-18 66.5q0 67 57 119q-39 24 -39 71q0 51 50 86q-48 42 -48 123 q0 79 45.5 124.5t120.5 45.5q35 0 69 -9h125zM196 622q0 16 10 27t24 11q16 0 26 -10.5t10 -27.5q0 -15 -10 -25.5t-26 -10.5q-15 0 -24.5 10.5t-9.5 25.5z"/>
<glyph glyph-name="Gcommaaccent" horiz-adv-x="636" unicode="Ģ" d="M363 709q103 0 188 -54l-24 -46q-77 45 -162 45q-111 0 -182 -89t-71 -216q0 -129 70.5 -216t178.5 -87q91 0 166 78v172h-161v51h219v-247q-94 -109 -231 -109q-129 0 -218 102.5t-89 255.5q0 155 91 257.5t225 102.5zM354 -71q41 0 41 -57t-61 -92l-10 16q41 29 41 65 q0 8 -3 17q-5 -9 -18 -9q-12 0 -18.5 8t-6.5 20q0 15 10.5 23.5t24.5 8.5z"/>
<glyph glyph-name="gcommaaccent" horiz-adv-x="455" unicode="ģ" d="M256 48q-87 0 -117 10q-38 -29 -38 -86q0 -29 11.5 -48.5t32 -27.5t40 -11t45.5 -3q19 0 33.5 1t33.5 6.5t31.5 14.5t21.5 26.5t9 41.5q0 40 -24.5 58t-78.5 18zM229 480q-49 0 -79 -32.5t-30 -88.5q0 -54 28.5 -86t80.5 -32t80.5 32t28.5 87t-30 87.5t-79 32.5zM421 520 v-41l-72 -5q48 -35 48 -115q0 -75 -43.5 -120t-125.5 -45q-47 0 -79 17q-35 -21 -35 -58q0 -34 29.5 -44.5t86.5 -10.5h40q149 0 149 -127q0 -141 -186 -141q-35 0 -65 5t-60.5 18t-48.5 40.5t-18 66.5q0 67 57 119q-39 24 -39 71q0 51 50 86q-48 42 -48 123 q0 79 45.5 124.5t120.5 45.5q35 0 69 -9h125zM232 589q-41 0 -41 57t61 92l10 -16q-41 -29 -41 -65q0 -8 3 -17q5 9 18 9q12 0 18.5 -8t6.5 -20q0 -15 -10.5 -23.5t-24.5 -8.5z"/>
<glyph glyph-name="Hcircumflex" horiz-adv-x="642" unicode="Ĥ" d="M86 700h62v-322h346v322h62v-700h-62v327h-346v-327h-62v700zM267 749h-50l83 112h46l83 -112h-50l-56 81z"/>
<glyph glyph-name="hcircumflex" horiz-adv-x="514" unicode="ĥ" d="M67 732h61v-304q18 42 56 71.5t97 29.5q78 0 122.5 -56.5t44.5 -163.5v-309h-60v314q0 76 -32 119t-88 43q-66 0 -103 -54.5t-37 -122.5v-299h-61v732zM34 754h-42l82 110h46l84 -110h-43l-63 74z"/>
<glyph glyph-name="Hbar" horiz-adv-x="643" unicode="Ħ" d="M148 378h346v156h-346v-156zM86 700h62v-134h346v134h62v-134h53v-32h-53v-534h-62v327h-346v-327h-62v534h-50v32h50v134z"/>
<glyph glyph-name="hbar" horiz-adv-x="517" unicode="ħ" d="M70 732h61v-99h130v-27h-130v-178q18 42 56 71.5t97 29.5q78 0 122.5 -56.5t44.5 -163.5v-309h-60v314q0 76 -32 119t-88 43q-66 0 -103 -54.5t-37 -122.5v-299h-61v606h-69v27h69v99z"/>
<glyph glyph-name="Itilde" horiz-adv-x="236" unicode="Ĩ" d="M87 700h62v-700h-62v700zM11 764l-18 12q12 26 33 42t44 16q22 0 55 -20.5t53 -20.5q24 0 49 33l17 -14q-31 -60 -77 -60q-23 0 -55.5 20.5t-52.5 20.5q-28 0 -48 -29z"/>
<glyph glyph-name="itilde" horiz-adv-x="210" unicode="ĩ" d="M35 520h103v-520h-60v470l-43 10v40zM-15 605l-18 12q12 26 33 42t44 16q22 0 55 -20.5t53 -20.5q24 0 49 33l17 -14q-31 -60 -77 -60q-23 0 -55.5 20.5t-52.5 20.5q-28 0 -48 -29z"/>
<glyph glyph-name="Imacron" horiz-adv-x="235" unicode="Ī" d="M86 700h62v-700h-62v700zM-8 800h251v-39h-251v39z"/>
<glyph glyph-name="imacron" horiz-adv-x="210" unicode="ī" d="M36 520h103v-520h-60v470l-43 10v40zM-32 640h251v-39h-251v39z"/>
<glyph glyph-name="Ibreve" horiz-adv-x="235" unicode="Ĭ" d="M86 700h62v-700h-62v700zM13 856h30q6 -32 23 -48.5t53 -16.5q62 0 73 65h30q-6 -53 -31 -78.5t-72 -25.5q-51 0 -76 25.5t-30 78.5z"/>
<glyph glyph-name="ibreve" horiz-adv-x="210" unicode="ĭ" d="M36 520h103v-520h-60v470l-43 10v40zM-15 696h30q6 -32 23 -48.5t53 -16.5q62 0 73 65h30q-6 -53 -31 -78.5t-72 -25.5q-51 0 -76 25.5t-30 78.5z"/>
<glyph glyph-name="Iogonek" horiz-adv-x="236" unicode="Į" d="M77 700h62v-700q-25 -14 -37.5 -42.5t-12.5 -53.5q0 -50 40 -50l24 4l6 -21q-20 -13 -43 -13q-31 0 -48.5 20.5t-17.5 53.5q0 64 48 102h-21v700z"/>
<glyph glyph-name="iogonek" horiz-adv-x="218" unicode="į" d="M100 694q17 0 27 -12t10 -28t-10.5 -27.5t-26.5 -11.5t-26.5 11.5t-10.5 27.5t10 28t27 12zM36 520h103v-520q-25 -14 -37.5 -42.5t-12.5 -53.5q0 -50 40 -50l24 4l6 -21q-20 -13 -43 -13q-31 0 -48.5 20.5t-17.5 53.5q0 63 49 102h-20v470l-43 10v40z"/>
<glyph glyph-name="Idotaccent" horiz-adv-x="235" unicode="İ" d="M86 700h62v-700h-62v700zM83 785q0 16 10 27t24 11q16 0 26 -10.5t10 -27.5q0 -15 -10 -25.5t-26 -10.5q-15 0 -24.5 10.5t-9.5 25.5z"/>
<glyph glyph-name="dotlessi" horiz-adv-x="210" unicode="ı" d="M36 520h103v-520h-60v470l-43 10v40z"/>
<glyph glyph-name="Jcircumflex" horiz-adv-x="437" unicode="Ĵ" d="M180 -3q-62 0 -107.5 38.5t-62.5 77.5l37 24q56 -91 134 -91q60 0 89 45t29 116v493h62v-474q0 -105 -45 -167t-136 -62zM270 749h-50l83 112h46l83 -112h-50l-56 81z"/>
<glyph glyph-name="jcircumflex" horiz-adv-x="210" unicode="ĵ" d="M35 583h-50l83 112h46l83 -112h-50l-56 81zM-15 -159l12 43q20 -5 37 -5q46 0 46 81v510l-43 10v40h103v-539q0 -25 -0.5 -38.5t-5.5 -38.5t-14.5 -38.5t-29.5 -25t-48 -11.5q-30 0 -57 12z"/>
<glyph glyph-name="Kcommaaccent" horiz-adv-x="540" unicode="Ķ" d="M86 0v700h62v-210l-2 -200l2 -1l136 194l155 217h73l-223 -312l245 -388h-72l-211 340l-103 -138v-202h-62zM288 -71q41 0 41 -57t-61 -92l-10 16q41 29 41 65q0 8 -3 17q-5 -9 -18 -9q-12 0 -18.5 8t-6.5 20q0 15 10.5 23.5t24.5 8.5z"/>
<glyph glyph-name="kcommaaccent" horiz-adv-x="423" unicode="ķ" d="M71 732h60v-252l-1 -242l209 282h65l-176 -237l174 -283h-69l-142 236l-60 -79v-157h-60v732zM223 -71q41 0 41 -57t-61 -92l-10 16q41 29 41 65q0 8 -3 17q-5 -9 -18 -9q-12 0 -18.5 8t-6.5 20q0 15 10.5 23.5t24.5 8.5z"/>
<glyph glyph-name="kgreenlandic" horiz-adv-x="423" unicode="ĸ" d="M71 520h60v-146l-1 -135l209 281h65l-176 -237l174 -283h-69l-142 236l-60 -79v-157h-60v520z"/>
<glyph glyph-name="Lacute" horiz-adv-x="492" unicode="Ĺ" d="M86 700h62v-647h329v-53h-391v700zM154 896l44 -25l-59 -128h-38z"/>
<glyph glyph-name="lacute" horiz-adv-x="222" unicode="ĺ" d="M76 732h60v-653q0 -37 30 -37l26 4v-47q-24 -8 -50 -8q-33 0 -49.5 19t-16.5 49v673zM145 922l44 -25l-59 -128h-38z"/>
<glyph glyph-name="Lcommaaccent" horiz-adv-x="492" unicode="Ļ" d="M86 700h62v-647h329v-53h-391v700zM285 -71q41 0 41 -57t-61 -92l-10 16q41 29 41 65q0 8 -3 17q-5 -9 -18 -9q-12 0 -18.5 8t-6.5 20q0 15 10.5 23.5t24.5 8.5z"/>
<glyph glyph-name="lcommaaccent" horiz-adv-x="222" unicode="ļ" d="M75 732h60v-653q0 -37 30 -37l26 4v-47q-24 -8 -50 -8q-33 0 -49.5 19t-16.5 49v673zM123 -71q41 0 41 -57t-61 -92l-10 16q41 29 41 65q0 8 -3 17q-5 -9 -18 -9q-12 0 -18.5 8t-6.5 20q0 15 10.5 23.5t24.5 8.5z"/>
<glyph glyph-name="Lcaron" horiz-adv-x="493" unicode="Ľ" d="M86 700h62v-647h329v-53h-391v700zM304 700h44q0 -43 -12 -90.5t-28 -74.5l-27 11q23 66 23 154z"/>
<glyph glyph-name="lcaron" horiz-adv-x="252" unicode="ľ" d="M74 732h60v-653q0 -37 30 -37l26 4v-47q-24 -8 -50 -8q-33 0 -49.5 19t-16.5 49v673zM242 732h44q0 -43 -12 -90.5t-28 -74.5l-27 11q23 66 23 154z"/>
<glyph glyph-name="Lslash" horiz-adv-x="492" unicode="Ł" d="M8 250l87 61v389h62v-347l135 93v-34l-135 -93v-266h308v-53h-370v278l-87 -60v32z"/>
<glyph glyph-name="lslash" horiz-adv-x="266" unicode="ł" d="M85 732h60v-358l106 73v-53l-106 -73v-242q0 -37 30 -37l26 4v-47q-24 -8 -50 -8q-33 0 -49.5 19t-16.5 49v221l-76 -52v53l76 52v399z"/>
<glyph glyph-name="Nacute" horiz-adv-x="628" unicode="Ń" d="M86 700h66l329 -595h1l-2 369v226h62v-700h-68l-327 596h-1l2 -289v-307h-62v700zM346 896l44 -25l-59 -128h-38z"/>
<glyph glyph-name="nacute" horiz-adv-x="518" unicode="ń" d="M71 520h45l12 -97q4 12 14.5 27.5t29 34.5t49.5 31.5t67 12.5q77 0 120.5 -56.5t43.5 -163.5v-309h-60v314q0 76 -32 119t-88 43q-66 0 -103.5 -54.5t-37.5 -122.5v-299h-60v520zM279 736l44 -25l-59 -128h-38z"/>
<glyph glyph-name="Ncommaaccent" horiz-adv-x="628" unicode="Ņ" d="M86 700h66l329 -595h1l-2 369v226h62v-700h-68l-327 596h-1l2 -289v-307h-62v700zM312 -71q41 0 41 -57t-61 -92l-10 16q41 29 41 65q0 8 -3 17q-5 -9 -18 -9q-12 0 -18.5 8t-6.5 20q0 15 10.5 23.5t24.5 8.5z"/>
<glyph glyph-name="ncommaaccent" horiz-adv-x="518" unicode="ņ" d="M71 520h45l12 -97q4 12 14.5 27.5t29 34.5t49.5 31.5t67 12.5q77 0 120.5 -56.5t43.5 -163.5v-309h-60v314q0 76 -32 119t-88 43q-66 0 -103.5 -54.5t-37.5 -122.5v-299h-60v520zM264 -71q41 0 41 -57t-61 -92l-10 16q41 29 41 65q0 8 -3 17q-5 -9 -18 -9q-12 0 -18.5 8 t-6.5 20q0 15 10.5 23.5t24.5 8.5z"/>
<glyph glyph-name="Ncaron" horiz-adv-x="628" unicode="Ň" d="M86 700h66l329 -595h1l-2 369v226h62v-700h-68l-327 596h-1l2 -289v-307h-62v700zM217 861h50l56 -81l56 81h50l-83 -112h-46z"/>
<glyph glyph-name="ncaron" horiz-adv-x="518" unicode="ň" d="M71 520h45l12 -97q4 12 14.5 27.5t29 34.5t49.5 31.5t67 12.5q77 0 120.5 -56.5t43.5 -163.5v-309h-60v314q0 76 -32 119t-88 43q-66 0 -103.5 -54.5t-37.5 -122.5v-299h-60v520zM154 695h50l56 -81l56 81h50l-83 -112h-46z"/>
<glyph glyph-name="Eng" horiz-adv-x="633" unicode="Ŋ" d="M412 -117q36 13 54 30.5t18 52.5v33l-336 604h-1l2 -289v-314h-62v700h70l330 -590h1l-3 285v305h62v-709q0 -63 -30 -97t-95 -49z"/>
<glyph glyph-name="eng" horiz-adv-x="518" unicode="ŋ" d="M71 520h45l12 -97q4 12 14.5 27.5t29 34.5t49.5 31.5t67 12.5q77 0 120.5 -56.5t43.5 -163.5v-318q0 -64 -28.5 -97.5t-93.5 -48.5l-10 38q36 13 54 30.5t18 52.5v348q0 76 -32 119t-88 43q-66 0 -103.5 -54.5t-37.5 -122.5v-299h-60v520z"/>
<glyph glyph-name="Omacron" horiz-adv-x="705" unicode="Ō" d="M112 349q0 -129 67.5 -215.5t173.5 -86.5t174 86t68 216q0 127 -69 216t-173 89t-172.5 -87.5t-68.5 -217.5zM47 350q0 153 86.5 256t219.5 103t219.5 -103t86.5 -256q0 -152 -85.5 -255t-220.5 -104q-134 1 -220 104t-86 255zM227 800h251v-39h-251v39z"/>
<glyph glyph-name="omacron" horiz-adv-x="536" unicode="ō" d="M267 476q-74 0 -119.5 -62t-45.5 -155q0 -91 45.5 -153t119.5 -62q73 0 119.5 62t46.5 153q0 92 -46 154.5t-120 62.5zM40 259q0 115 64.5 192.5t162.5 77.5q99 0 163.5 -77t64.5 -193q0 -114 -64.5 -191t-163.5 -77q-98 0 -162.5 77t-64.5 191zM142 640h251v-39h-251v39 z"/>
<glyph glyph-name="Obreve" horiz-adv-x="705" unicode="Ŏ" d="M112 349q0 -129 67.5 -215.5t173.5 -86.5t174 86t68 216q0 127 -69 216t-173 89t-172.5 -87.5t-68.5 -217.5zM47 350q0 153 86.5 256t219.5 103t219.5 -103t86.5 -256q0 -152 -85.5 -255t-220.5 -104q-134 1 -220 104t-86 255zM248 856h30q6 -32 23 -48.5t53 -16.5 q62 0 73 65h30q-6 -53 -31 -78.5t-72 -25.5q-51 0 -76 25.5t-30 78.5z"/>
<glyph glyph-name="obreve" horiz-adv-x="536" unicode="ŏ" d="M267 476q-74 0 -119.5 -62t-45.5 -155q0 -91 45.5 -153t119.5 -62q73 0 119.5 62t46.5 153q0 92 -46 154.5t-120 62.5zM40 259q0 115 64.5 192.5t162.5 77.5q99 0 163.5 -77t64.5 -193q0 -114 -64.5 -191t-163.5 -77q-98 0 -162.5 77t-64.5 191zM164 696h30 q6 -32 23 -48.5t53 -16.5q62 0 73 65h30q-6 -53 -31 -78.5t-72 -25.5q-51 0 -76 25.5t-30 78.5z"/>
<glyph glyph-name="Ohungarumlaut" horiz-adv-x="705" unicode="Ő" d="M112 349q0 -129 67.5 -215.5t173.5 -86.5t174 86t68 216q0 127 -69 216t-173 89t-172.5 -87.5t-68.5 -217.5zM47 350q0 153 86.5 256t219.5 103t219.5 -103t86.5 -256q0 -152 -85.5 -255t-220.5 -104q-134 1 -220 104t-86 255zM439 896l44 -25l-59 -128h-38zM329 896 l44 -25l-59 -128h-38z"/>
<glyph glyph-name="ohungarumlaut" horiz-adv-x="536" unicode="ő" d="M267 476q-74 0 -119.5 -62t-45.5 -155q0 -91 45.5 -153t119.5 -62q73 0 119.5 62t46.5 153q0 92 -46 154.5t-120 62.5zM40 259q0 115 64.5 192.5t162.5 77.5q99 0 163.5 -77t64.5 -193q0 -114 -64.5 -191t-163.5 -77q-98 0 -162.5 77t-64.5 191zM350 736l44 -25l-59 -128 h-38zM240 736l44 -25l-59 -128h-38z"/>
<glyph glyph-name="OE" horiz-adv-x="1060" unicode="Œ" d="M113 349q0 -129 67.5 -215.5t173.5 -86.5q103 0 170.5 82.5t71.5 206.5v25q-4 123 -72.5 208t-169.5 85q-104 0 -172.5 -87.5t-68.5 -217.5zM48 350q0 153 86.5 256t219.5 103q80 0 142 -40t100 -111v142h408v-53h-346v-281h298v-51h-298v-262h358v-53h-420v141 q-37 -70 -99 -109.5t-143 -40.5q-134 1 -220 104t-86 255z"/>
<glyph glyph-name="oe" horiz-adv-x="890" unicode="œ" d="M538 284h294q1 75 -33.5 133.5t-102.5 58.5q-69 0 -112 -53.5t-46 -138.5zM266 476q-74 0 -119.5 -62t-45.5 -155q0 -91 45.5 -153t119.5 -62q73 0 119.5 62t46.5 153q0 92 -46 154.5t-120 62.5zM39 259q0 115 64.5 192.5t162.5 77.5q79 0 137.5 -51t79.5 -135 q20 83 75.5 134.5t134.5 51.5q93 0 147.5 -74.5t54.5 -177.5q0 -29 -2 -40h-355q5 -82 55 -137.5t124 -55.5q57 0 130 34l17 -45q-80 -42 -157 -42q-83 0 -142.5 52t-80.5 136q-21 -84 -79.5 -136t-138.5 -52q-98 0 -162.5 77t-64.5 191z"/>
<glyph glyph-name="Racute" horiz-adv-x="574" unicode="Ŕ" d="M148 647v-291h191q52 0 88 41.5t36 105.5q0 60 -37.5 102t-101.5 42h-176zM86 700h239q86 0 141 -56t55 -141q0 -148 -131 -193l151 -310h-68l-146 305h-179v-305h-62v700zM288 896l44 -25l-59 -128h-38z"/>
<glyph glyph-name="racute" horiz-adv-x="289" unicode="ŕ" d="M71 520h46l9 -99q12 41 48.5 71.5t91.5 31.5v-57q-60 0 -97.5 -45t-37.5 -121v-301h-60v520zM183 736l44 -25l-59 -128h-38z"/>
<glyph glyph-name="Rcommaaccent" horiz-adv-x="574" unicode="Ŗ" d="M148 647v-291h191q52 0 88 41.5t36 105.5q0 60 -37.5 102t-101.5 42h-176zM86 700h239q86 0 141 -56t55 -141q0 -148 -131 -193l151 -310h-68l-146 305h-179v-305h-62v700zM291 -71q41 0 41 -57t-61 -92l-10 16q41 29 41 65q0 8 -3 17q-5 -9 -18 -9q-12 0 -18.5 8 t-6.5 20q0 15 10.5 23.5t24.5 8.5z"/>
<glyph glyph-name="rcommaaccent" horiz-adv-x="288" unicode="ŗ" d="M70 520h46l9 -99q12 41 48.5 71.5t91.5 31.5v-57q-60 0 -97.5 -45t-37.5 -121v-301h-60v520zM100 -71q41 0 41 -57t-61 -92l-10 16q41 29 41 65q0 8 -3 17q-5 -9 -18 -9q-12 0 -18.5 8t-6.5 20q0 15 10.5 23.5t24.5 8.5z"/>
<glyph glyph-name="Rcaron" horiz-adv-x="574" unicode="Ř" d="M148 647v-291h191q52 0 88 41.5t36 105.5q0 60 -37.5 102t-101.5 42h-176zM86 700h239q86 0 141 -56t55 -141q0 -148 -131 -193l151 -310h-68l-146 305h-179v-305h-62v700zM162 861h50l56 -81l56 81h50l-83 -112h-46z"/>
<glyph glyph-name="rcaron" horiz-adv-x="289" unicode="ř" d="M70 520h46l9 -99q12 41 48.5 71.5t91.5 31.5v-57q-60 0 -97.5 -45t-37.5 -121v-301h-60v520zM60 695h50l56 -81l56 81h50l-83 -112h-46z"/>
<glyph glyph-name="Sacute" horiz-adv-x="503" unicode="Ś" d="M251 -9q-98 0 -205 52l20 46q100 -45 180 -45q74 0 113 36t39 96q0 33 -12.5 57.5t-41.5 43t-49.5 27.5t-63.5 25q-41 15 -67 28.5t-55 36t-43.5 55.5t-14.5 77q0 89 54.5 136t148.5 47q98 0 184 -42l-19 -46l-5 2q-4 2 -10 4t-15.5 5.5t-20 6.5t-23.5 6t-26 5.5t-28 4 t-29 1.5q-67 0 -107 -34t-40 -94q0 -32 11 -55t36.5 -40.5t45 -26.5t57.5 -24q94 -36 127 -60q71 -51 71 -144t-58 -140t-154 -47zM273 896l44 -25l-59 -128h-38z"/>
<glyph glyph-name="sacute" horiz-adv-x="402" unicode="ś" d="M204 -9q-84 0 -159 40l14 43q78 -34 140 -34q54 0 81.5 25t27.5 67q0 30 -17.5 51t-35.5 29.5t-62 24.5q-9 3 -13 5q-31 12 -49.5 20.5t-41.5 25.5t-34 42t-11 58q0 66 44.5 103.5t115.5 37.5q76 0 142 -32l-16 -43q-60 26 -121 26q-49 0 -78.5 -24t-29.5 -66 q0 -40 26 -59.5t86 -40.5q30 -11 44.5 -17t39.5 -20t37 -28t22 -38t10 -54q0 -68 -44.5 -105t-117.5 -37zM226 736l44 -25l-59 -128h-38z"/>
<glyph glyph-name="Scircumflex" horiz-adv-x="503" unicode="Ŝ" d="M251 -9q-98 0 -205 52l20 46q100 -45 180 -45q74 0 113 36t39 96q0 33 -12.5 57.5t-41.5 43t-49.5 27.5t-63.5 25q-41 15 -67 28.5t-55 36t-43.5 55.5t-14.5 77q0 89 54.5 136t148.5 47q98 0 184 -42l-19 -46l-5 2q-4 2 -10 4t-15.5 5.5t-20 6.5t-23.5 6t-26 5.5t-28 4 t-29 1.5q-67 0 -107 -34t-40 -94q0 -32 11 -55t36.5 -40.5t45 -26.5t57.5 -24q94 -36 127 -60q71 -51 71 -144t-58 -140t-154 -47zM199 749h-50l83 112h46l83 -112h-50l-56 81z"/>
<glyph glyph-name="scircumflex" horiz-adv-x="402" unicode="ŝ" d="M204 -9q-84 0 -159 40l14 43q78 -34 140 -34q54 0 81.5 25t27.5 67q0 30 -17.5 51t-35.5 29.5t-62 24.5q-9 3 -13 5q-31 12 -49.5 20.5t-41.5 25.5t-34 42t-11 58q0 66 44.5 103.5t115.5 37.5q76 0 142 -32l-16 -43q-60 26 -121 26q-49 0 -78.5 -24t-29.5 -66 q0 -40 26 -59.5t86 -40.5q30 -11 44.5 -17t39.5 -20t37 -28t22 -38t10 -54q0 -68 -44.5 -105t-117.5 -37zM146 583h-50l83 112h46l83 -112h-50l-56 81z"/>
<glyph glyph-name="Scedilla" horiz-adv-x="504" unicode="Ş" d="M223 -94l-14 20l21 66q-92 5 -184 51l20 46q100 -45 180 -45q74 0 113 36t39 96q0 33 -12.5 57.5t-41.5 43t-49.5 27.5t-63.5 25q-41 15 -67 28.5t-55 36t-43.5 55.5t-14.5 77q0 89 54.5 136t148.5 47q98 0 184 -42l-19 -46l-5 2q-4 2 -10 4t-15.5 5.5t-20 6.5t-23.5 6 t-26 5.5t-28 4t-29 1.5q-67 0 -107 -34t-40 -94q0 -32 11 -55t36.5 -40.5t45 -26.5t57.5 -24q94 -36 127 -60q71 -51 71 -144q0 -89 -54 -136t-145 -51l-14 -54q5 1 11 1q26 0 45 -16t19 -49q0 -35 -22.5 -53t-59.5 -18q-30 0 -62 10l8 30q30 -6 45 -6q49 0 49 37 q0 35 -40 35z"/>
<glyph glyph-name="scedilla" horiz-adv-x="403" unicode="ş" d="M169 -94l-14 20l21 67q-72 6 -131 38l14 43q78 -34 140 -34q54 0 81.5 25t27.5 67q0 30 -17.5 51t-35.5 29.5t-62 24.5q-9 3 -13 5q-31 12 -49.5 20.5t-41.5 25.5t-34 42t-11 58q0 66 44.5 103.5t115.5 37.5q76 0 142 -32l-16 -43q-60 26 -121 26q-49 0 -78.5 -24 t-29.5 -66q0 -40 26 -59.5t86 -40.5q30 -11 44.5 -17t39.5 -20t37 -28t22 -38t10 -54q0 -68 -43 -104t-115 -38l-12 -54q5 1 11 1q26 0 45 -16t19 -49q0 -35 -22.5 -53t-59.5 -18q-29 0 -62 10l8 30q30 -6 45 -6q49 0 49 37q0 35 -40 35z"/>
<glyph glyph-name="Scaron" horiz-adv-x="503" unicode="Š" d="M251 -9q-98 0 -205 52l20 46q100 -45 180 -45q74 0 113 36t39 96q0 33 -12.5 57.5t-41.5 43t-49.5 27.5t-63.5 25q-41 15 -67 28.5t-55 36t-43.5 55.5t-14.5 77q0 89 54.5 136t148.5 47q98 0 184 -42l-19 -46l-5 2q-4 2 -10 4t-15.5 5.5t-20 6.5t-23.5 6t-26 5.5t-28 4 t-29 1.5q-67 0 -107 -34t-40 -94q0 -32 11 -55t36.5 -40.5t45 -26.5t57.5 -24q94 -36 127 -60q71 -51 71 -144t-58 -140t-154 -47zM151 861h50l56 -81l56 81h50l-83 -112h-46z"/>
<glyph glyph-name="scaron" horiz-adv-x="402" unicode="š" d="M204 -9q-84 0 -159 40l14 43q78 -34 140 -34q54 0 81.5 25t27.5 67q0 30 -17.5 51t-35.5 29.5t-62 24.5q-9 3 -13 5q-31 12 -49.5 20.5t-41.5 25.5t-34 42t-11 58q0 66 44.5 103.5t115.5 37.5q76 0 142 -32l-16 -43q-60 26 -121 26q-49 0 -78.5 -24t-29.5 -66 q0 -40 26 -59.5t86 -40.5q30 -11 44.5 -17t39.5 -20t37 -28t22 -38t10 -54q0 -68 -44.5 -105t-117.5 -37zM98 695h50l56 -81l56 81h50l-83 -112h-46z"/>
<glyph glyph-name="Tcommaaccent" horiz-adv-x="497" unicode="Ţ" d="M10 700h477v-52h-206v-648h-62v648h-209v52zM246 -71q41 0 41 -57t-61 -92l-10 16q41 29 41 65q0 8 -3 17q-5 -9 -18 -9q-12 0 -18.5 8t-6.5 20q0 15 10.5 23.5t24.5 8.5z"/>
<glyph glyph-name="tcommaaccent" horiz-adv-x="294" unicode="ţ" d="M96 670h48v-150h117v-45h-117v-335q0 -53 15 -76.5t52 -23.5q20 0 49 8l2 -44q-34 -13 -68 -13q-62 0 -86 34.5t-24 109.5v340h-64v37l64 7zM165 -71q41 0 41 -57t-61 -92l-10 16q41 29 41 65q0 8 -3 17q-5 -9 -18 -9q-12 0 -18.5 8t-6.5 20q0 15 10.5 23.5t24.5 8.5z "/>
<glyph glyph-name="Tcaron" horiz-adv-x="497" unicode="Ť" d="M10 700h477v-52h-206v-648h-62v648h-209v52zM144 861h50l56 -81l56 81h50l-83 -112h-46z"/>
<glyph glyph-name="tcaron" horiz-adv-x="295" unicode="ť" d="M96 670h48v-150h117v-45h-117v-335q0 -53 15 -76.5t52 -23.5q20 0 49 8l2 -44q-34 -13 -68 -13q-62 0 -86 34.5t-24 109.5v340h-64v37l64 7zM251 748h44q0 -43 -12 -90.5t-28 -74.5l-27 11q23 66 23 154z"/>
<glyph glyph-name="Tbar" horiz-adv-x="501" unicode="Ŧ" d="M20 700h477v-52h-206v-271h148v-35h-148v-342h-62v342h-149v35h149v271h-209v52z"/>
<glyph glyph-name="tbar" horiz-adv-x="297" unicode="ŧ" d="M98 670h48v-150h117v-45h-117v-90h115v-27h-115v-218q0 -53 15 -76.5t52 -23.5q20 0 49 8l2 -44q-34 -13 -68 -13q-62 0 -86 34.5t-24 109.5v223h-64v27h64v90h-64v37l64 7z"/>
<glyph glyph-name="Utilde" horiz-adv-x="609" unicode="Ũ" d="M80 700h62v-482q0 -76 45 -124t118 -48t117.5 48t44.5 124v482h62v-477q0 -104 -61 -168t-163 -64q-104 0 -164.5 65t-60.5 167v477zM199 764l-18 12q12 26 33 42t44 16q22 0 55 -20.5t53 -20.5q24 0 49 33l17 -14q-31 -60 -77 -60q-23 0 -55.5 20.5t-52.5 20.5 q-28 0 -48 -29z"/>
<glyph glyph-name="utilde" horiz-adv-x="517" unicode="ũ" d="M66 520h60v-319q0 -157 120 -157q69 0 104 48.5t35 115.5v312h61v-520h-46l-10 85q-17 -40 -58.5 -67t-100.5 -27q-77 0 -121 50.5t-44 156.5v322zM152 605l-18 12q12 26 33 42t44 16q22 0 55 -20.5t53 -20.5q24 0 49 33l17 -14q-31 -60 -77 -60q-23 0 -55.5 20.5 t-52.5 20.5q-28 0 -48 -29z"/>
<glyph glyph-name="Umacron" horiz-adv-x="609" unicode="Ū" d="M80 700h62v-482q0 -76 45 -124t118 -48t117.5 48t44.5 124v482h62v-477q0 -104 -61 -168t-163 -64q-104 0 -164.5 65t-60.5 167v477zM179 800h251v-39h-251v39z"/>
<glyph glyph-name="umacron" horiz-adv-x="517" unicode="ū" d="M66 520h60v-319q0 -157 120 -157q69 0 104 48.5t35 115.5v312h61v-520h-46l-10 85q-17 -40 -58.5 -67t-100.5 -27q-77 0 -121 50.5t-44 156.5v322zM130 640h251v-39h-251v39z"/>
<glyph glyph-name="Ubreve" horiz-adv-x="609" unicode="Ŭ" d="M80 700h62v-482q0 -76 45 -124t118 -48t117.5 48t44.5 124v482h62v-477q0 -104 -61 -168t-163 -64q-104 0 -164.5 65t-60.5 167v477zM201 856h30q6 -32 23 -48.5t53 -16.5q62 0 73 65h30q-6 -53 -31 -78.5t-72 -25.5q-51 0 -76 25.5t-30 78.5z"/>
<glyph glyph-name="ubreve" horiz-adv-x="517" unicode="ŭ" d="M66 520h60v-319q0 -157 120 -157q69 0 104 48.5t35 115.5v312h61v-520h-46l-10 85q-17 -40 -58.5 -67t-100.5 -27q-77 0 -121 50.5t-44 156.5v322zM152 696h30q6 -32 23 -48.5t53 -16.5q62 0 73 65h30q-6 -53 -31 -78.5t-72 -25.5q-51 0 -76 25.5t-30 78.5z"/>
<glyph glyph-name="Uring" horiz-adv-x="609" unicode="Ů" d="M80 700h62v-482q0 -76 45 -124t118 -48t117.5 48t44.5 124v482h62v-477q0 -104 -61 -168t-163 -64q-104 0 -164.5 65t-60.5 167v477zM313 879q-23 0 -35 -14t-12 -35t12 -34.5t35 -13.5t35 13.5t12 34.5t-12 35t-35 14zM313 751q-36 0 -60 22t-24 57t24 57.5t60 22.5 t60 -22.5t24 -57.5t-24 -57t-60 -22z"/>
<glyph glyph-name="uring" horiz-adv-x="517" unicode="ů" d="M66 520h60v-319q0 -157 120 -157q69 0 104 48.5t35 115.5v312h61v-520h-46l-10 85q-17 -40 -58.5 -67t-100.5 -27q-77 0 -121 50.5t-44 156.5v322zM262 720q-23 0 -35 -14t-12 -35t12 -34.5t35 -13.5t35 13.5t12 34.5t-12 35t-35 14zM262 592q-36 0 -60 22t-24 57 t24 57.5t60 22.5t60 -22.5t24 -57.5t-24 -57t-60 -22z"/>
<glyph glyph-name="Uhungarumlaut" horiz-adv-x="609" unicode="Ű" d="M80 700h62v-482q0 -76 45 -124t118 -48t117.5 48t44.5 124v482h62v-477q0 -104 -61 -168t-163 -64q-104 0 -164.5 65t-60.5 167v477zM379 896l44 -25l-59 -128h-38zM269 896l44 -25l-59 -128h-38z"/>
<glyph glyph-name="uhungarumlaut" horiz-adv-x="517" unicode="ű" d="M66 520h60v-319q0 -157 120 -157q69 0 104 48.5t35 115.5v312h61v-520h-46l-10 85q-17 -40 -58.5 -67t-100.5 -27q-77 0 -121 50.5t-44 156.5v322zM331 736l44 -25l-59 -128h-38zM221 736l44 -25l-59 -128h-38z"/>
<glyph glyph-name="Uogonek" horiz-adv-x="609" unicode="Ų" d="M80 700h62v-482q0 -76 45 -124t118 -48t117.5 48t44.5 124v482h62v-477q0 -80 -37.5 -138t-103.5 -81q-50 -32 -50 -108q0 -51 39 -51l25 4l6 -21q-20 -13 -44 -13q-30 0 -47.5 21t-17.5 54q0 59 43 104q-18 -3 -37 -3q-104 0 -164.5 65t-60.5 167v477z"/>
<glyph glyph-name="uogonek" horiz-adv-x="525" unicode="ų" d="M66 520h60v-319q0 -157 120 -157q69 0 104 48.5t35 115.5v312h61v-520q-24 -14 -37 -41.5t-13 -55.5q0 -49 40 -49l24 4l6 -21q-20 -13 -42 -13q-29 0 -48 19t-19 54q0 63 50 103h-7l-10 85q-17 -40 -58.5 -67t-100.5 -27q-77 0 -121 50.5t-44 156.5v322z"/>
<glyph glyph-name="Wcircumflex" horiz-adv-x="829" unicode="Ŵ" d="M455 700l137 -634l147 634h59l-166 -700h-84l-134 622l-134 -622h-84l-169 700h64l147 -634l137 634h80zM361 749h-50l83 112h46l83 -112h-50l-56 81z"/>
<glyph glyph-name="wcircumflex" horiz-adv-x="713" unicode="ŵ" d="M326 520h60l113 -447l121 447h58l-143 -520h-71l-108 431l-108 -431h-71l-142 520h58l120 -447zM307 583h-50l83 112h46l83 -112h-50l-56 81z"/>
<glyph glyph-name="Ycircumflex" horiz-adv-x="518" unicode="Ŷ" d="M17 700h68l174 -351h4l172 351h64l-210 -414v-286h-59v286zM202 749h-50l83 112h46l83 -112h-50l-56 81z"/>
<glyph glyph-name="ycircumflex" horiz-adv-x="462" unicode="ŷ" d="M32 520h61l141 -450l135 450h61l-216 -690h-59l50 161zM175 583h-50l83 112h46l83 -112h-50l-56 81z"/>
<glyph glyph-name="Ydieresis" horiz-adv-x="518" unicode="Ÿ" d="M17 700h68l174 -351h4l172 351h64l-210 -414v-286h-59v286zM308 785q0 16 10 27t24 11q16 0 26 -10.5t10 -27.5q0 -15 -10 -25.5t-26 -10.5q-15 0 -24.5 10.5t-9.5 25.5zM137 785q0 16 10 27t24 11q16 0 26 -10.5t10 -27.5q0 -15 -10 -25.5t-26 -10.5q-15 0 -24.5 10.5 t-9.5 25.5z"/>
<glyph glyph-name="Zacute" horiz-adv-x="518" unicode="Ź" d="M42 700h443v-44l-379 -602l1 -3l144 2h229v-53h-450v44l378 603l-2 2l-144 -2h-220v53zM289 896l44 -25l-59 -128h-38z"/>
<glyph glyph-name="zacute" horiz-adv-x="431" unicode="ź" d="M42 520h353v-48l-294 -421l1 -3l126 1h167v-49h-365v46l296 423l-1 2l-140 -1h-143v50zM240 736l44 -25l-59 -128h-38z"/>
<glyph glyph-name="Zdotaccent" horiz-adv-x="518" unicode="Ż" d="M42 700h443v-44l-379 -602l1 -3l144 2h229v-53h-450v44l378 603l-2 2l-144 -2h-220v53zM223 779q0 16 10 27t24 11q16 0 26 -10.5t10 -27.5q0 -15 -10 -25.5t-26 -10.5q-15 0 -24.5 10.5t-9.5 25.5z"/>
<glyph glyph-name="zdotaccent" horiz-adv-x="431" unicode="ż" d="M42 520h353v-48l-294 -421l1 -3l126 1h167v-49h-365v46l296 423l-1 2l-140 -1h-143v50zM191 622q0 16 10 27t24 11q16 0 26 -10.5t10 -27.5q0 -15 -10 -25.5t-26 -10.5q-15 0 -24.5 10.5t-9.5 25.5z"/>
<glyph glyph-name="Zcaron" horiz-adv-x="518" unicode="Ž" d="M42 700h443v-44l-379 -602l1 -3l144 2h229v-53h-450v44l378 603l-2 2l-144 -2h-220v53zM162 861h50l56 -81l56 81h50l-83 -112h-46z"/>
<glyph glyph-name="zcaron" horiz-adv-x="431" unicode="ž" d="M42 520h353v-48l-294 -421l1 -3l126 1h167v-49h-365v46l296 423l-1 2l-140 -1h-143v50zM114 695h50l56 -81l56 81h50l-83 -112h-46z"/>
<glyph glyph-name="AEacute" horiz-adv-x="796" unicode="Ǽ" d="M549 896l44 -25l-59 -128h-38zM366 644h-36l-155 -396h191v396zM13 0l281 700h480v-53h-346v-281h298v-51h-298v-262h358v-53h-420v196h-212l-76 -196h-65z"/>
<glyph glyph-name="aeacute" horiz-adv-x="792" unicode="ǽ" d="M360 155q-18 46 -18 98q-77 11 -111 11q-139 0 -139 -113q0 -56 32 -81.5t76 -25.5q56 0 98.5 34.5t61.5 76.5zM405 284h305q1 75 -33.5 133.5t-102.5 58.5q-73 0 -119.5 -53.5t-49.5 -138.5zM88 453l-12 48q88 28 161 28q128 0 159 -91q65 91 175 91q93 0 147.5 -74.5 t54.5 -177.5q0 -29 -2 -40h-366q5 -81 60 -137t130 -56q57 0 130 34l17 -45q-80 -42 -157 -42q-65 0 -117 30.5t-84 83.5q-32 -55 -82 -84.5t-110 -29.5q-70 0 -115 40.5t-45 116.5q0 84 54 125.5t138 41.5q54 0 119 -13q1 8 4 17v38q0 69 -29.5 94t-88.5 25q-70 0 -141 -23 zM418 736l44 -25l-59 -128h-38z"/>
<glyph glyph-name="Oslashacute" horiz-adv-x="705" unicode="Ǿ" d="M374 896l44 -25l-59 -128h-38zM595 349q0 144 -85 234l-275 -501q52 -35 118 -35q106 0 174 86t68 216zM112 349q0 -149 85 -236l276 502q-55 39 -120 39q-104 0 -172.5 -87.5t-68.5 -217.5zM47 350q0 153 86.5 256t219.5 103q81 0 148 -42l35 63h55l-50 -92 q55 -49 86.5 -124t31.5 -164q0 -152 -85.5 -255t-220.5 -104q-84 2 -146 40l-34 -62h-55l49 90q-57 49 -88.5 125.5t-31.5 165.5z"/>
<glyph glyph-name="oslashacute" horiz-adv-x="536" unicode="ǿ" d="M277 736l44 -25l-59 -128h-38zM433 259q0 100 -52 161l-195 -352q37 -24 81 -24q73 0 119.5 62t46.5 153zM267 476q-74 0 -119.5 -62t-45.5 -155q0 -101 52 -162l195 353q-37 26 -82 26zM40 259q0 115 64.5 192.5t162.5 77.5q59 0 109 -31l32 58h48l-46 -83 q85 -79 85 -214q0 -114 -64.5 -191t-163.5 -77q-57 0 -107 29l-31 -56h-48l45 81q-86 78 -86 214z"/>
<glyph glyph-name="Scommaaccent" horiz-adv-x="503" unicode="Ș" d="M251 -9q-98 0 -205 52l20 46q100 -45 180 -45q74 0 113 36t39 96q0 33 -12.5 57.5t-41.5 43t-49.5 27.5t-63.5 25q-41 15 -67 28.5t-55 36t-43.5 55.5t-14.5 77q0 89 54.5 136t148.5 47q98 0 184 -42l-19 -46l-5 2q-4 2 -10 4t-15.5 5.5t-20 6.5t-23.5 6t-26 5.5t-28 4 t-29 1.5q-67 0 -107 -34t-40 -94q0 -32 11 -55t36.5 -40.5t45 -26.5t57.5 -24q94 -36 127 -60q71 -51 71 -144t-58 -140t-154 -47zM254 -71q41 0 41 -57t-61 -92l-10 16q41 29 41 65q0 8 -3 17q-5 -9 -18 -9q-12 0 -18.5 8t-6.5 20q0 15 10.5 23.5t24.5 8.5z"/>
<glyph glyph-name="scommaaccent" horiz-adv-x="402" unicode="ș" d="M204 -9q-84 0 -159 40l14 43q78 -34 140 -34q54 0 81.5 25t27.5 67q0 30 -17.5 51t-35.5 29.5t-62 24.5q-9 3 -13 5q-31 12 -49.5 20.5t-41.5 25.5t-34 42t-11 58q0 66 44.5 103.5t115.5 37.5q76 0 142 -32l-16 -43q-60 26 -121 26q-49 0 -78.5 -24t-29.5 -66 q0 -40 26 -59.5t86 -40.5q30 -11 44.5 -17t39.5 -20t37 -28t22 -38t10 -54q0 -68 -44.5 -105t-117.5 -37zM207 -71q41 0 41 -57t-61 -92l-10 16q41 29 41 65q0 8 -3 17q-5 -9 -18 -9q-12 0 -18.5 8t-6.5 20q0 15 10.5 23.5t24.5 8.5z"/>
<glyph glyph-name="circumflex" horiz-adv-x="371" unicode="ˆ" d="M131 629h-50l83 112h46l83 -112h-50l-56 81z"/>
<glyph glyph-name="caron" horiz-adv-x="372" unicode="ˇ" d="M80 741h42l65 -75l62 75h43l-84 -110h-45z"/>
<glyph glyph-name="breve" horiz-adv-x="350" unicode="˘" d="M71 726h30q6 -32 23 -48.5t53 -16.5q62 0 73 65h30q-6 -53 -31 -78.5t-72 -25.5q-51 0 -76 25.5t-30 78.5z"/>
<glyph glyph-name="dotaccent" horiz-adv-x="218" unicode="˙" d="M75 714q0 16 10 27t24 11q16 0 26 -10.5t10 -27.5q0 -15 -10 -25.5t-26 -10.5q-15 0 -24.5 10.5t-9.5 25.5z"/>
<glyph glyph-name="ring" horiz-adv-x="288" unicode="˚" d="M145 720q-23 0 -35 -14t-12 -35t12 -34.5t35 -13.5t35 13.5t12 34.5t-12 35t-35 14zM145 592q-36 0 -60 22t-24 57t24 57.5t60 22.5t60 -22.5t24 -57.5t-24 -57t-60 -22z"/>
<glyph glyph-name="ogonek" horiz-adv-x="251" unicode="˛" d="M152 17l8 -17q-25 -14 -37.5 -42.5t-12.5 -53.5q0 -50 40 -50l24 4l6 -21q-20 -13 -43 -13q-31 0 -48.5 20.5t-17.5 53.5q0 39 22.5 72t58.5 47z"/>
<glyph glyph-name="tilde" horiz-adv-x="391" unicode="˜" d="M90 630l-18 12q12 26 33 42t44 16q22 0 55 -20.5t53 -20.5q24 0 49 33l17 -14q-31 -60 -77 -60q-23 0 -55.5 20.5t-52.5 20.5q-28 0 -48 -29z"/>
<glyph glyph-name="hungarumlaut" horiz-adv-x="347" unicode="˝" d="M232 751l44 -25l-59 -128h-38zM122 751l44 -25l-59 -128h-38z"/>
<glyph glyph-name="Wgrave" horiz-adv-x="829" unicode="Ẁ" d="M455 700l137 -634l147 634h59l-166 -700h-84l-134 622l-134 -622h-84l-169 700h64l147 -634l137 634h80zM339 871l44 25l53 -153h-38z"/>
<glyph glyph-name="wgrave" horiz-adv-x="713" unicode="ẁ" d="M326 520h60l113 -447l121 447h58l-143 -520h-71l-108 431l-108 -431h-71l-142 520h58l120 -447zM280 711l44 25l53 -153h-38z"/>
<glyph glyph-name="Wacute" horiz-adv-x="829" unicode="Ẃ" d="M455 700l137 -634l147 634h59l-166 -700h-84l-134 622l-134 -622h-84l-169 700h64l147 -634l137 634h80zM457 896l44 -25l-59 -128h-38z"/>
<glyph glyph-name="wacute" horiz-adv-x="713" unicode="ẃ" d="M326 520h60l113 -447l121 447h58l-143 -520h-71l-108 431l-108 -431h-71l-142 520h58l120 -447zM398 736l44 -25l-59 -128h-38z"/>
<glyph glyph-name="Wdieresis" horiz-adv-x="829" unicode="Ẅ" d="M455 700l137 -634l147 634h59l-166 -700h-84l-134 622l-134 -622h-84l-169 700h64l147 -634l137 634h80zM467 785q0 16 10 27t24 11q16 0 26 -10.5t10 -27.5q0 -15 -10 -25.5t-26 -10.5q-15 0 -24.5 10.5t-9.5 25.5zM296 785q0 16 10 27t24 11q16 0 26 -10.5t10 -27.5 q0 -15 -10 -25.5t-26 -10.5q-15 0 -24.5 10.5t-9.5 25.5z"/>
<glyph glyph-name="wdieresis" horiz-adv-x="713" unicode="ẅ" d="M326 520h60l113 -447l121 447h58l-143 -520h-71l-108 431l-108 -431h-71l-142 520h58l120 -447zM407 622q0 16 10 27t24 11q16 0 26 -10.5t10 -27.5q0 -15 -10 -25.5t-26 -10.5q-15 0 -24.5 10.5t-9.5 25.5zM236 622q0 16 10 27t24 11q16 0 26 -10.5t10 -27.5 q0 -15 -10 -25.5t-26 -10.5q-15 0 -24.5 10.5t-9.5 25.5z"/>
<glyph glyph-name="germandbls.case" horiz-adv-x="592" unicode="ẞ" d="M80 461q0 112 54 180t155 68q115 0 193 -98l-113 -208q87 -17 139.5 -67t52.5 -139q0 -94 -58.5 -155t-157.5 -61q-63 0 -119 26l13 44q48 -20 105 -20q76 0 116.5 46t40.5 118q0 144 -175 167l-18 33l106 202q-42 58 -125 58q-75 0 -112 -53.5t-37 -137.5v-464h-60v461z "/>
<glyph glyph-name="Ygrave" horiz-adv-x="518" unicode="Ỳ" d="M17 700h68l174 -351h4l172 351h64l-210 -414v-286h-59v286zM200 871l44 25l53 -153h-38z"/>
<glyph glyph-name="ygrave" horiz-adv-x="462" unicode="ỳ" d="M32 520h61l141 -450l135 450h61l-216 -690h-59l50 161zM164 711l44 25l53 -153h-38z"/>
<glyph glyph-name="endash" horiz-adv-x="609" unicode="–" d="M65 346h479v-44h-479v44z"/>
<glyph glyph-name="emdash" horiz-adv-x="692" unicode="—" d="M65 346h562v-44h-562v44z"/>
<glyph glyph-name="quoteleft" horiz-adv-x="215" unicode="‘" d="M114 507q-25 0 -38.5 22t-13.5 52q0 70 74 116l12 -20q-19 -14 -33 -38t-14 -49q0 -10 3 -21q0 1 1.5 3t5 4t8.5 2q14 0 22 -9t8 -24q0 -16 -10.5 -27t-24.5 -11z"/>
<glyph glyph-name="quoteright" horiz-adv-x="215" unicode="’" d="M104 697q25 0 38.5 -22t13.5 -52q0 -72 -74 -116l-12 19q19 15 33 39t14 49q0 10 -3 21q0 -9 -15 -9q-14 0 -22 9t-8 24q0 16 10.5 27t24.5 11z"/>
<glyph glyph-name="quotesinglbase" horiz-adv-x="213" unicode="‚" d="M101 71q24 0 37.5 -22t13.5 -52q0 -70 -74 -116l-11 20q46 36 46 86q0 12 -3 22q0 -3 -4.5 -6t-10.5 -3q-13 0 -21.5 9.5t-8.5 23.5q0 16 10.5 27t25.5 11z"/>
<glyph glyph-name="quotedblleft" horiz-adv-x="364" unicode="“" d="M113 507q-25 0 -38 22t-13 52q0 71 73 116l12 -20q-47 -37 -47 -87q0 -10 3 -21q2 9 15 9t21.5 -9.5t8.5 -23.5q0 -17 -10 -27.5t-25 -10.5zM262 507q-24 0 -37.5 22t-13.5 52q0 70 74 116l12 -20q-19 -14 -33 -38t-14 -49q0 -10 3 -21q2 9 15 9q14 0 22 -9.5t8 -23.5 q0 -17 -10.5 -27.5t-25.5 -10.5z"/>
<glyph glyph-name="quotedblright" horiz-adv-x="363" unicode="”" d="M253 697q24 0 37.5 -22.5t13.5 -51.5q0 -72 -74 -116l-12 19q47 37 47 87q0 11 -3 22q0 -9 -15 -9q-13 0 -21.5 9.5t-8.5 23.5q0 16 10.5 27t25.5 11zM103 697q24 0 37.5 -22.5t13.5 -51.5q0 -72 -74 -116l-11 19q19 14 33 38t14 49q0 11 -3 22q-2 -9 -15 -9 q-14 0 -22 9.5t-8 23.5q0 16 10.5 27t24.5 11z"/>
<glyph glyph-name="quotedblbase" horiz-adv-x="361" unicode="„" d="M252 71q23 0 36 -22t13 -52q0 -70 -74 -116l-11 20q46 36 46 86q0 12 -3 22q0 -9 -16 -9q-13 0 -20.5 9.5t-7.5 23.5q0 17 10.5 27.5t26.5 10.5zM103 71q23 0 36 -22t13 -52q0 -70 -74 -116l-12 20q19 14 33 38t14 49q0 10 -3 21q-2 -9 -16 -9q-13 0 -21 9.5t-8 23.5 q0 17 11 27.5t27 10.5z"/>
<glyph glyph-name="dagger" horiz-adv-x="446" unicode="†" d="M403 539v-54l-121 11v30zM42 539l120 -13v-30l-120 -11v54zM195 700h55l-8 -597h-39z"/>
<glyph glyph-name="daggerdbl" horiz-adv-x="479" unicode="‡" d="M59 261l121 -14v-30l-121 -11v55zM420 261v-55l-121 11v30zM59 539l121 -13v-30l-121 -11v54zM420 539v-54l-121 11v30zM212 700h56q-3 -346 -9 -700h-39q-8 586 -8 700z"/>
<glyph glyph-name="bullet" horiz-adv-x="321" unicode="•" d="M161 434q31 0 53.5 -24.5t22.5 -59.5q0 -34 -22.5 -58t-53.5 -24q-32 0 -54.5 24.5t-22.5 59.5q0 34 22.5 58t54.5 24z"/>
<glyph glyph-name="ellipsis" horiz-adv-x="600" unicode="…" d="M397 31q0 16 10 26t25 10q14 0 24 -10.5t10 -25.5t-10 -25.5t-24 -10.5q-15 0 -25 10t-10 26zM229 31q0 16 10 26t25 10q14 0 24 -10.5t10 -25.5t-10 -25.5t-24 -10.5q-15 0 -25 10t-10 26zM63 31q0 16 10 26t25 10q14 0 24 -10.5t10 -25.5t-10 -25.5t-24 -10.5 q-15 0 -25 10t-10 26z"/>
<glyph glyph-name="perthousand" horiz-adv-x="1034" unicode="‰" d="M866 39q37 0 58 33t21 86q0 55 -21.5 88.5t-58.5 33.5t-59 -33t-22 -87q0 -53 22.5 -87t59.5 -34zM864 -9q-59 0 -96 47t-37 119q0 74 37.5 122.5t97.5 48.5q59 0 95.5 -48t36.5 -122q0 -72 -37 -119.5t-97 -47.5zM173 420q37 0 58 33t21 86q0 55 -21.5 88.5t-58.5 33.5 t-59 -33t-22 -87q0 -53 22.5 -87t59.5 -34zM171 372q-59 0 -96 47t-37 119q0 74 37.5 122.5t97.5 48.5q59 0 95.5 -48t36.5 -122q0 -72 -37 -119.5t-97 -47.5zM515 39q37 0 58 33t21 86q0 55 -21.5 88.5t-58.5 33.5t-59 -33t-22 -87q0 -53 22.5 -87t59.5 -34zM513 -9 q-59 0 -96 47t-37 119q0 74 37.5 122.5t97.5 48.5q59 0 95.5 -48t36.5 -122q0 -72 -37 -119.5t-97 -47.5zM142 0l344 700h55l-344 -700h-55z"/>
<glyph glyph-name="guilsinglleft" horiz-adv-x="296" unicode="‹" d="M212 494l30 -32l-136 -202l136 -202l-30 -31l-171 226v14z"/>
<glyph glyph-name="guilsinglright" horiz-adv-x="296" unicode="›" d="M54 462l30 32l171 -227v-14l-171 -226l-30 31l136 202z"/>
<glyph glyph-name="fraction" horiz-adv-x="346" unicode="⁄" d="M283 702h49q-44 -116 -133 -351t-133 -351h-50q36 95 129 339t138 363z"/>
<glyph glyph-name="Euro" horiz-adv-x="688" unicode="€" d="M42 395l11 33h71q23 128 107.5 204.5t204.5 76.5q102 -2 181 -49l-16 -45q-8 5 -21.5 12t-57 18.5t-87.5 11.5q-93 0 -158.5 -63t-84.5 -166h319l-11 -33h-314q-2 -30 -2 -45q0 -26 3 -48h281l-11 -32h-265q20 -102 87 -164.5t159 -62.5q77 0 166 40v-54 q-74 -38 -168 -38q-119 0 -204 76t-107 203h-78l11 32h62q-2 30 -2 48q0 15 2 45h-78z"/>
<glyph glyph-name="trademark" horiz-adv-x="669" unicode="™" d="M340 700h34l94 -207l89 207h36v-306h-34v238l-80 -181h-24l-81 181v-238h-34v306zM62 700h215v-35h-88v-271h-37v271h-90v35z"/>
<glyph glyph-name="commaaccent" horiz-adv-x="209" unicode="" d="M100 -83q41 0 41 -57t-61 -92l-10 16q41 29 41 65q0 8 -3 17q-5 -9 -18 -9q-12 0 -18.5 8t-6.5 20q0 15 10.5 23.5t24.5 8.5z"/>
<glyph glyph-name="apple" horiz-adv-x="1119" unicode="" d="M1055 479h8v-31h30v-9h-30v-65q0 -25 19 -25q10 0 15 2l1 -8q-6 -3 -17 -3q-28 0 -28 35v64h-16v8l16 1zM920 394q0 -19 12.5 -32.5t31.5 -13.5t32.5 13.5t13.5 32.5q0 20 -13 33t-33 13q-19 0 -31.5 -13t-12.5 -33zM964 449q24 0 40 -15.5t16 -39.5q0 -23 -16.5 -39.5 t-39.5 -16.5q-22 0 -38 16.5t-16 39.5t15.5 39t38.5 16zM792 394q0 -20 12 -33t30 -13t30.5 13.5t12.5 32.5t-12.5 32.5t-30.5 13.5t-30 -13t-12 -33zM887 394q0 -23 -14.5 -39.5t-37.5 -16.5q-33 0 -42 26v-59h-11v143h8l2 -25q12 26 43 26q22 0 37 -16t15 -39zM663 398h81 q0 16 -10.5 29t-27.5 13t-29.5 -12.5t-13.5 -29.5zM705 449q22 0 36 -16t14 -38l-1 -5h-91q1 -18 13.5 -30t31.5 -12q16 0 34 8l4 -8q-20 -10 -38 -10q-24 0 -40 16.5t-16 39.5t15.5 39t37.5 16zM529 394q0 -20 12 -33.5t31 -13.5q18 0 30 13.5t12 33.5q0 19 -12.5 32.5 t-29.5 13.5q-19 0 -31 -13t-12 -33zM613 492h10v-152h-8l-1 25q-13 -27 -43 -27q-23 0 -38 16.5t-15 39.5t15 39t38 16q29 0 42 -25v68zM368 402h59q-2 28 -27 28q-27 0 -32 -28zM398 450q23 0 36.5 -16t13.5 -39l-1 -10h-79q3 -28 34 -28q11 0 32 7l7 -16q-17 -10 -40 -10 q-24 0 -40 15.5t-16 39.5q0 25 15 41t38 16zM241 394q0 -16 9 -26t24 -10q14 0 23 10t9 26t-9 26t-23 10t-23.5 -10t-9.5 -26zM329 394q0 -24 -14 -40t-38 -16t-34 15v-48h-23v143h18l3 -16q11 18 36 18q23 0 37.5 -16t14.5 -40zM96 448h23l31 -84l30 84h24l-45 -113 q-13 -30 -33 -30q-10 0 -21 3l4 20q6 -2 12 -2q10 0 17 14zM42 479h18v-31h25v-17h-25v-56q0 -16 14 -16q2 0 6 0.5t7 0.5l4 -16q-12 -4 -20 -4q-33 0 -33 37v54h-15v14l15 3zM489 492v-192h-4v192h4z"/>
<glyph glyph-name="a.alt" d="M261 476q-68 0 -112.5 -62t-44.5 -154q0 -91 43.5 -153t112.5 -62q67 0 111.5 61t44.5 154q0 92 -43 154t-112 62zM250 529q58 0 104 -32.5t66 -86.5l10 110h46v-520h-60v97q-18 -44 -64 -75t-103 -31q-90 0 -148.5 77.5t-58.5 191.5t58.5 191.5t149.5 77.5z" horiz-adv-x="547"/>
<glyph glyph-name="g.alt" d="M259 93q69 0 111 54.5t42 135.5t-42 136.5t-111 55.5q-70 0 -112.5 -55.5t-42.5 -137.5q0 -81 42.5 -135t112.5 -54zM71 -123l19 46q75 -40 149 -40t120.5 43.5t46.5 130.5v76q-56 -95 -156 -95q-87 0 -146.5 67.5t-59.5 176.5q0 110 58.5 178.5t146.5 68.5q52 0 95 -25 t67 -71l10 87h46v-445q0 -122 -59.5 -183.5t-160.5 -61.5q-99 0 -176 47z" horiz-adv-x="538"/>
<glyph glyph-name="f_b" d="M553 476q-67 0 -111.5 -61.5t-44.5 -154.5t43.5 -154.5t111.5 -61.5t112.5 62t44.5 154t-43.5 154t-112.5 62zM385 0h-49v557q0 5 -0.5 14t-5.5 31.5t-14.5 40t-30 32t-48.5 14.5q-45 0 -71 -35t-26 -100v-34h105v-45h-105v-475h-60v475h-56v37l56 8v34q0 86 43.5 136 t112.5 50q67 0 113.5 -47.5t46.5 -135.5v-137q22 50 69.5 79.5t98.5 29.5q90 0 148.5 -77.5t58.5 -191.5t-58.5 -191.5t-149.5 -77.5q-58 0 -104 33t-66 83z" horiz-adv-x="813"/>
<glyph glyph-name="f_f_b" d="M786 476q-67 0 -111.5 -61.5t-44.5 -154.5t43.5 -154.5t111.5 -61.5t112.5 62t44.5 154t-43.5 154t-112.5 62zM618 0h-49v565q0 5 -0.5 14t-5.5 31.5t-14.5 40t-30 32t-48.5 14.5q-45 0 -71 -35t-26 -100v-42h105v-45h-105v-475h-60v475h-173v-475h-60v475h-56v37l56 8 v71q0 72 31.5 110.5t89.5 38.5q32 0 61 -8l-12 -48q-19 5 -39 5q-71 0 -71 -94v-75h173v42q0 86 43.5 136t112.5 50q67 0 113.5 -47.5t46.5 -135.5v-145q22 50 69.5 79.5t98.5 29.5q90 0 148.5 -77.5t58.5 -191.5t-58.5 -191.5t-149.5 -77.5q-58 0 -104 33t-66 83z" horiz-adv-x="1046"/>
<glyph glyph-name="f_h" d="M336 560q0 7 -1 18t-7 32t-15.5 37t-29.5 29t-46 13q-45 0 -71 -35t-26 -100v-34h105v-45h-105v-475h-60v475h-56v37l56 8v34q0 86 43.5 136t112.5 50q66 0 112.5 -47t47.5 -133v-127q14 34 53 65t102 31q77 0 120 -56t43 -164v-309h-60v310q0 78 -31 122t-89 44 q-66 0 -102 -57t-36 -125v-294h-60v560z" horiz-adv-x="779"/>
<glyph glyph-name="f_f_h" d="M569 568q0 7 -1 18t-7 32t-15.5 37t-29.5 29t-46 13q-45 0 -71 -35t-26 -100v-42h105v-45h-105v-475h-60v475h-173v-475h-60v475h-56v37l56 8v71q0 72 31.5 110.5t89.5 38.5q32 0 61 -8l-12 -48q-19 5 -39 5q-71 0 -71 -94v-75h173v42q0 86 43.5 136t112.5 50 q66 0 112.5 -47t47.5 -133v-135q14 34 53 65t102 31q77 0 120 -56t43 -164v-309h-60v310q0 78 -31 122t-89 44q-66 0 -102 -57t-36 -125v-294h-60v568z" horiz-adv-x="1013"/>
<glyph glyph-name="f_k" d="M396 0h-60v560q0 11 -2.5 26.5t-11 41.5t-30.5 43.5t-55 17.5q-45 0 -71 -35t-26 -100v-34h105v-45h-105v-475h-60v475h-56v37l56 8v34q0 86 43.5 136t112.5 50q66 0 113 -47t47 -133v-80l-1 -242l209 282h65l-176 -237l174 -283h-69l-142 236l-60 -79v-157z" horiz-adv-x="688"/>
<glyph glyph-name="f_f_k" d="M630 0h-60v568q0 11 -2.5 26.5t-11 41.5t-30.5 43.5t-55 17.5q-45 0 -71 -35t-26 -100v-42h105v-45h-105v-475h-60v475h-173v-475h-60v475h-56v37l56 8v71q0 72 31.5 110.5t89.5 38.5q32 0 61 -8l-12 -48q-19 5 -39 5q-71 0 -71 -94v-75h173v42q0 86 43.5 136t112.5 50 q66 0 113 -47t47 -133v-88l-1 -242l209 282h65l-176 -237l174 -283h-69l-142 236l-60 -79v-157z" horiz-adv-x="922"/>
<glyph glyph-name="dollar.tnum" d="M317 -91h-42v82q-93 5 -187 51l21 44q96 -43 185 -43q69 0 107.5 36t38.5 99q0 25 -9 45t-19.5 32t-35 25.5t-38 19t-45.5 17.5q-38 14 -59.5 23t-53 28t-48.5 38.5t-30 51t-13 70.5q0 82 48.5 129t137.5 52v88h42v-88q79 -3 166 -43l-20 -46q-81 36 -165 36 q-64 0 -103 -33t-39 -94q0 -33 11.5 -57t39.5 -42t46.5 -26t61.5 -24q31 -12 47.5 -19t43 -20.5t41.5 -27.5t31 -34t23 -45.5t7 -56.5q0 -83 -50 -131t-141 -55v-82z"/>
<glyph glyph-name="percent.tnum" d="M456 29q39 0 62.5 36.5t23.5 92.5q0 57 -24.5 94.5t-62.5 37.5q-39 0 -61.5 -36t-22.5 -94t23 -94.5t62 -36.5zM131 410q39 0 62 35.5t23 92.5q0 58 -24 95t-62 37t-61.5 -36.5t-23.5 -95.5q0 -55 24 -91.5t62 -36.5zM455 -9q-57 0 -91.5 47.5t-34.5 120.5t34.5 121.5 t91.5 48.5q56 0 92 -48.5t36 -120.5q0 -73 -35.5 -121t-92.5 -48zM103 0l328 700h50l-328 -700h-50zM129 372q-57 0 -91 47.5t-34 120.5t34 121t91 48t93 -48t36 -120q0 -74 -35.5 -121.5t-93.5 -47.5z"/>
<glyph glyph-name="plus.tnum" d="M270 515h43v-170h160v-44h-160v-170h-43v170h-158v44h158v170z"/>
<glyph glyph-name="hyphen.tnum" d="M125 346h335v-44h-335v44z"/>
<glyph glyph-name="zero.tnum" d="M294 45q83 0 131.5 85.5t48.5 219.5q0 133 -48.5 219t-132.5 86q-83 0 -132 -85.5t-49 -218.5q0 -135 49 -220.5t133 -85.5zM293 -9q-110 0 -177 102t-67 258q0 154 67 256t178 102q110 0 176.5 -101t66.5 -255q0 -157 -66.5 -259.5t-177.5 -102.5z"/>
<glyph glyph-name="one.tnum" d="M131 0v49h140v581l-118 -47l-20 41l153 76h45v-651h147v-49h-347z"/>
<glyph glyph-name="two.tnum" d="M123 613l-25 44q91 52 177 52q89 0 146.5 -55t57.5 -147q0 -130 -141 -265l-180 -189h343v-53h-418v52l221 231q116 118 116 220q0 68 -43 108t-113 40q-54 0 -141 -38z"/>
<glyph glyph-name="three.tnum" d="M131 631l-15 42q78 36 162 36q81 0 136 -46t55 -123q0 -60 -33.5 -104t-91.5 -59q69 -16 110 -64t41 -122q0 -90 -64.5 -145t-158.5 -55q-48 0 -96.5 14t-79.5 34l19 42q72 -36 146 -36q71 0 122.5 42.5t51.5 111.5q0 73 -54 114t-121 41h-51v45h61q53 0 96.5 36t43.5 97 q0 60 -42.5 91.5t-104.5 31.5q-58 0 -132 -24z"/>
<glyph glyph-name="four.tnum" d="M385 598l-259 -373h259v373zM392 700h53v-475h77v-47h-77v-178h-60v178h-326v45z"/>
<glyph glyph-name="five.tnum" d="M474 700v-53h-285l-27 -242q63 42 132 42q90 0 149.5 -60t59.5 -162q0 -108 -67.5 -171t-170.5 -63q-87 0 -178 51l22 41q66 -38 147 -38q83 0 135 49.5t52 132.5q0 79 -46.5 125t-112.5 46q-73 0 -131 -49l-41 24l35 327h327z"/>
<glyph glyph-name="six.tnum" d="M304 404q-67 0 -113 -51.5t-46 -129.5q0 -72 44.5 -125.5t113.5 -53.5q68 0 110 52.5t42 126.5q0 81 -42 131t-109 50zM488 666l-20 -45q-75 34 -134 34q-191 0 -197 -297v-12q24 51 71 79.5t105 28.5q85 0 142.5 -62.5t57.5 -167.5q0 -100 -57 -166.5t-153 -66.5 q-109 0 -165.5 90t-56.5 248q0 50 5.5 97t22 100.5t42.5 92t72.5 64.5t106.5 26q88 0 158 -43z"/>
<glyph glyph-name="seven.tnum" d="M95 700h417v-54l-275 -646h-60l276 647h-358v53z"/>
<glyph glyph-name="eight.tnum" d="M171 530q0 -57 33 -95t88 -38q56 0 89 38t33 95q0 60 -35.5 94.5t-86.5 34.5q-50 0 -85.5 -34.5t-35.5 -94.5zM445 196q0 66 -42.5 107t-110.5 41t-110 -41t-42 -107q0 -67 43.5 -109t108.5 -42q66 0 109.5 42t43.5 109zM113 536q0 79 53 126t126 47t126.5 -47t53.5 -126 q0 -57 -27.5 -101t-75.5 -60q55 -17 95 -65.5t40 -119.5q0 -90 -62.5 -144t-149.5 -55q-86 1 -148.5 55t-62.5 144q0 71 40 119.5t95 65.5q-48 16 -75.5 59.5t-27.5 101.5z" horiz-adv-x="587"/>
<glyph glyph-name="nine.tnum" d="M281 294q64 0 108.5 56t44.5 129q0 70 -42.5 123.5t-108.5 53.5q-65 0 -105.5 -52t-40.5 -126q0 -81 39.5 -132.5t104.5 -51.5zM103 34l21 46q72 -35 129 -35q85 0 136.5 70.5t53.5 224.5q0 5 -1 17q-21 -51 -65 -81.5t-104 -30.5q-87 0 -141 62.5t-54 168.5 q0 100 56 166.5t149 66.5q107 0 161 -90.5t54 -247.5q0 -50 -5 -96.5t-21 -100t-41 -92.5t-70 -65t-103 -26q-85 0 -155 43z"/>
<glyph glyph-name="equal.tnum" d="M133 271h319v-44h-319v44zM133 428h319v-44h-319v44z" horiz-adv-x="585"/>
<glyph glyph-name="cent.tnum" d="M332 -9h-30v82q-96 8 -153.5 83.5t-57.5 184.5t57.5 184.5t153.5 83.5v83h30v-82q61 -3 121 -35l-17 -45q-2 2 -15 7.5t-41 12.5t-55 7q-84 0 -129 -62t-45 -154t45 -154t129 -62q27 0 55 7t41 12.5t15 7.5l17 -45q-59 -34 -121 -35v-81z"/>
<glyph glyph-name="sterling.tnum" d="M468 631l-39 -30q-46 53 -102 53q-60 0 -91.5 -40t-31.5 -109v-152h218v-38h-218v-156q0 -41 -16 -68.5t-34 -38.5h336v-52h-405v52q6 3 15 9.5t24.5 33t15.5 61.5v159h-48v38h48v147q0 93 47.5 151t137.5 58q40 0 78 -20.5t65 -57.5z"/>
<glyph glyph-name="yen.tnum" d="M52 700h66l176 -356l175 356h66l-211 -413v-35h110v-32h-110v-58h110v-31h-110v-131h-59v131h-120v31h120v58h-120v32h120v35z"/>
<glyph glyph-name="multiply.tnum" d="M290 297l-112 -115l-25 26l111 115l-111 116l26 25l110 -114l111 114l27 -25l-112 -116l112 -115l-26 -26z" horiz-adv-x="581"/>
<glyph glyph-name="divide.tnum" d="M255 161q0 17 11 28.5t27 11.5q14 0 25.5 -12t11.5 -28t-11.5 -28t-25.5 -12q-16 0 -27 11.5t-11 28.5zM103 341h379v-44h-379v44zM255 478q0 18 11.5 29t26.5 11t27 -12t12 -28q0 -17 -12 -29t-27 -12q-16 0 -27 12t-11 29z" horiz-adv-x="585"/>
<glyph glyph-name="Euro.tnum" d="M8 395l11 33h71q23 128 107.5 204.5t204.5 76.5q102 -2 181 -49l-16 -45q-8 5 -21.5 12t-57 18.5t-87.5 11.5q-93 0 -158.5 -63t-84.5 -166h319l-11 -33h-314q-2 -30 -2 -45q0 -26 3 -48h281l-11 -32h-265q20 -102 87 -164.5t159 -62.5q77 0 166 40v-54q-74 -38 -168 -38 q-119 0 -204 76t-107 203h-78l11 32h62q-2 30 -2 48q0 15 2 45h-78z"/>
<glyph glyph-name="agrave.alt" d="M261 476q-68 0 -112.5 -62t-44.5 -154q0 -91 43.5 -153t112.5 -62q67 0 111.5 61t44.5 154q0 92 -43 154t-112 62zM250 529q58 0 104 -32.5t66 -86.5l10 110h46v-520h-60v97q-18 -44 -64 -75t-103 -31q-90 0 -148.5 77.5t-58.5 191.5t58.5 191.5t149.5 77.5zM207 711 l44 25l53 -153h-38z" horiz-adv-x="547"/>
<glyph glyph-name="acircumflex.alt" d="M261 476q-68 0 -112.5 -62t-44.5 -154q0 -91 43.5 -153t112.5 -62q67 0 111.5 61t44.5 154q0 92 -43 154t-112 62zM250 529q58 0 104 -32.5t66 -86.5l10 110h46v-520h-60v97q-18 -44 -64 -75t-103 -31q-90 0 -148.5 77.5t-58.5 191.5t58.5 191.5t149.5 77.5zM223 590h-42 l82 110h46l84 -110h-43l-63 74z" horiz-adv-x="547"/>
<glyph glyph-name="aacute.alt" d="M261 476q-68 0 -112.5 -62t-44.5 -154q0 -91 43.5 -153t112.5 -62q67 0 111.5 61t44.5 154q0 92 -43 154t-112 62zM250 529q58 0 104 -32.5t66 -86.5l10 110h46v-520h-60v97q-18 -44 -64 -75t-103 -31q-90 0 -148.5 77.5t-58.5 191.5t58.5 191.5t149.5 77.5zM274 736 l44 -25l-59 -128h-38z" horiz-adv-x="547"/>
<glyph glyph-name="adieresis.alt" d="M261 476q-68 0 -112.5 -62t-44.5 -154q0 -91 43.5 -153t112.5 -62q67 0 111.5 61t44.5 154q0 92 -43 154t-112 62zM250 529q58 0 104 -32.5t66 -86.5l10 110h46v-520h-60v97q-18 -44 -64 -75t-103 -31q-90 0 -148.5 77.5t-58.5 191.5t58.5 191.5t149.5 77.5zM325 622 q0 16 10 27t24 11q16 0 26 -10.5t10 -27.5q0 -15 -10 -25.5t-26 -10.5q-15 0 -24.5 10.5t-9.5 25.5zM154 622q0 16 10 27t24 11q16 0 26 -10.5t10 -27.5q0 -15 -10 -25.5t-26 -10.5q-15 0 -24.5 10.5t-9.5 25.5z" horiz-adv-x="547"/>
<glyph glyph-name="aring.alt" d="M261 476q-68 0 -112.5 -62t-44.5 -154q0 -91 43.5 -153t112.5 -62q67 0 111.5 61t44.5 154q0 92 -43 154t-112 62zM250 529q58 0 104 -32.5t66 -86.5l10 110h46v-520h-60v97q-18 -44 -64 -75t-103 -31q-90 0 -148.5 77.5t-58.5 191.5t58.5 191.5t149.5 77.5zM279 720 q-23 0 -35 -14t-12 -35t12 -34.5t35 -13.5t35 13.5t12 34.5t-12 35t-35 14zM279 592q-36 0 -60 22t-24 57t24 57.5t60 22.5t60 -22.5t24 -57.5t-24 -57t-60 -22z" horiz-adv-x="547"/>
<glyph glyph-name="aogonek.alt" d="M261 476q-68 0 -112.5 -62t-44.5 -154q0 -91 43.5 -153t112.5 -62q67 0 111.5 61t44.5 154q0 92 -43 154t-112 62zM392 -102q0 64 46 102h-22v97q-18 -44 -64 -75t-103 -31q-90 0 -148.5 77.5t-58.5 191.5t58.5 191.5t149.5 77.5q58 0 104 -32.5t66 -86.5l10 110h46v-520 q-23 -15 -34 -43t-11 -53q0 -50 40 -50l24 4l6 -21q-20 -13 -43 -13q-31 0 -48.5 20.5t-17.5 53.5z" horiz-adv-x="551"/>
<glyph glyph-name="amacron.alt" d="M261 476q-68 0 -112.5 -62t-44.5 -154q0 -91 43.5 -153t112.5 -62q67 0 111.5 61t44.5 154q0 92 -43 154t-112 62zM250 529q58 0 104 -32.5t66 -86.5l10 110h46v-520h-60v97q-18 -44 -64 -75t-103 -31q-90 0 -148.5 77.5t-58.5 191.5t58.5 191.5t149.5 77.5zM147 640h251 v-39h-251v39z" horiz-adv-x="547"/>
<glyph glyph-name="atilde.alt" d="M261 476q-68 0 -112.5 -62t-44.5 -154q0 -91 43.5 -153t112.5 -62q67 0 111.5 61t44.5 154q0 92 -43 154t-112 62zM250 529q58 0 104 -32.5t66 -86.5l10 110h46v-520h-60v97q-18 -44 -64 -75t-103 -31q-90 0 -148.5 77.5t-58.5 191.5t58.5 191.5t149.5 77.5zM168 605 l-18 12q12 26 33 42t44 16q22 0 55 -20.5t53 -20.5q24 0 49 33l17 -14q-31 -60 -77 -60q-23 0 -55.5 20.5t-52.5 20.5q-28 0 -48 -29z" horiz-adv-x="547"/>
<glyph glyph-name="abreve.alt" d="M261 476q-68 0 -112.5 -62t-44.5 -154q0 -91 43.5 -153t112.5 -62q67 0 111.5 61t44.5 154q0 92 -43 154t-112 62zM250 529q58 0 104 -32.5t66 -86.5l10 110h46v-520h-60v97q-18 -44 -64 -75t-103 -31q-90 0 -148.5 77.5t-58.5 191.5t58.5 191.5t149.5 77.5zM167 696h30 q6 -32 23 -48.5t53 -16.5q62 0 73 65h30q-6 -53 -31 -78.5t-72 -25.5q-51 0 -76 25.5t-30 78.5z" horiz-adv-x="547"/>
<glyph glyph-name="gbreve.alt" d="M259 93q69 0 111 54.5t42 135.5t-42 136.5t-111 55.5q-70 0 -112.5 -55.5t-42.5 -137.5q0 -81 42.5 -135t112.5 -54zM71 -123l19 46q75 -40 149 -40t120.5 43.5t46.5 130.5v76q-56 -95 -156 -95q-87 0 -146.5 67.5t-59.5 176.5q0 110 58.5 178.5t146.5 68.5q52 0 95 -25 t67 -71l10 87h46v-445q0 -122 -59.5 -183.5t-160.5 -61.5q-99 0 -176 47zM161 696h30q6 -32 23 -48.5t53 -16.5q62 0 73 65h30q-6 -53 -31 -78.5t-72 -25.5q-51 0 -76 25.5t-30 78.5z" horiz-adv-x="538"/>
<glyph glyph-name="gcircumflex.alt" d="M259 93q69 0 111 54.5t42 135.5t-42 136.5t-111 55.5q-70 0 -112.5 -55.5t-42.5 -137.5q0 -81 42.5 -135t112.5 -54zM71 -123l19 46q75 -40 149 -40t120.5 43.5t46.5 130.5v76q-56 -95 -156 -95q-87 0 -146.5 67.5t-59.5 176.5q0 110 58.5 178.5t146.5 68.5q52 0 95 -25 t67 -71l10 87h46v-445q0 -122 -59.5 -183.5t-160.5 -61.5q-99 0 -176 47zM201 590h-42l82 110h46l84 -110h-43l-63 74z" horiz-adv-x="538"/>
<glyph glyph-name="gcommaaccent.alt" d="M259 93q69 0 111 54.5t42 135.5t-42 136.5t-111 55.5q-70 0 -112.5 -55.5t-42.5 -137.5q0 -81 42.5 -135t112.5 -54zM71 -123l19 46q75 -40 149 -40t120.5 43.5t46.5 130.5v76q-56 -95 -156 -95q-87 0 -146.5 67.5t-59.5 176.5q0 110 58.5 178.5t146.5 68.5q52 0 95 -25 t67 -71l10 87h46v-445q0 -122 -59.5 -183.5t-160.5 -61.5q-99 0 -176 47zM259 589q-41 0 -41 57t61 92l10 -16q-41 -29 -41 -65q0 -8 3 -17q5 9 18 9q12 0 18.5 -8t6.5 -20q0 -15 -10.5 -23.5t-24.5 -8.5z" horiz-adv-x="538"/>
<glyph glyph-name="gdotaccent.alt" d="M259 93q69 0 111 54.5t42 135.5t-42 136.5t-111 55.5q-70 0 -112.5 -55.5t-42.5 -137.5q0 -81 42.5 -135t112.5 -54zM71 -123l19 46q75 -40 149 -40t120.5 43.5t46.5 130.5v76q-56 -95 -156 -95q-87 0 -146.5 67.5t-59.5 176.5q0 110 58.5 178.5t146.5 68.5q52 0 95 -25 t67 -71l10 87h46v-445q0 -122 -59.5 -183.5t-160.5 -61.5q-99 0 -176 47zM229 622q0 16 10 27t24 11q16 0 26 -10.5t10 -27.5q0 -15 -10 -25.5t-26 -10.5q-15 0 -24.5 10.5t-9.5 25.5z" horiz-adv-x="538"/>
<glyph glyph-name="J.alt" d="M24 -140l-20 43q21 12 40.5 27t40.5 49.5t21 74.5v588l-60 12v46h122v-617q0 -70 -32 -128q-38 -64 -112 -95z" horiz-adv-x="254"/>
<glyph glyph-name="Jcircumflex.alt" d="M24 -140l-20 43q21 12 40.5 27t40.5 49.5t21 74.5v588l-60 12v46h122v-617q0 -70 -32 -128q-38 -64 -112 -95zM61 749h-50l83 112h46l83 -112h-50l-56 81z" horiz-adv-x="253"/>
<glyph glyph-name="j.alt" d="M100 701q19 0 31.5 -12.5t12.5 -30.5q0 -20 -12 -32t-32 -12t-32 12t-12 31t12 31.5t32 12.5zM37 520h103v-501q0 -143 -102 -189l-20 39q62 36 62 127v474l-43 10v40z" horiz-adv-x="211"/>
<glyph glyph-name="jcircumflex.alt" d="M35 583h-50l83 112h46l83 -112h-50l-56 81zM37 520h103v-501q0 -143 -102 -189l-20 39q62 36 62 127v474l-43 10v40z" horiz-adv-x="211"/>
</font>
</defs>
</svg>
