<?xml version="1.0" encoding="UTF-8" standalone="no"?>
<!DOCTYPE svg  PUBLIC '-//W3C//DTD SVG 1.1//EN'  'http://www.w3.org/Graphics/SVG/1.1/DTD/svg11.dtd'>
<svg xmlns="http://www.w3.org/2000/svg">
<defs>
<font id="CentraleSansCndMedium-Regular" horiz-adv-x="544">
<font-face underline-position="-50" font-weight="500" descent="-200" panose-1="2 0 0 0 0 0 0 0 0 0" units-per-em="1000" unicode-range="U+000D-FB04" bbox="-42 -269 1100 935" x-height="520" underline-thickness="50" font-family="CentraleSansCndMedium" ascent="800" cap-height="700"/>
<missing-glyph d="M128 566v-525l110 260zM419 576l-115 -275l115 -275v550zM143 669l127 -299l127 299h-254zM70 732h410v-853h-410v853zM397 -59l-124 292l-128 -292h252z" horiz-adv-x="548"/>
<glyph glyph-name="f_f" horiz-adv-x="545" unicode="ff" d="M278 733l-15 -82q-18 4 -32 4q-52 0 -52 -81v-54h145v63q0 84 31.5 126.5t107.5 42.5q41 0 73 -10l-12 -83q-26 4 -44 4q-53 0 -53 -81v-62h102v-76h-102v-444h-103v444h-145v-444h-103v444h-59v65l59 11v53q0 85 31 127t107 42q32 0 64 -9z"/>
<glyph glyph-name="f_i" horiz-adv-x="499" unicode="fi" d="M400 698l-41 -70q-40 27 -89 27q-90 0 -90 -102v-33h258v-520h-103v444h-155v-444h-103v444h-59v65l59 11v44q0 83 51.5 130.5t129.5 47.5q76 0 142 -44z"/>
<glyph glyph-name="f_l" horiz-adv-x="518" unicode="fl" d="M335 547q0 55 -21.5 81.5t-56.5 26.5t-56.5 -26.5t-21.5 -81.5v-27h86v-76h-86v-444h-103v444h-59v65l59 11v27q0 93 50 144t131 51t130.5 -50.5t50.5 -144.5v-433q0 -35 27 -35l30 4v-82q-42 -11 -74 -11q-86 0 -86 113v444z"/>
<glyph glyph-name="f_f_i" horiz-adv-x="740" unicode="ffi" d="M279 733l-15 -82q-18 4 -32 4q-52 0 -52 -81v-54h145v56q0 81 50.5 128.5t125.5 47.5q80 0 144 -41l-33 -72q-42 24 -98 24q-46 0 -66 -29t-20 -71v-43h251v-520h-103v444h-148v-444h-103v444h-145v-444h-103v444h-59v65l59 11v53q0 85 31 127t107 42q32 0 64 -9z"/>
<glyph glyph-name="f_f_l" horiz-adv-x="769" unicode="ffl" d="M584 559q0 104 -78 104t-78 -104v-39h86v-76h-86v-444h-103v444h-145v-444h-103v444h-59v65l59 11v53q0 85 31 127t107 42q32 0 64 -9l-15 -82q-18 4 -32 4q-52 0 -52 -81v-54h145v35q0 93 50 144t131 51t130.5 -50.5t50.5 -144.5v-441q0 -35 27 -35l30 4v-82 q-42 -11 -74 -11q-86 0 -86 113v456z"/>
<glyph glyph-name=".notdef" d="M128 566v-525l110 260zM419 576l-115 -275l115 -275v550zM143 669l127 -299l127 299h-254zM70 732h410v-853h-410v853zM397 -59l-124 292l-128 -292h252z" horiz-adv-x="548"/>
<glyph glyph-name=".null" horiz-adv-x="0"/>
<glyph glyph-name=".null" horiz-adv-x="0"/>
<glyph glyph-name="nonmarkingreturn" horiz-adv-x="333"/>
<glyph glyph-name="CR" horiz-adv-x="256" unicode=""/>
<glyph glyph-name="space" horiz-adv-x="225" unicode=" "/>
<glyph glyph-name="exclam" horiz-adv-x="252" unicode="!" d="M67 53q0 25 17.5 42.5t41.5 17.5t41 -17.5t17 -42.5q0 -26 -17 -44t-41 -18t-41.5 18.5t-17.5 43.5zM63 700h126l-21 -493h-84z"/>
<glyph glyph-name="quotedbl" horiz-adv-x="376" unicode='&quot;' d="M66 700h111l-46 -273h-65v273zM221 700h112l-48 -273h-65z"/>
<glyph glyph-name="numbersign" horiz-adv-x="672" unicode="#" d="M274 446l-29 -199h153l29 199h-153zM224 700h89l-25 -165h153l25 165h89l-25 -165h103l-13 -89h-103l-30 -199h103l-13 -89h-104l-23 -158h-89l24 158h-153l-24 -158h-89l24 158h-105l13 89h105l29 199h-104l13 89h105z"/>
<glyph glyph-name="dollar" horiz-adv-x="502" unicode="$" d="M288 -98h-68v89q-94 7 -171 44l34 87q85 -37 156 -37q55 0 86 25.5t31 71.5q0 33 -17 56.5t-44.5 38t-60 27.5t-65.5 29t-60.5 37.5t-44.5 58t-17 86.5q0 86 47 135t126 58v92h68v-92q89 -7 155 -41l-32 -86q-9 5 -26.5 12t-50.5 14.5t-63 7.5q-58 0 -88 -26t-30 -70 q0 -37 23 -63.5t57 -40t74.5 -32.5t74.5 -39.5t57 -62t23 -98.5q0 -81 -44.5 -130t-129.5 -62v-89z"/>
<glyph glyph-name="percent" horiz-adv-x="706" unicode="%" d="M541 69q22 0 36 24t14 65q0 42 -14 66t-36 24q-23 0 -36.5 -23.5t-13.5 -65.5q0 -90 50 -90zM167 451q23 0 36.5 24t13.5 66t-14 65.5t-36 23.5t-36 -24t-14 -65q0 -44 13.5 -67t36.5 -23zM541 -10q-63 0 -102.5 46.5t-39.5 120.5t40.5 122.5t103.5 48.5q61 0 100.5 -48 t39.5 -122q0 -72 -40.5 -120t-101.5 -48zM129 0l342 700h106q-60 -126 -176.5 -365.5t-162.5 -334.5h-109zM165 373q-62 0 -101 47t-39 119q0 75 40 123t104 48q62 0 101 -47t39 -121t-40 -121.5t-104 -47.5z"/>
<glyph glyph-name="ampersand" horiz-adv-x="572" unicode="&amp;" d="M246 627q-30 0 -47 -19t-17 -50q0 -18 7.5 -36.5t16.5 -33t30 -42.5q73 51 73 111q0 33 -16.5 51.5t-46.5 18.5zM362 127l-151 204q-84 -50 -84 -128q0 -56 35 -88.5t89 -32.5q74 0 111 45zM244 710q63 0 107 -41.5t44 -108.5q0 -100 -112 -179l134 -183q6 7 15 42t9 74 h84q0 -121 -52 -196l87 -118h-109l-40 55q-64 -65 -164 -65q-92 0 -152.5 54t-60.5 148q0 68 33 117t94 91q-4 7 -18.5 27.5t-20 29.5t-14 26t-11.5 33t-3 34q0 64 40.5 112t109.5 48z"/>
<glyph glyph-name="quotesingle" horiz-adv-x="224" unicode="&apos;" d="M66 700h113l-47 -272h-64z"/>
<glyph glyph-name="parenleft" horiz-adv-x="316" unicode="(" d="M289 -71l-47 -63q-33 27 -65 64t-65 90.5t-53.5 124.5t-20.5 148q0 74 20.5 143t53.5 121.5t65 89t65 63.5l47 -63q-28 -29 -48.5 -55.5t-44 -70.5t-36.5 -103t-13 -130q0 -70 13 -129.5t37 -103.5t44 -70t48 -56z"/>
<glyph glyph-name="parenright" horiz-adv-x="316" unicode=")" d="M74 -134l-47 63q28 29 47.5 55.5t44 70t37.5 102.5t13 128v7q0 70 -13 128.5t-37.5 102.5t-43.5 69t-48 55l47 63q33 -27 65 -63.5t65 -89t53 -121.5t20 -143q0 -77 -20 -148t-53 -124.5t-65 -90.5t-65 -64z"/>
<glyph glyph-name="asterisk" horiz-adv-x="374" unicode="*" d="M51 539l96 52l-96 51l33 58l83 -75l-12 127h63l-12 -126l83 74l34 -58l-97 -51l97 -52l-34 -58l-83 75l12 -125h-63l12 125l-83 -75z"/>
<glyph glyph-name="plus" horiz-adv-x="429" unicode="+" d="M179 529h71v-159h132v-73h-132v-160h-71v160h-132v73h132v159z"/>
<glyph glyph-name="comma" horiz-adv-x="232" unicode="," d="M112 96q31 0 49 -27t18 -63q0 -90 -94 -142l-20 34q57 45 56 102q-6 -10 -19 -10q-20 0 -32.5 13.5t-12.5 36.5q0 24 16 40t39 16z"/>
<glyph glyph-name="hyphen" horiz-adv-x="430" unicode="-" d="M59 372h312v-72h-312v72z"/>
<glyph glyph-name="period" horiz-adv-x="214" unicode="." d="M55 44q0 23 15 39t36 16q22 0 37.5 -16t15.5 -39q0 -24 -15.5 -39t-37.5 -15t-36.5 15t-14.5 39z"/>
<glyph glyph-name="slash" horiz-adv-x="423" unicode="/" d="M309 734h86l-282 -770h-85z"/>
<glyph glyph-name="zero" horiz-adv-x="603" unicode="0" d="M302 83q68 0 106.5 71t38.5 195t-39.5 196t-106.5 72q-68 0 -107 -71.5t-39 -194.5q0 -126 39 -197t108 -71zM301 -10q-114 0 -184.5 99.5t-70.5 260.5q0 160 71 260t185 100q113 0 183.5 -99.5t70.5 -258.5q0 -161 -70.5 -261.5t-184.5 -100.5z"/>
<glyph glyph-name="one" horiz-adv-x="322" unicode="1" d="M19 608l146 92h78v-700h-102v580l-90 -44z"/>
<glyph glyph-name="two" horiz-adv-x="500" unicode="2" d="M83 583l-38 72q101 55 191 55q87 0 144.5 -58.5t57.5 -153.5q0 -73 -34.5 -132.5t-102.5 -131.5l-140 -147h297v-87h-412v88l202 217q92 104 92 187q0 55 -34 90t-95 35q-45 0 -128 -34z"/>
<glyph glyph-name="three" horiz-adv-x="483" unicode="3" d="M82 592l-26 77q85 41 169 41q86 0 138 -51.5t52 -130.5q0 -112 -106 -159q130 -44 130 -172q0 -93 -61.5 -150t-159.5 -57q-99 0 -178 53l33 75q70 -35 132 -35q58 0 95.5 33.5t37.5 92.5q0 65 -43 94.5t-102 29.5h-41v78h47q50 0 84.5 25.5t34.5 76.5q0 47 -31 75.5 t-83 28.5q-57 0 -122 -25z"/>
<glyph glyph-name="four" horiz-adv-x="523" unicode="4" d="M314 540l-191 -299h191v299zM326 700h91v-459h69v-77h-69v-164h-103v164h-287v74z"/>
<glyph glyph-name="five" horiz-adv-x="494" unicode="5" d="M432 700v-92h-262l-19 -186q43 34 106 34q86 0 141 -62.5t55 -162.5q0 -109 -65.5 -175t-169.5 -66q-96 0 -178 53l33 75q66 -35 133 -35q71 0 108.5 41t37.5 107q0 63 -32 105t-90 42q-50 0 -96 -42l-69 37l34 327h333z"/>
<glyph glyph-name="six" horiz-adv-x="530" unicode="6" d="M273 371q-55 0 -87.5 -43t-32.5 -104q0 -62 33.5 -106t87.5 -44t87 43t33 106q0 62 -33 105t-88 43zM466 658l-36 -73q-68 37 -127 37q-78 0 -122 -69t-44 -180v-21q18 50 62.5 77t96.5 27q79 0 136 -61.5t57 -165.5t-59 -171.5t-154 -67.5q-112 0 -170.5 95t-58.5 243 q0 50 6.5 98.5t24 101t44.5 92t72 65t102 25.5q100 0 170 -52z"/>
<glyph glyph-name="seven" horiz-adv-x="455" unicode="7" d="M36 700h397v-93l-239 -607h-105l239 608h-292v92z"/>
<glyph glyph-name="eight" horiz-adv-x="511" unicode="8" d="M255 624q-43 0 -70.5 -29.5t-27.5 -78.5q0 -48 26 -79t72 -31t72 31t26 79q0 49 -27.5 78.5t-70.5 29.5zM137 196q0 -58 34.5 -90t83.5 -32t83.5 32t34.5 90q0 55 -32.5 88t-85.5 33q-54 0 -86 -33t-32 -88zM255 710q81 0 137.5 -50t56.5 -134q0 -59 -30.5 -100 t-75.5 -56q55 -16 93.5 -61t38.5 -116q0 -92 -64.5 -147.5t-154.5 -55.5t-155.5 55t-65.5 149q0 69 38.5 114.5t93.5 61.5q-45 15 -75.5 55.5t-30.5 99.5q0 85 56.5 135t137.5 50z"/>
<glyph glyph-name="nine" horiz-adv-x="532" unicode="9" d="M256 329q55 0 87.5 42t32.5 105t-33 106.5t-88 43.5q-54 0 -87 -42.5t-33 -106.5q0 -65 32.5 -106.5t88.5 -41.5zM63 42l36 73q68 -37 127 -37q78 0 122 67t44 178v21q-18 -50 -62.5 -76t-96.5 -26q-78 0 -135.5 62.5t-57.5 166.5t59 171.5t154 67.5q112 0 170.5 -95 t58.5 -243q0 -50 -6.5 -98.5t-24 -101t-44.5 -92t-72 -65t-102 -25.5q-100 0 -170 52z"/>
<glyph glyph-name="colon" horiz-adv-x="222" unicode=":" d="M59 49q0 23 15 39t36 16q22 0 37.5 -16t15.5 -39q0 -24 -15 -39t-38 -15q-22 0 -36.5 15t-14.5 39zM59 402q0 23 15 38.5t36 15.5q23 0 38 -15.5t15 -38.5q0 -24 -15 -39.5t-38 -15.5q-22 0 -36.5 15t-14.5 40z"/>
<glyph glyph-name="semicolon" horiz-adv-x="245" unicode=";" d="M115 100q32 0 50.5 -26.5t18.5 -63.5q0 -89 -93 -141l-20 33q55 40 55 102q-3 -9 -18 -9q-21 0 -33 13t-12 36q0 24 15 40t37 16zM69 402q0 23 15 38.5t36 15.5q22 0 37 -15.5t15 -38.5q0 -24 -15 -39.5t-37 -15.5t-36.5 15t-14.5 40z"/>
<glyph glyph-name="less" horiz-adv-x="364" unicode="&lt;" d="M297 517v-79l-161 -99q120 -75 163 -101v-81l-257 153v58z"/>
<glyph glyph-name="equal" horiz-adv-x="424" unicode="=" d="M62 290h299v-73h-299v73zM62 451h299v-73h-299v73z"/>
<glyph glyph-name="greater" horiz-adv-x="363" unicode="&gt;" d="M67 438v79l254 -149v-58l-256 -153v81l162 101z"/>
<glyph glyph-name="question" horiz-adv-x="421" unicode="?" d="M248 52q0 -25 -17.5 -43.5t-41.5 -18.5t-41 18t-17 44q0 25 17 42.5t41 17.5t41.5 -17.5t17.5 -42.5zM199 710q76 0 130 -46t54 -125q0 -41 -16 -75.5t-38.5 -57.5t-45 -44t-38.5 -45.5t-16 -51.5v-59h-86v52q0 31 10 63q9 29 32.5 56.5t45.5 44.5t39 44t17 59 q0 45 -29 69t-68 24q-59 0 -116 -41l-38 74q74 59 163 59z"/>
<glyph glyph-name="at" horiz-adv-x="776" unicode="@" d="M380 149q38 0 64.5 27t26.5 71v43q-35 7 -75 7q-36 0 -62.5 -17t-26.5 -56q0 -34 20 -54.5t53 -20.5zM594 89q-45 0 -74.5 20.5t-34.5 53.5q-7 -31 -37 -52.5t-76 -21.5q-57 0 -93 34.5t-36 93.5q0 64 40.5 96t105.5 32q39 0 82 -8v35q0 48 -20 65.5t-58 17.5 q-49 0 -102 -16l-14 54q62 22 132 22q66 0 97 -34t31 -104v-177q0 -28 15.5 -42t40.5 -14q80 0 80 157q0 169 -75 253.5t-196 84.5q-134 0 -212.5 -98.5t-78.5 -247.5q0 -142 72 -237.5t203 -95.5q65 0 122 26l24 -56q-73 -38 -150 -38q-155 0 -246.5 115t-91.5 287 q0 179 98 297.5t259 118.5q152 0 245 -108.5t93 -288.5q0 -106 -35.5 -165t-109.5 -59z"/>
<glyph glyph-name="A" horiz-adv-x="569" unicode="A" d="M283 596l-87 -323h175l-87 323h-1zM218 705h137l202 -705h-113l-51 181h-220l-50 -181h-108z"/>
<glyph glyph-name="B" horiz-adv-x="572" unicode="B" d="M182 603v-205h119q45 0 72 29t27 76q0 42 -23.5 71t-74.5 29h-120zM182 97h144q46 0 73.5 29.5t27.5 77.5q0 46 -28 74.5t-88 28.5h-129v-210zM76 700h237q84 0 137.5 -52.5t53.5 -135.5q0 -63 -30 -102t-66 -51q48 -11 87 -54t39 -116q0 -83 -51.5 -136t-127.5 -53h-279 v700z"/>
<glyph glyph-name="C" horiz-adv-x="572" unicode="C" d="M363 710q103 0 178 -55l-39 -82q-67 40 -136 40q-94 0 -155 -75t-61 -188t61 -188t154 -75q32 0 65.5 9.5t50 18t21.5 12.5l39 -84q-75 -53 -179 -53q-139 0 -231 98.5t-92 261.5q0 162 92 261t232 99z"/>
<glyph glyph-name="D" horiz-adv-x="608" unicode="D" d="M182 603v-506h89q59 0 102 30q85 59 85 223t-85 224q-41 29 -102 29h-89zM291 0h-215v700h215q81 0 143 -43q65 -46 98.5 -129.5t33.5 -180.5t-34.5 -179t-97.5 -125q-62 -43 -143 -43z"/>
<glyph glyph-name="E" horiz-adv-x="548" unicode="E" d="M76 700h422v-97h-316v-215h273v-93h-273v-198h324v-97h-430v700z"/>
<glyph glyph-name="F" horiz-adv-x="522" unicode="F" d="M76 700h422v-97h-316v-221h273v-94h-273v-288h-106v700z"/>
<glyph glyph-name="G" horiz-adv-x="632" unicode="G" d="M363 710q109 0 196 -58l-40 -83q-21 14 -63.5 29t-88.5 15q-100 0 -158.5 -76t-58.5 -187q0 -112 60.5 -187.5t155.5 -75.5q68 0 118 51v147h-147v86h249v-269q-90 -112 -230 -112q-134 0 -225.5 100.5t-91.5 259.5t92.5 259.5t231.5 100.5z"/>
<glyph glyph-name="H" horiz-adv-x="645" unicode="H" d="M76 700h106v-301h280v301h106v-700h-106v293h-280v-293h-106v700z"/>
<glyph glyph-name="I" horiz-adv-x="259" unicode="I" d="M76 700h107v-700h-107v700z"/>
<glyph glyph-name="J" horiz-adv-x="450" unicode="J" d="M191 -10q-39 0 -71.5 10.5t-55.5 30t-35 33.5t-26 34l67 60q16 -21 27 -32.5t35 -25t52 -13.5q46 0 68 30.5t22 78.5v504h106v-478q0 -110 -48.5 -171t-140.5 -61z"/>
<glyph glyph-name="K" horiz-adv-x="567" unicode="K" d="M76 0v700h107l-2 -350l2 -1l245 351h122l-220 -314l231 -386h-124l-179 309l-75 -101v-208h-107z"/>
<glyph glyph-name="L" horiz-adv-x="486" unicode="L" d="M76 700h106v-603h290v-97h-396v700z"/>
<glyph glyph-name="M" horiz-adv-x="799" unicode="M" d="M578 700h145v-700h-106v276l9 283h-2l-170 -514h-108l-170 514h-2l8 -283v-276h-106v700h146l177 -531h2z"/>
<glyph glyph-name="N" horiz-adv-x="633" unicode="N" d="M76 700h112l267 -518h2l-6 293v225h106v-700h-112l-267 524h-2l6 -246v-278h-106v700z"/>
<glyph glyph-name="O" horiz-adv-x="695" unicode="O" d="M150 350q0 -117 53 -190t145 -73q93 0 145.5 73t52.5 190q0 114 -54 188.5t-144 74.5q-89 0 -143.5 -74.5t-54.5 -188.5zM40 351q0 158 84 258.5t224 100.5t224 -100.5t84 -258.5q0 -157 -82 -259t-226 -102t-226 102t-82 259z"/>
<glyph glyph-name="P" horiz-adv-x="553" unicode="P" d="M182 603v-242h123q56 0 88.5 33.5t32.5 87.5q0 52 -32.5 86.5t-86.5 34.5h-125zM76 700h249q89 0 147 -62.5t58 -155.5t-57.5 -155t-145.5 -62h-145v-265h-106v700z"/>
<glyph glyph-name="Q" horiz-adv-x="695" unicode="Q" d="M149 350q0 -115 54 -189t145 -74q92 0 144.5 74t52.5 188q0 116 -53.5 190t-143.5 74t-144.5 -74t-54.5 -189zM475 19v-3q65 -41 173 -63l-24 -89q-74 18 -141.5 54.5t-111.5 72.5q-13 -1 -28 -1q-138 0 -221 103t-83 259q0 157 84.5 257.5t224.5 100.5t223.5 -100 t83.5 -256q0 -119 -49 -208t-131 -127z"/>
<glyph glyph-name="R" horiz-adv-x="581" unicode="R" d="M184 603v-223h135q49 0 81 31t32 81q0 48 -31.5 79.5t-81.5 31.5h-135zM78 700h251q93 0 150 -57.5t57 -150.5q0 -143 -125 -193l146 -299h-116l-134 284h-123v-284h-106v700z"/>
<glyph glyph-name="S" horiz-adv-x="505" unicode="S" d="M247 -10q-104 0 -208 52l34 85q1 -1 10 -5t16 -7t19 -8t24.5 -8.5t27 -6.5t31 -5t33.5 -2q67 0 100 28t33 70q0 30 -17.5 52t-46 37t-62.5 28.5t-68 30.5t-62.5 39.5t-46 60.5t-17.5 87q0 94 60 143t156 49q94 0 190 -46l-32 -84q-1 0 -8 3t-16 7t-23 8.5t-29 8t-33.5 6 t-36.5 2.5q-60 0 -92 -26t-32 -67q0 -30 17.5 -52t46 -36t62.5 -27.5t68 -31t62.5 -40.5t46 -61t17.5 -89q0 -100 -63 -147.5t-161 -47.5z"/>
<glyph glyph-name="T" horiz-adv-x="504" unicode="T" d="M11 700h483v-94h-187v-606h-107v606h-189v94z"/>
<glyph glyph-name="U" horiz-adv-x="614" unicode="U" d="M70 700h106v-467q0 -66 36 -106t96 -40t95.5 40t35.5 106v467h106v-463q0 -110 -63.5 -178.5t-173.5 -68.5q-114 0 -176 70t-62 177v463z"/>
<glyph glyph-name="V" horiz-adv-x="569" unicode="V" d="M13 700h113l160 -570h1l159 570h110l-206 -700h-130z"/>
<glyph glyph-name="W" horiz-adv-x="872" unicode="W" d="M376 700h125l120 -559l122 559h109l-164 -703h-134l-117 542l-115 -542h-135l-167 703h114l122 -559z"/>
<glyph glyph-name="X" horiz-adv-x="582" unicode="X" d="M573 0h-124l-159 267h-1l-157 -267h-115l214 350l-222 350h121l165 -265h1l155 265h114l-213 -349z"/>
<glyph glyph-name="Y" horiz-adv-x="532" unicode="Y" d="M419 700h107l-210 -417v-283h-103v283l-210 417h113l151 -314h1z"/>
<glyph glyph-name="Z" horiz-adv-x="528" unicode="Z" d="M43 700h451v-73l-323 -531l1 -2l129 3h190v-97h-462v74l322 529l-1 2l-126 -2h-181v97z"/>
<glyph glyph-name="bracketleft" horiz-adv-x="274" unicode="[" d="M235 710v-81h-80v-729h80v-80h-165v890h165z"/>
<glyph glyph-name="backslash" horiz-adv-x="424" unicode="\" d="M311 -36l-282 770h85l282 -770h-85z"/>
<glyph glyph-name="bracketright" horiz-adv-x="275" unicode="]" d="M39 629v81h165v-890h-165v80h80v729h-80z"/>
<glyph glyph-name="underscore" horiz-adv-x="505" unicode="_" d="M59 -68h388v-74h-388v74z"/>
<glyph glyph-name="grave" horiz-adv-x="284" unicode="`" d="M79 714l72 36l61 -175h-66z"/>
<glyph glyph-name="a" horiz-adv-x="494" unicode="a" d="M320 197v40q-39 7 -79 7q-114 0 -114 -84q0 -41 23.5 -62.5t60.5 -21.5q49 0 79 32.5t30 88.5zM88 419l-19 81q94 30 173 30q181 0 181 -170v-254q0 -24 24 -24q7 0 21 2v-75q-26 -13 -63 -13q-31 0 -53.5 16t-22.5 54q-12 -28 -45 -52t-95 -24q-73 0 -118.5 42 t-45.5 118q0 85 54.5 127.5t141.5 42.5q40 0 99 -7v31q0 58 -23.5 77.5t-70.5 19.5q-70 0 -138 -22z"/>
<glyph glyph-name="b" horiz-adv-x="551" unicode="b" d="M290 439q-55 0 -88.5 -51t-33.5 -129q0 -77 33 -127t89 -50q55 0 87.5 50t32.5 127t-32.5 128.5t-87.5 51.5zM62 732h103v-296q23 48 63 71t86 23q91 0 146.5 -80t55.5 -192t-57 -190t-150 -78q-54 0 -93 27t-56 73l-10 -90h-88v732z"/>
<glyph glyph-name="c" horiz-adv-x="439" unicode="c" d="M274 -10q-105 0 -172.5 76.5t-67.5 194.5q0 115 68 192t172 77q78 0 137 -38l-32 -77q-39 23 -85 23q-74 0 -114 -52t-40 -126q0 -73 40 -125.5t114 -52.5q50 0 85 23l32 -77q-63 -38 -137 -38z"/>
<glyph glyph-name="d" horiz-adv-x="549" unicode="d" d="M261 438q-56 0 -88 -50.5t-32 -128.5q0 -77 32 -127t87 -50q56 0 89.5 50t33.5 128q0 77 -34 127.5t-88 50.5zM385 732h103v-732h-88l-10 91q-17 -46 -56 -73.5t-93 -27.5q-93 0 -149.5 77.5t-56.5 191.5q0 113 55 192t151 79q41 0 82 -24t62 -70v296z"/>
<glyph glyph-name="e" horiz-adv-x="491" unicode="e" d="M141 298h221v6q0 54 -28 96t-78 42q-47 0 -79 -39.5t-36 -104.5zM34 261q0 116 61 192.5t159 76.5q94 0 149.5 -70t55.5 -175q0 -38 -4 -61h-313q4 -66 44 -104t103 -38q57 0 121 31l27 -81q-76 -42 -166 -42q-106 0 -171.5 76t-65.5 195z"/>
<glyph glyph-name="f" horiz-adv-x="299" unicode="f" d="M297 734l-16 -82q-9 3 -38 3q-60 0 -60 -84v-51h101v-76h-101v-444h-103v444h-59v65l59 11v38q0 92 29.5 138t108.5 46q45 0 79 -8z"/>
<glyph glyph-name="g" horiz-adv-x="465" unicode="g" d="M271 29h-42q-50 0 -77 8q-25 -21 -25 -60q0 -21 10 -34.5t28.5 -18.5t32.5 -6.5t34 -1.5q108 0 108 61q0 52 -69 52zM230 449q-37 0 -60 -25t-23 -70v-1q0 -49 22 -76t61 -27t61 27t22 76v1q0 45 -23 70t-60 25zM49 353q0 76 49 126.5t132 50.5q19 0 76 -10h132v-73 l-63 -6q36 -31 36 -98q0 -70 -50.5 -119t-130.5 -49q-46 0 -81 20q-23 -17 -23 -43q0 -19 14 -29.5t29.5 -12.5t40.5 -2h24h39q85 0 120.5 -37.5t35.5 -95.5q0 -145 -192 -145q-24 0 -46 2t-51.5 10.5t-50.5 22t-36 39.5t-15 60q0 59 52 100q-44 25 -44 79q0 59 48 90 q-45 47 -45 120z"/>
<glyph glyph-name="h" horiz-adv-x="518" unicode="h" d="M165 0h-103v732h103v-287q12 29 47 57t93 28q68 0 112.5 -52.5t44.5 -162.5v-315h-103v320q0 57 -24.5 87.5t-64.5 30.5q-50 0 -77.5 -37t-27.5 -92v-309z"/>
<glyph glyph-name="i" horiz-adv-x="241" unicode="i" d="M32 520h148v-520h-103v436l-45 11v73zM120 597q-27 0 -44.5 19t-17.5 46t17.5 46t44.5 19t44.5 -19t17.5 -46t-17.5 -46t-44.5 -19z"/>
<glyph glyph-name="j" horiz-adv-x="244" unicode="j" d="M124 721q24 0 41.5 -18t17.5 -43t-17.5 -43t-41.5 -18q-25 0 -42 17.5t-17 43.5q0 25 17 43t42 18zM39 -84q20 0 31 15t11 56v449l-45 11v73h148v-514q0 -176 -129 -176q-39 0 -72 14l16 77q20 -5 40 -5z"/>
<glyph glyph-name="k" horiz-adv-x="454" unicode="k" d="M62 732h103v-449l170 237h108l-172 -237l167 -283h-106l-119 207l-48 -62v-145h-103v732z"/>
<glyph glyph-name="l" horiz-adv-x="251" unicode="l" d="M66 732h103v-618q0 -35 27 -35l30 4v-82q-42 -11 -74 -11q-86 0 -86 113v629z"/>
<glyph glyph-name="m" horiz-adv-x="777" unicode="m" d="M62 520h82l16 -80q15 38 49 64t81 26q44 0 77.5 -25.5t46.5 -73.5q15 39 53 69t93 30q72 0 116 -50t44 -150v-330h-103v334q0 46 -21.5 75t-63.5 29q-43 0 -65.5 -33t-22.5 -83v-322h-103v337q0 44 -22.5 72.5t-62.5 28.5q-44 0 -67.5 -33.5t-23.5 -82.5v-322h-103v520z "/>
<glyph glyph-name="n" horiz-adv-x="519" unicode="n" d="M62 520h82l18 -83q8 27 44.5 60t97.5 33q69 0 113.5 -52.5t44.5 -162.5v-315h-103v320q0 57 -24 87.5t-66 30.5q-49 0 -76.5 -39.5t-27.5 -94.5v-304h-103v520z"/>
<glyph glyph-name="o" horiz-adv-x="530" unicode="o" d="M265 438q-61 0 -93.5 -50t-32.5 -128t33 -128t93 -50t93 50t33 128t-32.5 128t-93.5 50zM265 530q104 0 168 -75.5t64 -194.5t-64 -194.5t-168 -75.5t-168 75.5t-64 194.5t64 194.5t168 75.5z"/>
<glyph glyph-name="p" horiz-adv-x="547" unicode="p" d="M285 438q-55 0 -88 -50.5t-33 -127.5q0 -78 33.5 -128t87.5 -50t87.5 51t33.5 127t-33.5 127t-87.5 51zM305 530q91 0 149 -79.5t58 -190.5q0 -107 -53 -188.5t-150 -81.5q-55 0 -93.5 25.5t-53.5 66.5v-252h-100v690h79l15 -88q20 45 59 71.5t90 26.5z"/>
<glyph glyph-name="q" horiz-adv-x="545" unicode="q" d="M261 438q-54 0 -87.5 -51t-33.5 -127t33.5 -127t87.5 -51t87.5 50t33.5 128q0 77 -33 127.5t-88 50.5zM241 530q51 0 90 -26.5t59 -71.5l15 88h79v-690h-100v252q-15 -41 -53.5 -66.5t-93.5 -25.5q-97 0 -150 81.5t-53 188.5q0 111 58 190.5t149 79.5z"/>
<glyph glyph-name="r" horiz-adv-x="318" unicode="r" d="M62 520h81l14 -102q9 38 42 71.5t97 33.5v-95q-131 0 -131 -151v-277h-103v520z"/>
<glyph glyph-name="s" horiz-adv-x="408" unicode="s" d="M205 -10q-82 0 -168 42l27 78q75 -34 130 -34q83 0 83 64q0 17 -7 29.5t-24.5 23t-28.5 15.5t-38 16q-143 55 -143 157q0 74 49.5 111.5t123.5 37.5q72 0 150 -37l-27 -77q-56 28 -113 28q-81 0 -81 -61q0 -16 7 -28t24 -22t27.5 -14.5t36.5 -14.5q29 -10 50.5 -21.5 t45 -30t36.5 -47t13 -64.5q0 -75 -48.5 -113t-124.5 -38z"/>
<glyph glyph-name="t" horiz-adv-x="320" unicode="t" d="M95 670h86v-150h106v-76h-106v-298q0 -39 12 -54.5t40 -15.5q9 0 22 2.5t22 5.5l9 2l4 -78q-47 -18 -91 -18q-67 0 -94 37t-27 118v299h-60v66l60 8z"/>
<glyph glyph-name="u" horiz-adv-x="520" unicode="u" d="M58 520h103v-317q0 -121 90 -121q53 0 78 37t25 93v308h104v-520h-82l-17 76q-40 -86 -146 -86q-65 0 -110 46t-45 153v331z"/>
<glyph glyph-name="v" horiz-adv-x="481" unicode="v" d="M23 520h104l117 -407l113 407h101l-159 -520h-116z"/>
<glyph glyph-name="w" horiz-adv-x="733" unicode="w" d="M315 520h101l94 -382l100 382h98l-137 -520h-120l-85 355l-83 -355h-121l-137 520h100l100 -383z"/>
<glyph glyph-name="x" horiz-adv-x="463" unicode="x" d="M295 258l155 -258h-114l-107 190l-108 -190h-105l153 257l-155 263h111l110 -191l108 191h104z"/>
<glyph glyph-name="y" horiz-adv-x="487" unicode="y" d="M23 520h108l116 -392l109 392h108l-213 -690h-110l49 160z"/>
<glyph glyph-name="z" horiz-adv-x="437" unicode="z" d="M42 520h359v-73l-243 -359v-3l120 2h123v-87h-372v75l244 357v3l-127 -2h-104v87z"/>
<glyph glyph-name="braceleft" horiz-adv-x="292" unicode="{" d="M114 264q52 -10 52 -78v-217q0 -42 11.5 -56t42.5 -14h34v-79h-24q-51 0 -81.5 10.5t-44.5 36t-18 52.5t-4 76v184q0 53 -49 53v66q49 0 49 54v181q0 100 28 138.5t120 38.5h24v-79h-34q-34 0 -44 -16.5t-10 -66.5v-205q0 -65 -52 -79z"/>
<glyph glyph-name="bar" horiz-adv-x="224" unicode="|" d="M70 792h84v-948h-84v948z"/>
<glyph glyph-name="braceright" horiz-adv-x="292" unicode="}" d="M178 264q-52 14 -52 79v205q0 50 -10 66.5t-44 16.5h-34v79h24q92 0 120 -38.5t28 -138.5v-181q0 -54 49 -54v-66q-49 0 -49 -53v-184q0 -49 -4 -76t-18 -52.5t-44.5 -36t-81.5 -10.5h-24v79h34q31 0 42.5 14t11.5 56v217q0 68 52 78z"/>
<glyph glyph-name="exclamdown" horiz-adv-x="239" unicode="¡" d="M177 468q0 -25 -17.5 -42.5t-41.5 -17.5t-41 17.5t-17 42.5q0 26 17 44t41 18t41.5 -18.5t17.5 -43.5zM181 -179h-126l21 493h84z"/>
<glyph glyph-name="cent" horiz-adv-x="471" unicode="¢" d="M292 -10h-47v85q-93 12 -149 85t-56 182q0 110 56 183.5t149 84.5v82h47v-80q62 -3 123 -36l-28 -76q-48 24 -98 24q-69 0 -104 -53t-35 -129q0 -78 36.5 -129t104.5 -51q49 0 101 26l25 -77q-65 -36 -125 -39v-82z"/>
<glyph glyph-name="sterling" horiz-adv-x="499" unicode="£" d="M435 630l-68 -62q-37 46 -80 46q-41 0 -63 -33t-22 -87v-129h188v-61h-188v-108q0 -79 -46 -106h292v-90h-407v89q2 1 6 2.5t13.5 9.5t16.5 18t13 29t6 41v115h-41v61h41v123q0 96 49 159t137 63q95 0 153 -80z"/>
<glyph glyph-name="yen" horiz-adv-x="576" unicode="¥" d="M26 700h110l151 -318h1l151 318h110l-210 -417v-30h98v-49h-98v-50h98v-49h-98v-105h-103v105h-98v49h98v50h-98v49h98v30z"/>
<glyph glyph-name="section" horiz-adv-x="514" unicode="§" d="M175 381q-41 -43 -41 -91q0 -31 23 -53.5t52 -33t69 -25.5t61 -29q41 44 41 91q0 40 -33 63.5t-91 43t-81 34.5zM68 -122l29 76q73 -31 150 -31q102 0 102 73q0 38 -31.5 62t-76 38.5t-89 31.5t-76 53.5t-31.5 92.5q0 86 66 145q-62 43 -62 119q0 77 56 119.5t150 42.5 q100 0 191 -48l-29 -76q-75 31 -150 31q-102 0 -102 -73q0 -38 31.5 -62t76 -38.5t89 -31.5t76 -53.5t31.5 -92.5q0 -49 -21.5 -88t-44.5 -57q62 -43 62 -119q0 -77 -55.5 -119.5t-150.5 -42.5q-100 0 -191 48z"/>
<glyph glyph-name="dieresis" horiz-adv-x="446" unicode="¨" d="M269 650q0 22 15.5 37.5t35.5 15.5q23 0 38 -15t15 -38q0 -22 -15 -36.5t-38 -14.5q-22 0 -36.5 14.5t-14.5 36.5zM74 650q0 22 15 37.5t36 15.5q23 0 37.5 -15t14.5 -38q0 -22 -14.5 -36.5t-37.5 -14.5q-22 0 -36.5 14.5t-14.5 36.5z"/>
<glyph glyph-name="copyright" horiz-adv-x="683" unicode="©" d="M341 654q-103 0 -177.5 -89t-74.5 -213q0 -127 74 -216t178 -89q105 0 179 89t74 216q0 124 -74.5 213t-178.5 89zM342 700q123 0 209.5 -102t86.5 -246q0 -145 -87.5 -248.5t-209.5 -103.5t-209 103.5t-87 248.5q0 144 87 246t210 102zM454 490l-39 -43q-29 25 -59 25 q-42 0 -67.5 -35t-25.5 -85t25.5 -85t66.5 -35q32 0 60 27l39 -45q-43 -48 -107 -48q-68 0 -115 53.5t-47 133.5q0 79 47.5 132.5t114.5 53.5q63 0 107 -49z"/>
<glyph glyph-name="ordfeminine" horiz-adv-x="418" unicode="ª" d="M256 526q-26 6 -53 6q-89 0 -89 -62q0 -29 18 -47t50 -18t53 24t21 58v39zM52 298h312v-59h-312v59zM95 652l-16 57q64 23 121 23q60 0 93 -28.5t33 -96.5v-176q0 -19 15 -19q3 0 15 2v-55q-14 -9 -40 -9q-53 0 -53 55q-6 -20 -28.5 -37.5t-62.5 -17.5q-54 0 -87 32 t-33 84q0 59 41 85.5t104 26.5q30 0 59 -6v17q0 44 -16.5 62t-53.5 18q-40 0 -91 -17z"/>
<glyph glyph-name="guillemotleft" horiz-adv-x="535" unicode="«" d="M208 506l52 -55l-119 -191l119 -192l-52 -54l-176 234v24zM489 68l-54 -54l-171 233v26l171 233l55 -55l-118 -191z"/>
<glyph glyph-name="registered" horiz-adv-x="500" unicode="®" d="M212 564v-75h51q13 0 22 10.5t9 27.5t-10 27t-23 10h-49zM178 595h86q28 0 45.5 -19.5t17.5 -49.5q0 -51 -40 -64l48 -99h-38l-45 95h-40v-95h-34v232zM250 662q-69 0 -110.5 -54t-41.5 -132q0 -80 41.5 -132.5t110.5 -52.5t111.5 53t42.5 132q0 78 -42.5 132t-111.5 54z M250 700q85 0 138 -64t53 -160q0 -94 -53.5 -159t-137.5 -65t-137 64.5t-53 159.5q0 96 52.5 160t137.5 64z"/>
<glyph glyph-name="macron" horiz-adv-x="400" unicode="¯" d="M70 662h262v-64h-262v64z"/>
<glyph glyph-name="degree" horiz-adv-x="280" unicode="°" d="M91 615q0 -24 15 -39.5t34 -15.5t33.5 15.5t14.5 39.5q0 25 -14.5 40.5t-33.5 15.5t-34 -16t-15 -40zM51 616q0 44 26.5 72t62.5 28q37 0 62.5 -27.5t25.5 -71.5q0 -46 -25.5 -74.5t-62.5 -28.5t-63 28.5t-26 73.5z"/>
<glyph glyph-name="plusminus" horiz-adv-x="447" unicode="±" d="M60 110h329v-71h-329v71zM190 529h69v-140h130v-67h-130v-140h-69v140h-131v67h131v140z"/>
<glyph glyph-name="acute" horiz-adv-x="283" unicode="´" d="M130 757l72 -36l-67 -139h-66z"/>
<glyph glyph-name="mu" horiz-adv-x="530" unicode="µ" d="M171 -170h-102v690h102v-303q0 -135 101 -135q102 0 102 135v303h101v-520h-76l-16 60q-32 -70 -111 -70q-78 0 -101 60v-220z"/>
<glyph glyph-name="paragraph" horiz-adv-x="523" unicode="¶" d="M442 -86h-75v707h-77v-707h-77v361h-19q-77 1 -119 61t-42 153q0 100 53 155.5t123 55.5h233v-786z"/>
<glyph glyph-name="periodcentered" horiz-adv-x="252" unicode="·" d="M125 380q30 0 51.5 -23t21.5 -55t-21.5 -55.5t-51.5 -23.5q-29 0 -50 23.5t-21 55.5q0 31 21 54.5t50 23.5z"/>
<glyph glyph-name="cedilla" horiz-adv-x="272" unicode="¸" d="M93 -99l-17 20l21 68h49l-11 -51q7 1 11 1q28 0 49 -16.5t21 -52.5q0 -38 -27 -56t-69 -18q-32 0 -65 11l9 39q28 -7 45 -7q40 0 40 32t-34 32z"/>
<glyph glyph-name="ordmasculine" horiz-adv-x="459" unicode="º" d="M76 298h304v-59h-304v59zM326 542q0 56 -26 91.5t-73 35.5q-46 0 -72 -35.5t-26 -91.5t26 -91.5t72 -35.5q47 0 73 35.5t26 91.5zM55 542q0 81 47 135.5t125 54.5t125.5 -54.5t47.5 -135.5t-47.5 -135.5t-125.5 -54.5t-125 54.5t-47 135.5z"/>
<glyph glyph-name="guillemotright" horiz-adv-x="537" unicode="»" d="M275 451l52 55l176 -234v-24l-176 -234l-52 54l119 192zM100 14l-54 54l117 192l-118 191l55 55l171 -233v-26z"/>
<glyph glyph-name="questiondown" horiz-adv-x="417" unicode="¿" d="M172 457q0 25 17.5 43.5t41.5 18.5t41 -18t17 -44q0 -25 -17 -42.5t-41 -17.5t-41.5 17.5t-17.5 42.5zM221 -201q-76 0 -130 46t-54 125q0 41 16 75.5t38.5 57.5t45 44t38.5 45.5t16 51.5v59h86v-52q0 -31 -10 -63q-9 -29 -32.5 -56.5t-45.5 -44.5t-39 -44t-17 -59 q0 -45 29 -69t68 -24q59 0 116 41l38 -74q-74 -59 -163 -59z"/>
<glyph glyph-name="Agrave" horiz-adv-x="569" unicode="À" d="M283 596l-87 -323h175l-87 323h-1zM218 705h137l202 -705h-113l-51 181h-220l-50 -181h-108zM186 886l72 36l61 -175h-66z"/>
<glyph glyph-name="Aacute" horiz-adv-x="569" unicode="Á" d="M283 596l-87 -323h175l-87 323h-1zM218 705h137l202 -705h-113l-51 181h-220l-50 -181h-108zM323 922l72 -36l-67 -139h-66z"/>
<glyph glyph-name="Acircumflex" horiz-adv-x="569" unicode="Â" d="M283 596l-87 -323h175l-87 323h-1zM218 705h137l202 -705h-113l-51 181h-220l-50 -181h-108zM222 752h-70l97 133h78l97 -133h-70l-66 91z"/>
<glyph glyph-name="Atilde" horiz-adv-x="569" unicode="Ã" d="M283 596l-87 -323h175l-87 323h-1zM218 705h137l202 -705h-113l-51 181h-220l-50 -181h-108zM173 763l-28 24q39 76 93 76q24 0 58 -21.5t53 -21.5q24 0 47 34l27 -22q-37 -78 -92 -78q-26 0 -58.5 21t-51.5 21q-26 0 -48 -33z"/>
<glyph glyph-name="Adieresis" horiz-adv-x="570" unicode="Ä" d="M283 596l-87 -323h175l-87 323h-1zM218 705h137l202 -705h-113l-51 181h-220l-50 -181h-108zM137 805q0 22 15 37.5t36 15.5q23 0 37.5 -15t14.5 -38q0 -22 -14.5 -36.5t-37.5 -14.5q-22 0 -36.5 14.5t-14.5 36.5zM332 805q0 22 15.5 37.5t35.5 15.5q23 0 38 -15t15 -38 q0 -22 -15 -36.5t-38 -14.5q-22 0 -36.5 14.5t-14.5 36.5z"/>
<glyph glyph-name="Aring" horiz-adv-x="569" unicode="Å" d="M283 596l-87 -323h175l-87 323h-1zM218 705h137l202 -705h-113l-51 181h-220l-50 -181h-108zM238 840q0 -24 13.5 -37.5t34.5 -13.5t34.5 13.5t13.5 37.5t-13.5 37.5t-34.5 13.5t-34.5 -13.5t-13.5 -37.5zM196 840q0 40 26.5 65t63.5 25t63.5 -25t26.5 -65t-26.5 -65 t-63.5 -25t-63.5 25t-26.5 65z"/>
<glyph glyph-name="AE" horiz-adv-x="843" unicode="Æ" d="M373 603h-32l-122 -330h154v330zM1 0l283 700h511v-97h-316v-215h273v-93h-273v-198h324v-97h-430v181h-189l-70 -181h-113z"/>
<glyph glyph-name="Ccedilla" horiz-adv-x="571" unicode="Ç" d="M363 710q103 0 178 -55l-39 -82q-67 40 -136 40q-94 0 -155 -75t-61 -188t61 -188t154 -75q32 0 65.5 9.5t50 18t21.5 12.5l39 -84q-68 -49 -166 -53l-12 -52q7 1 11 1q28 0 49 -16.5t21 -52.5q0 -38 -27 -56t-69 -18q-32 0 -65 11l9 39q28 -7 45 -7q40 0 40 32t-34 32 l-22 -2l-17 20l21 71q-126 13 -206 110t-80 248q0 162 92 261t232 99z"/>
<glyph glyph-name="Egrave" horiz-adv-x="547" unicode="È" d="M76 700h422v-97h-316v-215h273v-93h-273v-198h324v-97h-430v700zM201 886l72 36l61 -175h-66z"/>
<glyph glyph-name="Eacute" horiz-adv-x="547" unicode="É" d="M76 700h422v-97h-316v-215h273v-93h-273v-198h324v-97h-430v700zM301 921l72 -36l-67 -139h-66z"/>
<glyph glyph-name="Ecircumflex" horiz-adv-x="547" unicode="Ê" d="M76 700h422v-97h-316v-215h273v-93h-273v-198h324v-97h-430v700zM226 747h-70l97 133h78l97 -133h-70l-66 91z"/>
<glyph glyph-name="Edieresis" horiz-adv-x="547" unicode="Ë" d="M76 700h422v-97h-316v-215h273v-93h-273v-198h324v-97h-430v700zM140 805q0 22 15 37.5t36 15.5q23 0 37.5 -15t14.5 -38q0 -22 -14.5 -36.5t-37.5 -14.5q-22 0 -36.5 14.5t-14.5 36.5zM335 805q0 22 15.5 37.5t35.5 15.5q23 0 38 -15t15 -38q0 -22 -15 -36.5t-38 -14.5 q-22 0 -36.5 14.5t-14.5 36.5z"/>
<glyph glyph-name="Igrave" horiz-adv-x="270" unicode="Ì" d="M87 700h107v-700h-107v700zM41 886l72 36l61 -175h-66z"/>
<glyph glyph-name="Iacute" horiz-adv-x="269" unicode="Í" d="M76 700h107v-700h-107v700zM160 922l72 -36l-67 -139h-66z"/>
<glyph glyph-name="Icircumflex" horiz-adv-x="260" unicode="Î" d="M76 700h107v-700h-107v700zM64 747h-70l97 133h78l97 -133h-70l-66 91z"/>
<glyph glyph-name="Idieresis" horiz-adv-x="262" unicode="Ï" d="M78 700h107v-700h-107v700zM177 805q0 22 15.5 37.5t34.5 15.5q23 0 38.5 -15t15.5 -38q0 -22 -15.5 -36.5t-38.5 -14.5q-21 0 -35.5 14.5t-14.5 36.5zM-18 805q0 22 15 37.5t35 15.5q24 0 38.5 -15t14.5 -38q0 -22 -15 -36.5t-38 -14.5q-21 0 -35.5 14.5t-14.5 36.5z "/>
<glyph glyph-name="Eth" horiz-adv-x="612" unicode="Ð" d="M187 603v-223h112v-54h-112v-229h89q60 0 102 30q85 59 85 223t-85 224q-41 29 -102 29h-89zM296 0h-215v326h-74v54h74v320h215q81 0 143 -43q65 -46 98.5 -129.5t33.5 -180.5t-34.5 -179t-97.5 -125q-62 -43 -143 -43z"/>
<glyph glyph-name="Ntilde" horiz-adv-x="633" unicode="Ñ" d="M76 700h112l267 -518h2l-6 293v225h106v-700h-112l-267 524h-2l6 -246v-278h-106v700zM207 763l-28 24q39 76 93 76q24 0 58 -21.5t53 -21.5q24 0 47 34l27 -22q-37 -78 -92 -78q-26 0 -58.5 21t-51.5 21q-26 0 -48 -33z"/>
<glyph glyph-name="Ograve" horiz-adv-x="695" unicode="Ò" d="M150 350q0 -117 53 -190t145 -73q93 0 145.5 73t52.5 190q0 114 -54 188.5t-144 74.5q-89 0 -143.5 -74.5t-54.5 -188.5zM40 351q0 158 84 258.5t224 100.5t224 -100.5t84 -258.5q0 -157 -82 -259t-226 -102t-226 102t-82 259zM285 886l72 36l61 -175h-66z"/>
<glyph glyph-name="Oacute" horiz-adv-x="695" unicode="Ó" d="M150 350q0 -117 53 -190t145 -73q93 0 145.5 73t52.5 190q0 114 -54 188.5t-144 74.5q-89 0 -143.5 -74.5t-54.5 -188.5zM40 351q0 158 84 258.5t224 100.5t224 -100.5t84 -258.5q0 -157 -82 -259t-226 -102t-226 102t-82 259zM350 922l72 -36l-67 -139h-66z"/>
<glyph glyph-name="Ocircumflex" horiz-adv-x="695" unicode="Ô" d="M150 350q0 -117 53 -190t145 -73q93 0 145.5 73t52.5 190q0 114 -54 188.5t-144 74.5q-89 0 -143.5 -74.5t-54.5 -188.5zM40 351q0 158 84 258.5t224 100.5t224 -100.5t84 -258.5q0 -157 -82 -259t-226 -102t-226 102t-82 259zM281 747h-70l97 133h78l97 -133h-70l-66 91 z"/>
<glyph glyph-name="Otilde" horiz-adv-x="695" unicode="Õ" d="M150 350q0 -117 53 -190t145 -73q93 0 145.5 73t52.5 190q0 114 -54 188.5t-144 74.5q-89 0 -143.5 -74.5t-54.5 -188.5zM40 351q0 158 84 258.5t224 100.5t224 -100.5t84 -258.5q0 -157 -82 -259t-226 -102t-226 102t-82 259zM244 763l-28 24q39 76 93 76q24 0 58 -21.5 t53 -21.5q24 0 47 34l27 -22q-37 -78 -92 -78q-26 0 -58.5 21t-51.5 21q-26 0 -48 -33z"/>
<glyph glyph-name="Odieresis" horiz-adv-x="695" unicode="Ö" d="M150 350q0 -117 53 -190t145 -73q93 0 145.5 73t52.5 190q0 114 -54 188.5t-144 74.5q-89 0 -143.5 -74.5t-54.5 -188.5zM40 351q0 158 84 258.5t224 100.5t224 -100.5t84 -258.5q0 -157 -82 -259t-226 -102t-226 102t-82 259zM395 805q0 22 15.5 37.5t34.5 15.5 q23 0 38.5 -15t15.5 -38q0 -22 -15.5 -36.5t-38.5 -14.5q-21 0 -35.5 14.5t-14.5 36.5zM200 805q0 22 15 37.5t35 15.5q23 0 38 -15t15 -38q0 -22 -15 -36.5t-38 -14.5q-21 0 -35.5 14.5t-14.5 36.5z"/>
<glyph glyph-name="multiply" horiz-adv-x="390" unicode="×" d="M102 472l94 -108l94 108l43 -39l-98 -114l97 -112l-45 -38l-91 105l-92 -105l-44 38l97 112l-99 114z"/>
<glyph glyph-name="Oslash" horiz-adv-x="695" unicode="Ø" d="M546 350q0 107 -49 181l-235 -424q38 -20 86 -20q93 0 145.5 73t52.5 190zM150 350q0 -119 54 -192l237 428q-43 27 -93 27q-89 0 -143.5 -74.5t-54.5 -188.5zM40 351q0 158 84 258.5t224 100.5q79 0 142 -34l31 55h87l-56 -100q104 -101 104 -280q0 -157 -82 -259 t-226 -102q-75 0 -135 29l-30 -54h-86l53 97q-110 99 -110 289z"/>
<glyph glyph-name="Ugrave" horiz-adv-x="614" unicode="Ù" d="M70 700h106v-467q0 -66 36 -106t96 -40t95.5 40t35.5 106v467h106v-463q0 -110 -63.5 -178.5t-173.5 -68.5q-114 0 -176 70t-62 177v463zM239 886l72 36l61 -175h-66z"/>
<glyph glyph-name="Uacute" horiz-adv-x="614" unicode="Ú" d="M70 700h106v-467q0 -66 36 -106t96 -40t95.5 40t35.5 106v467h106v-463q0 -110 -63.5 -178.5t-173.5 -68.5q-114 0 -176 70t-62 177v463zM325 922l72 -36l-67 -139h-66z"/>
<glyph glyph-name="Ucircumflex" horiz-adv-x="614" unicode="Û" d="M70 700h106v-467q0 -66 36 -106t96 -40t95.5 40t35.5 106v467h106v-463q0 -110 -63.5 -178.5t-173.5 -68.5q-114 0 -176 70t-62 177v463zM241 747h-70l97 133h78l97 -133h-70l-66 91z"/>
<glyph glyph-name="Udieresis" horiz-adv-x="614" unicode="Ü" d="M70 700h106v-467q0 -66 36 -106t96 -40t95.5 40t35.5 106v467h106v-463q0 -110 -63.5 -178.5t-173.5 -68.5q-114 0 -176 70t-62 177v463zM355 805q0 22 15.5 37.5t34.5 15.5q23 0 38.5 -15t15.5 -38q0 -22 -15.5 -36.5t-38.5 -14.5q-21 0 -35.5 14.5t-14.5 36.5zM160 805 q0 22 15 37.5t35 15.5q23 0 37.5 -15t14.5 -38t-14.5 -37t-37.5 -14q-21 0 -35.5 14.5t-14.5 36.5z"/>
<glyph glyph-name="Yacute" horiz-adv-x="532" unicode="Ý" d="M419 700h107l-210 -417v-283h-103v283l-210 417h113l151 -314h1zM286 922l72 -36l-67 -139h-66z"/>
<glyph glyph-name="Thorn" horiz-adv-x="554" unicode="Þ" d="M182 471v-237h138q51 0 78.5 33t27.5 87t-26.5 85.5t-77.5 31.5h-140zM76 700h106v-126h163q85 0 135 -62t50 -156q0 -95 -49.5 -158t-133.5 -63h-165v-135h-106v700z"/>
<glyph glyph-name="germandbls" horiz-adv-x="529" unicode="ß" d="M257 710q89 0 134 -50.5t45 -126.5q0 -46 -22.5 -99t-22.5 -76t12 -42t29 -35t34 -34t29 -47t12 -65q0 -78 -50.5 -118t-125.5 -40q-59 0 -110 21l18 80q41 -15 77 -15q37 0 62.5 21t25.5 62q0 32 -18 57.5t-39 40.5t-39 41.5t-18 59.5q0 32 24.5 84t24.5 86 q0 41 -18.5 71.5t-61.5 30.5t-68.5 -33.5t-25.5 -100.5v-483h-103v479q0 101 47 166t148 65z"/>
<glyph glyph-name="agrave" horiz-adv-x="494" unicode="à" d="M320 197v40q-39 7 -79 7q-114 0 -114 -84q0 -41 23.5 -62.5t60.5 -21.5q49 0 79 32.5t30 88.5zM88 419l-19 81q94 30 173 30q181 0 181 -170v-254q0 -24 24 -24q7 0 21 2v-75q-26 -13 -63 -13q-31 0 -53.5 16t-22.5 54q-12 -28 -45 -52t-95 -24q-73 0 -118.5 42 t-45.5 118q0 85 54.5 127.5t141.5 42.5q40 0 99 -7v31q0 58 -23.5 77.5t-70.5 19.5q-70 0 -138 -22zM173 728l72 36l61 -175h-66z"/>
<glyph glyph-name="aacute" horiz-adv-x="494" unicode="á" d="M320 197v40q-39 7 -79 7q-114 0 -114 -84q0 -41 23.5 -62.5t60.5 -21.5q49 0 79 32.5t30 88.5zM88 419l-19 81q94 30 173 30q181 0 181 -170v-254q0 -24 24 -24q7 0 21 2v-75q-26 -13 -63 -13q-31 0 -53.5 16t-22.5 54q-12 -28 -45 -52t-95 -24q-73 0 -118.5 42 t-45.5 118q0 85 54.5 127.5t141.5 42.5q40 0 99 -7v31q0 58 -23.5 77.5t-70.5 19.5q-70 0 -138 -22zM263 764l72 -36l-67 -139h-66z"/>
<glyph glyph-name="acircumflex" horiz-adv-x="494" unicode="â" d="M320 197v40q-39 7 -79 7q-114 0 -114 -84q0 -41 23.5 -62.5t60.5 -21.5q49 0 79 32.5t30 88.5zM88 419l-19 81q94 30 173 30q181 0 181 -170v-254q0 -24 24 -24q7 0 21 2v-75q-26 -13 -63 -13q-31 0 -53.5 16t-22.5 54q-12 -28 -45 -52t-95 -24q-73 0 -118.5 42 t-45.5 118q0 85 54.5 127.5t141.5 42.5q40 0 99 -7v31q0 58 -23.5 77.5t-70.5 19.5q-70 0 -138 -22zM182 589h-70l97 133h78l97 -133h-70l-66 91z"/>
<glyph glyph-name="atilde" horiz-adv-x="494" unicode="ã" d="M320 197v40q-39 7 -79 7q-114 0 -114 -84q0 -41 23.5 -62.5t60.5 -21.5q49 0 79 32.5t30 88.5zM88 419l-19 81q94 30 173 30q181 0 181 -170v-254q0 -24 24 -24q7 0 21 2v-75q-26 -13 -63 -13q-31 0 -53.5 16t-22.5 54q-12 -28 -45 -52t-95 -24q-73 0 -118.5 42 t-45.5 118q0 85 54.5 127.5t141.5 42.5q40 0 99 -7v31q0 58 -23.5 77.5t-70.5 19.5q-70 0 -138 -22zM138 605l-28 24q39 76 93 76q24 0 58 -21.5t53 -21.5q24 0 47 34l27 -22q-37 -78 -92 -78q-26 0 -58.5 21t-51.5 21q-26 0 -48 -33z"/>
<glyph glyph-name="adieresis" horiz-adv-x="494" unicode="ä" d="M320 197v40q-39 7 -79 7q-114 0 -114 -84q0 -41 23.5 -62.5t60.5 -21.5q49 0 79 32.5t30 88.5zM88 419l-19 81q94 30 173 30q181 0 181 -170v-254q0 -24 24 -24q7 0 21 2v-75q-26 -13 -63 -13q-31 0 -53.5 16t-22.5 54q-12 -28 -45 -52t-95 -24q-73 0 -118.5 42 t-45.5 118q0 85 54.5 127.5t141.5 42.5q40 0 99 -7v31q0 58 -23.5 77.5t-70.5 19.5q-70 0 -138 -22zM102 644q0 22 15 37t36 15q23 0 37.5 -14.5t14.5 -37.5t-14.5 -37.5t-37.5 -14.5q-22 0 -36.5 14.5t-14.5 37.5zM297 644q0 22 15.5 37t35.5 15q23 0 38 -14.5t15 -37.5 t-15 -37.5t-38 -14.5q-22 0 -36.5 14.5t-14.5 37.5z"/>
<glyph glyph-name="aring" horiz-adv-x="494" unicode="å" d="M320 197v40q-39 7 -79 7q-114 0 -114 -84q0 -41 23.5 -62.5t60.5 -21.5q49 0 79 32.5t30 88.5zM88 419l-19 81q94 30 173 30q181 0 181 -170v-254q0 -24 24 -24q7 0 21 2v-75q-26 -13 -63 -13q-31 0 -53.5 16t-22.5 54q-12 -28 -45 -52t-95 -24q-73 0 -118.5 42 t-45.5 118q0 85 54.5 127.5t141.5 42.5q40 0 99 -7v31q0 58 -23.5 77.5t-70.5 19.5q-70 0 -138 -22zM218 679q0 -24 13.5 -37.5t34.5 -13.5t34.5 13.5t13.5 37.5t-13.5 37.5t-34.5 13.5t-34.5 -13.5t-13.5 -37.5zM176 679q0 40 26.5 65t63.5 25t63.5 -25t26.5 -65t-26.5 -65 t-63.5 -25t-63.5 25t-26.5 65z"/>
<glyph glyph-name="ae" horiz-adv-x="767" unicode="æ" d="M440 298h235v6q0 54 -28 95.5t-78 41.5q-54 0 -89.5 -38.5t-39.5 -104.5zM212 76q95 0 133 83q-14 37 -14 79q-42 6 -91 6q-113 0 -113 -87q0 -40 23.5 -60.5t61.5 -20.5zM88 419l-19 81q94 30 172 30q124 0 171 -68q65 68 155 68q94 0 149.5 -70t55.5 -175q0 -38 -4 -61 h-327q4 -67 47 -104.5t114 -37.5q55 0 121 32l27 -82q-76 -42 -170 -42q-136 0 -202 103q-61 -103 -186 -103q-76 0 -121.5 41.5t-45.5 118.5q0 85 54.5 127.5t140.5 42.5q59 0 112 -7q2 15 8 34v1q0 56 -27 74.5t-87 18.5q-70 0 -138 -22z"/>
<glyph glyph-name="ccedilla" horiz-adv-x="440" unicode="ç" d="M274 -10h-4l-11 -52q7 1 11 1q28 0 49 -16.5t21 -52.5q0 -38 -27 -56t-69 -18q-32 0 -65 11l9 39q28 -7 45 -7q40 0 40 32t-34 32l-22 -2l-17 20l22 75q-85 18 -136.5 90.5t-51.5 174.5q0 115 68 192t172 77q78 0 137 -38l-32 -77q-39 23 -85 23q-74 0 -114 -52t-40 -126 q0 -73 40 -125.5t114 -52.5q50 0 85 23l32 -77q-63 -38 -137 -38z"/>
<glyph glyph-name="egrave" horiz-adv-x="491" unicode="è" d="M141 298h221v6q0 54 -28 96t-78 42q-47 0 -79 -39.5t-36 -104.5zM34 261q0 116 61 192.5t159 76.5q94 0 149.5 -70t55.5 -175q0 -38 -4 -61h-313q4 -66 44 -104t103 -38q57 0 121 31l27 -81q-76 -42 -166 -42q-106 0 -171.5 76t-65.5 195zM186 728l72 36l61 -175h-66z "/>
<glyph glyph-name="eacute" horiz-adv-x="491" unicode="é" d="M141 298h221v6q0 54 -28 96t-78 42q-47 0 -79 -39.5t-36 -104.5zM34 261q0 116 61 192.5t159 76.5q94 0 149.5 -70t55.5 -175q0 -38 -4 -61h-313q4 -66 44 -104t103 -38q57 0 121 31l27 -81q-76 -42 -166 -42q-106 0 -171.5 76t-65.5 195zM259 764l72 -36l-67 -139h-66z "/>
<glyph glyph-name="ecircumflex" horiz-adv-x="491" unicode="ê" d="M141 298h221v6q0 54 -28 96t-78 42q-47 0 -79 -39.5t-36 -104.5zM34 261q0 116 61 192.5t159 76.5q94 0 149.5 -70t55.5 -175q0 -38 -4 -61h-313q4 -66 44 -104t103 -38q57 0 121 31l27 -81q-76 -42 -166 -42q-106 0 -171.5 76t-65.5 195zM194 589h-70l97 133h78l97 -133 h-70l-66 91z"/>
<glyph glyph-name="edieresis" horiz-adv-x="491" unicode="ë" d="M141 298h221v6q0 54 -28 96t-78 42q-47 0 -79 -39.5t-36 -104.5zM34 261q0 116 61 192.5t159 76.5q94 0 149.5 -70t55.5 -175q0 -38 -4 -61h-313q4 -66 44 -104t103 -38q57 0 121 31l27 -81q-76 -42 -166 -42q-106 0 -171.5 76t-65.5 195zM113 644q0 22 15 37t35 15 q24 0 38.5 -14.5t14.5 -37.5t-15 -37.5t-38 -14.5q-21 0 -35.5 14.5t-14.5 37.5zM308 644q0 22 15.5 37t35.5 15q23 0 38 -14.5t15 -37.5t-15 -37.5t-38 -14.5q-22 0 -36.5 14.5t-14.5 37.5z"/>
<glyph glyph-name="igrave" horiz-adv-x="240" unicode="ì" d="M31 520h148v-520h-103v436l-45 11v73zM21 728l72 36l61 -175h-66z"/>
<glyph glyph-name="iacute" horiz-adv-x="241" unicode="í" d="M32 520h148v-520h-103v436l-45 11v73zM147 764l72 -36l-67 -139h-66z"/>
<glyph glyph-name="icircumflex" horiz-adv-x="240" unicode="î" d="M31 520h148v-520h-103v436l-45 11v73zM46 589h-70l97 133h78l97 -133h-70l-66 91z"/>
<glyph glyph-name="idieresis" horiz-adv-x="239" unicode="ï" d="M30 520h148v-520h-103v436l-45 11v73zM153 644q0 22 15 37t35 15q23 0 38 -14.5t15 -37.5t-15 -37.5t-38 -14.5q-22 0 -36 14.5t-14 37.5zM-42 644q0 22 14.5 37t35.5 15q23 0 37.5 -14.5t14.5 -37.5t-14.5 -37.5t-37.5 -14.5q-22 0 -36 14.5t-14 37.5z"/>
<glyph glyph-name="eth" horiz-adv-x="485" unicode="ð" d="M239 391q-54 0 -81.5 -44.5t-27.5 -110.5q0 -61 27.5 -107.5t79.5 -46.5q49 0 79.5 46.5t30.5 112.5q0 64 -31 107t-77 43zM166 773q73 -31 124 -78l74 65l32 -37l-71 -62q126 -133 126 -375q0 -136 -61 -215t-157 -79q-93 0 -146.5 69.5t-53.5 175.5q0 113 55.5 177.5 t141.5 64.5q48 0 83.5 -26.5t50.5 -59.5q-11 73 -36.5 132t-55.5 91l-72 -61l-31 36l69 60q-32 35 -100 70z"/>
<glyph glyph-name="ntilde" horiz-adv-x="519" unicode="ñ" d="M62 520h82l18 -83q8 27 44.5 60t97.5 33q69 0 113.5 -52.5t44.5 -162.5v-315h-103v320q0 57 -24 87.5t-66 30.5q-49 0 -76.5 -39.5t-27.5 -94.5v-304h-103v520zM151 605l-28 24q39 76 93 76q24 0 58 -21.5t53 -21.5q24 0 47 34l27 -22q-37 -78 -92 -78q-26 0 -58.5 21 t-51.5 21q-26 0 -48 -33z"/>
<glyph glyph-name="ograve" horiz-adv-x="530" unicode="ò" d="M265 438q-61 0 -93.5 -50t-32.5 -128t33 -128t93 -50t93 50t33 128t-32.5 128t-93.5 50zM265 530q104 0 168 -75.5t64 -194.5t-64 -194.5t-168 -75.5t-168 75.5t-64 194.5t64 194.5t168 75.5zM194 728l72 36l61 -175h-66z"/>
<glyph glyph-name="oacute" horiz-adv-x="530" unicode="ó" d="M265 438q-61 0 -93.5 -50t-32.5 -128t33 -128t93 -50t93 50t33 128t-32.5 128t-93.5 50zM265 530q104 0 168 -75.5t64 -194.5t-64 -194.5t-168 -75.5t-168 75.5t-64 194.5t64 194.5t168 75.5zM261 764l72 -36l-67 -139h-66z"/>
<glyph glyph-name="ocircumflex" horiz-adv-x="530" unicode="ô" d="M265 438q-61 0 -93.5 -50t-32.5 -128t33 -128t93 -50t93 50t33 128t-32.5 128t-93.5 50zM265 530q104 0 168 -75.5t64 -194.5t-64 -194.5t-168 -75.5t-168 75.5t-64 194.5t64 194.5t168 75.5zM200 588h-70l97 133h78l97 -133h-70l-66 91z"/>
<glyph glyph-name="otilde" horiz-adv-x="530" unicode="õ" d="M265 438q-61 0 -93.5 -50t-32.5 -128t33 -128t93 -50t93 50t33 128t-32.5 128t-93.5 50zM265 530q104 0 168 -75.5t64 -194.5t-64 -194.5t-168 -75.5t-168 75.5t-64 194.5t64 194.5t168 75.5zM154 605l-28 24q39 76 93 76q24 0 58 -21.5t53 -21.5q24 0 47 34l27 -22 q-37 -78 -92 -78q-26 0 -58.5 21t-51.5 21q-26 0 -48 -33z"/>
<glyph glyph-name="odieresis" horiz-adv-x="530" unicode="ö" d="M265 438q-61 0 -93.5 -50t-32.5 -128t33 -128t93 -50t93 50t33 128t-32.5 128t-93.5 50zM265 530q104 0 168 -75.5t64 -194.5t-64 -194.5t-168 -75.5t-168 75.5t-64 194.5t64 194.5t168 75.5zM117 644q0 22 15 37t35 15q24 0 38.5 -14.5t14.5 -37.5t-15 -37.5t-38 -14.5 q-21 0 -35.5 14.5t-14.5 37.5zM312 644q0 22 15.5 37t34.5 15q23 0 38.5 -14.5t15.5 -37.5t-15.5 -37.5t-38.5 -14.5q-21 0 -35.5 14.5t-14.5 37.5z"/>
<glyph glyph-name="divide" horiz-adv-x="493" unicode="÷" d="M196 157q0 23 15 39t36 16t36.5 -16.5t15.5 -38.5t-15.5 -38.5t-36.5 -16.5q-22 0 -36.5 16t-14.5 39zM54 360h386v-70h-386v70zM247 550q21 0 37 -16t16 -39q0 -24 -16 -40t-37 -16q-22 0 -36.5 16.5t-14.5 39.5q0 24 15 39.5t36 15.5z"/>
<glyph glyph-name="oslash" horiz-adv-x="530" unicode="ø" d="M265 438q-61 0 -93.5 -50t-32.5 -128q0 -69 25 -115l155 279q-23 14 -54 14zM391 260q0 69 -26 116l-156 -280q25 -14 56 -14q60 0 93 50t33 128zM265 530q56 0 100 -23l29 52h73l-49 -88q79 -76 79 -211q0 -119 -64 -194.5t-168 -75.5q-56 0 -102 23l-29 -52h-72l49 89 q-78 75 -78 210q0 119 64 194.5t168 75.5z"/>
<glyph glyph-name="ugrave" horiz-adv-x="520" unicode="ù" d="M58 520h103v-317q0 -121 90 -121q53 0 78 37t25 93v308h104v-520h-82l-17 76q-40 -86 -146 -86q-65 0 -110 46t-45 153v331zM177 728l72 36l61 -175h-66z"/>
<glyph glyph-name="uacute" horiz-adv-x="520" unicode="ú" d="M58 520h103v-317q0 -121 90 -121q53 0 78 37t25 93v308h104v-520h-82l-17 76q-40 -86 -146 -86q-65 0 -110 46t-45 153v331zM274 764l72 -36l-67 -139h-66z"/>
<glyph glyph-name="ucircumflex" horiz-adv-x="520" unicode="û" d="M58 520h103v-317q0 -121 90 -121q53 0 78 37t25 93v308h104v-520h-82l-17 76q-40 -86 -146 -86q-65 0 -110 46t-45 153v331zM201 589h-70l97 133h78l97 -133h-70l-66 91z"/>
<glyph glyph-name="udieresis" horiz-adv-x="520" unicode="ü" d="M58 520h103v-317q0 -121 90 -121q53 0 78 37t25 93v308h104v-520h-82l-17 76q-40 -86 -146 -86q-65 0 -110 46t-45 153v331zM304 644q0 22 15.5 37t34.5 15q23 0 38.5 -14.5t15.5 -37.5t-15.5 -37.5t-38.5 -14.5q-21 0 -35.5 14.5t-14.5 37.5zM109 644q0 22 14.5 37 t35.5 15q23 0 38 -14.5t15 -37.5t-15 -37.5t-38 -14.5q-21 0 -35.5 14.5t-14.5 37.5z"/>
<glyph glyph-name="yacute" horiz-adv-x="487" unicode="ý" d="M23 520h108l116 -392l109 392h108l-213 -690h-110l49 160zM261 764l72 -36l-67 -139h-66z"/>
<glyph glyph-name="thorn" horiz-adv-x="547" unicode="þ" d="M285 438q-54 0 -87.5 -52t-33.5 -129t33.5 -126t87.5 -49t87.5 50t33.5 126q0 77 -33.5 128.5t-87.5 51.5zM305 530q92 0 149.5 -80.5t57.5 -194.5q0 -111 -54.5 -188t-150.5 -77q-54 0 -92 25t-53 66v-251h-100v870h100v-255q44 85 143 85z"/>
<glyph glyph-name="ydieresis" horiz-adv-x="487" unicode="ÿ" d="M23 520h108l116 -392l109 392h108l-213 -690h-110l49 160zM93 644q0 22 15 37t35 15q24 0 38.5 -14.5t14.5 -37.5t-15 -37.5t-38 -14.5q-21 0 -35.5 14.5t-14.5 37.5zM288 644q0 22 15.5 37t34.5 15q23 0 38.5 -14.5t15.5 -37.5t-15.5 -37.5t-38.5 -14.5 q-21 0 -35.5 14.5t-14.5 37.5z"/>
<glyph glyph-name="Amacron" horiz-adv-x="569" unicode="Ā" d="M283 596l-87 -323h175l-87 323h-1zM218 705h137l202 -705h-113l-51 181h-220l-50 -181h-108zM154 829h262v-64h-262v64z"/>
<glyph glyph-name="amacron" horiz-adv-x="494" unicode="ā" d="M320 197v40q-39 7 -79 7q-114 0 -114 -84q0 -41 23.5 -62.5t60.5 -21.5q49 0 79 32.5t30 88.5zM88 419l-19 81q94 30 173 30q181 0 181 -170v-254q0 -24 24 -24q7 0 21 2v-75q-26 -13 -63 -13q-31 0 -53.5 16t-22.5 54q-12 -28 -45 -52t-95 -24q-73 0 -118.5 42 t-45.5 118q0 85 54.5 127.5t141.5 42.5q40 0 99 -7v31q0 58 -23.5 77.5t-70.5 19.5q-70 0 -138 -22zM115 669h262v-64h-262v64z"/>
<glyph glyph-name="Abreve" horiz-adv-x="569" unicode="Ă" d="M283 596l-87 -323h175l-87 323h-1zM218 705h137l202 -705h-113l-51 181h-220l-50 -181h-108zM352 874h50q-8 -122 -118 -122t-118 122h50q5 -65 68 -65t68 65z"/>
<glyph glyph-name="abreve" horiz-adv-x="494" unicode="ă" d="M320 197v40q-39 7 -79 7q-114 0 -114 -84q0 -41 23.5 -62.5t60.5 -21.5q49 0 79 32.5t30 88.5zM88 419l-19 81q94 30 173 30q181 0 181 -170v-254q0 -24 24 -24q7 0 21 2v-75q-26 -13 -63 -13q-31 0 -53.5 16t-22.5 54q-12 -28 -45 -52t-95 -24q-73 0 -118.5 42 t-45.5 118q0 85 54.5 127.5t141.5 42.5q40 0 99 -7v31q0 58 -23.5 77.5t-70.5 19.5q-70 0 -138 -22zM132 706h50q5 -65 68 -65t68 65h50q-8 -122 -118 -122t-118 122z"/>
<glyph glyph-name="Aogonek" horiz-adv-x="563" unicode="Ą" d="M282 596l-87 -323h175l-87 323h-1zM217 705h137l202 -705q-30 -11 -46.5 -37t-16.5 -53q0 -43 38 -43q14 0 25 4l9 -36q-22 -14 -54 -14q-35 0 -55 24t-20 59q0 59 46 96h-39l-51 181h-220l-50 -181h-108z"/>
<glyph glyph-name="aogonek" horiz-adv-x="494" unicode="ą" d="M320 197v40q-39 7 -79 7q-114 0 -114 -84q0 -41 23.5 -62.5t60.5 -21.5q49 0 79 32.5t30 88.5zM88 419l-19 81q94 30 173 30q181 0 181 -170v-254q0 -24 24 -24q7 0 21 2v-75q-18 -9 -50 -13q-42 -24 -42 -84q0 -45 38 -45q14 0 25 4l9 -36q-22 -14 -54 -14 q-35 0 -55 24.5t-20 60.5q0 58 49 97q-39 16 -39 63q-12 -28 -45 -52t-95 -24q-73 0 -118.5 42t-45.5 118q0 85 54.5 127.5t141.5 42.5q40 0 99 -7v31q0 58 -23.5 77.5t-70.5 19.5q-70 0 -138 -22z"/>
<glyph glyph-name="Cacute" horiz-adv-x="572" unicode="Ć" d="M363 710q103 0 178 -55l-39 -82q-67 40 -136 40q-94 0 -155 -75t-61 -188t61 -188t154 -75q32 0 65.5 9.5t50 18t21.5 12.5l39 -84q-75 -53 -179 -53q-139 0 -231 98.5t-92 261.5q0 162 92 261t232 99zM366 922l72 -36l-67 -139h-66z"/>
<glyph glyph-name="cacute" horiz-adv-x="439" unicode="ć" d="M274 -10q-105 0 -172.5 76.5t-67.5 194.5q0 115 68 192t172 77q78 0 137 -38l-32 -77q-39 23 -85 23q-74 0 -114 -52t-40 -126q0 -73 40 -125.5t114 -52.5q50 0 85 23l32 -77q-63 -38 -137 -38zM286 764l72 -36l-67 -139h-66z"/>
<glyph glyph-name="Ccircumflex" horiz-adv-x="572" unicode="Ĉ" d="M363 710q103 0 178 -55l-39 -82q-67 40 -136 40q-94 0 -155 -75t-61 -188t61 -188t154 -75q32 0 65.5 9.5t50 18t21.5 12.5l39 -84q-75 -53 -179 -53q-139 0 -231 98.5t-92 261.5q0 162 92 261t232 99zM296 747h-70l97 133h78l97 -133h-70l-66 91z"/>
<glyph glyph-name="ccircumflex" horiz-adv-x="439" unicode="ĉ" d="M274 -10q-105 0 -172.5 76.5t-67.5 194.5q0 115 68 192t172 77q78 0 137 -38l-32 -77q-39 23 -85 23q-74 0 -114 -52t-40 -126q0 -73 40 -125.5t114 -52.5q50 0 85 23l32 -77q-63 -38 -137 -38zM207 589h-70l97 133h78l97 -133h-70l-66 91z"/>
<glyph glyph-name="Cdotaccent" horiz-adv-x="572" unicode="Ċ" d="M363 710q103 0 178 -55l-39 -82q-67 40 -136 40q-94 0 -155 -75t-61 -188t61 -188t154 -75q32 0 65.5 9.5t50 18t21.5 12.5l39 -84q-75 -53 -179 -53q-139 0 -231 98.5t-92 261.5q0 162 92 261t232 99zM301 804q0 22 15 37.5t36 15.5q22 0 36.5 -15t14.5 -38 q0 -22 -14.5 -37t-36.5 -15t-36.5 15t-14.5 37z"/>
<glyph glyph-name="cdotaccent" horiz-adv-x="439" unicode="ċ" d="M274 -10q-105 0 -172.5 76.5t-67.5 194.5q0 115 68 192t172 77q78 0 137 -38l-32 -77q-39 23 -85 23q-74 0 -114 -52t-40 -126q0 -73 40 -125.5t114 -52.5q50 0 85 23l32 -77q-63 -38 -137 -38zM222 644q0 22 15 37.5t36 15.5q22 0 36.5 -15t14.5 -38q0 -22 -14.5 -37.5 t-36.5 -15.5t-36.5 15.5t-14.5 37.5z"/>
<glyph glyph-name="Ccaron" horiz-adv-x="572" unicode="Č" d="M363 710q103 0 178 -55l-39 -82q-67 40 -136 40q-94 0 -155 -75t-61 -188t61 -188t154 -75q32 0 65.5 9.5t50 18t21.5 12.5l39 -84q-75 -53 -179 -53q-139 0 -231 98.5t-92 261.5q0 162 92 261t232 99zM228 880h70l66 -91l63 91h71l-101 -133h-72z"/>
<glyph glyph-name="ccaron" horiz-adv-x="439" unicode="č" d="M274 -10q-105 0 -172.5 76.5t-67.5 194.5q0 115 68 192t172 77q78 0 137 -38l-32 -77q-39 23 -85 23q-74 0 -114 -52t-40 -126q0 -73 40 -125.5t114 -52.5q50 0 85 23l32 -77q-63 -38 -137 -38zM135 722h70l66 -91l63 91h71l-101 -133h-72z"/>
<glyph glyph-name="Dcaron" horiz-adv-x="608" unicode="Ď" d="M182 603v-506h89q59 0 102 30q85 59 85 223t-85 224q-41 29 -102 29h-89zM291 0h-215v700h215q81 0 143 -43q65 -46 98.5 -129.5t33.5 -180.5t-34.5 -179t-97.5 -125q-62 -43 -143 -43zM152 880h70l66 -91l63 91h71l-101 -133h-72z"/>
<glyph glyph-name="dcaron" horiz-adv-x="594" unicode="ď" d="M261 438q-56 0 -88 -50.5t-32 -128.5q0 -77 32 -127t87 -50q56 0 89.5 50t33.5 128q0 77 -34 127.5t-88 50.5zM385 732h103v-732h-88l-10 91q-17 -46 -56 -73.5t-93 -27.5q-93 0 -149.5 77.5t-56.5 191.5q0 113 55 192t151 79q41 0 82 -24t62 -70v296zM588 732h80 q0 -50 -18.5 -105.5t-40.5 -83.5l-48 20q27 64 27 169z"/>
<glyph glyph-name="Dcroat" horiz-adv-x="611" unicode="Đ" d="M185 603v-221h112v-58h-112v-227h89q60 0 102 30q85 59 85 223t-85 224q-41 29 -102 29h-89zM294 0h-215v324h-74v58h74v318h215q81 0 143 -43q65 -46 98.5 -129.5t33.5 -180.5t-34.5 -179t-97.5 -125q-62 -43 -143 -43z"/>
<glyph glyph-name="dcroat" horiz-adv-x="547" unicode="đ" d="M261 438q-56 0 -88 -50.5t-32 -128.5q0 -77 32 -127t87 -50q56 0 89.5 50t33.5 128q0 77 -34 127.5t-88 50.5zM385 732h103v-91h55v-38h-55v-603h-88l-10 91q-17 -46 -56 -73.5t-93 -27.5q-93 0 -149.5 77.5t-56.5 191.5q0 113 55 192t151 79q41 0 82 -24t62 -70v167 h-115v38h115v91z"/>
<glyph glyph-name="Emacron" horiz-adv-x="547" unicode="Ē" d="M76 700h422v-97h-316v-215h273v-93h-273v-198h324v-97h-430v700zM159 829h262v-64h-262v64z"/>
<glyph glyph-name="emacron" horiz-adv-x="491" unicode="ē" d="M141 298h221v6q0 54 -28 96t-78 42q-47 0 -79 -39.5t-36 -104.5zM34 261q0 116 61 192.5t159 76.5q94 0 149.5 -70t55.5 -175q0 -38 -4 -61h-313q4 -66 44 -104t103 -38q57 0 121 31l27 -81q-76 -42 -166 -42q-106 0 -171.5 76t-65.5 195zM127 669h262v-64h-262v64z"/>
<glyph glyph-name="Ebreve" horiz-adv-x="547" unicode="Ĕ" d="M76 700h422v-97h-316v-215h273v-93h-273v-198h324v-97h-430v700zM355 874h50q-8 -122 -118 -122t-118 122h50q5 -65 68 -65t68 65z"/>
<glyph glyph-name="ebreve" horiz-adv-x="491" unicode="ĕ" d="M141 298h221v6q0 54 -28 96t-78 42q-47 0 -79 -39.5t-36 -104.5zM34 261q0 116 61 192.5t159 76.5q94 0 149.5 -70t55.5 -175q0 -38 -4 -61h-313q4 -66 44 -104t103 -38q57 0 121 31l27 -81q-76 -42 -166 -42q-106 0 -171.5 76t-65.5 195zM137 706h50q5 -65 68 -65t68 65 h50q-8 -122 -118 -122t-118 122z"/>
<glyph glyph-name="Edotaccent" horiz-adv-x="547" unicode="Ė" d="M76 700h422v-97h-316v-215h273v-93h-273v-198h324v-97h-430v700zM234 804q0 22 14.5 37.5t35.5 15.5q22 0 37 -15.5t15 -37.5t-15 -37t-37 -15q-21 0 -35.5 15t-14.5 37z"/>
<glyph glyph-name="edotaccent" horiz-adv-x="491" unicode="ė" d="M141 298h221v6q0 54 -28 96t-78 42q-47 0 -79 -39.5t-36 -104.5zM34 261q0 116 61 192.5t159 76.5q94 0 149.5 -70t55.5 -175q0 -38 -4 -61h-313q4 -66 44 -104t103 -38q57 0 121 31l27 -81q-76 -42 -166 -42q-106 0 -171.5 76t-65.5 195zM211 644q0 22 15 37.5t36 15.5 q22 0 37 -15.5t15 -37.5t-15 -37.5t-37 -15.5t-36.5 15.5t-14.5 37.5z"/>
<glyph glyph-name="Eogonek" horiz-adv-x="547" unicode="Ę" d="M76 700h422v-97h-316v-215h273v-93h-273v-198h324v-97h-21q-30 -9 -44.5 -35.5t-14.5 -51.5q0 -46 39 -46q13 0 24 4l9 -36q-22 -14 -56 -14q-35 0 -54.5 24t-19.5 60q0 54 45 95h-337v700z"/>
<glyph glyph-name="eogonek" horiz-adv-x="493" unicode="ę" d="M142 298h221v6q0 54 -28 96t-78 42q-47 0 -79 -39.5t-36 -104.5zM35 261q0 116 61 192.5t159 76.5q94 0 149.5 -70t55.5 -175q0 -38 -4 -61h-313q4 -66 44 -104t103 -38q57 0 121 31l27 -81q-29 -16 -67 -27q-22 -14 -33 -40.5t-11 -51.5q0 -46 39 -46q13 0 24 4l9 -37 q-24 -12 -48 -12q-37 0 -59 21.5t-22 61.5q0 47 31 87q-20 -2 -29 -2q-106 0 -171.5 76t-65.5 195z"/>
<glyph glyph-name="Ecaron" horiz-adv-x="547" unicode="Ě" d="M76 700h422v-97h-316v-215h273v-93h-273v-198h324v-97h-430v700zM159 880h70l66 -91l63 91h71l-101 -133h-72z"/>
<glyph glyph-name="ecaron" horiz-adv-x="491" unicode="ě" d="M141 298h221v6q0 54 -28 96t-78 42q-47 0 -79 -39.5t-36 -104.5zM34 261q0 116 61 192.5t159 76.5q94 0 149.5 -70t55.5 -175q0 -38 -4 -61h-313q4 -66 44 -104t103 -38q57 0 121 31l27 -81q-76 -42 -166 -42q-106 0 -171.5 76t-65.5 195zM126 721h70l66 -91l63 91h71 l-101 -133h-72z"/>
<glyph glyph-name="Gcircumflex" horiz-adv-x="631" unicode="Ĝ" d="M363 710q109 0 196 -58l-40 -83q-21 14 -63.5 29t-88.5 15q-100 0 -158.5 -76t-58.5 -187q0 -112 60.5 -187.5t155.5 -75.5q68 0 118 51v147h-147v86h249v-269q-90 -112 -230 -112q-134 0 -225.5 100.5t-91.5 259.5t92.5 259.5t231.5 100.5zM295 747h-70l97 133h78 l97 -133h-70l-66 91z"/>
<glyph glyph-name="gcircumflex" horiz-adv-x="465" unicode="ĝ" d="M271 29h-42q-50 0 -77 8q-25 -21 -25 -60q0 -21 10 -34.5t28.5 -18.5t32.5 -6.5t34 -1.5q108 0 108 61q0 52 -69 52zM230 449q-37 0 -60 -25t-23 -70v-1q0 -49 22 -76t61 -27t61 27t22 76v1q0 45 -23 70t-60 25zM49 353q0 76 49 126.5t132 50.5q19 0 76 -10h132v-73 l-63 -6q36 -31 36 -98q0 -70 -50.5 -119t-130.5 -49q-46 0 -81 20q-23 -17 -23 -43q0 -19 14 -29.5t29.5 -12.5t40.5 -2h24h39q85 0 120.5 -37.5t35.5 -95.5q0 -145 -192 -145q-24 0 -46 2t-51.5 10.5t-50.5 22t-36 39.5t-15 60q0 59 52 100q-44 25 -44 79q0 59 48 90 q-45 47 -45 120zM172 589h-70l97 133h78l97 -133h-70l-66 91z"/>
<glyph glyph-name="Gbreve" horiz-adv-x="631" unicode="Ğ" d="M363 710q109 0 196 -58l-40 -83q-21 14 -63.5 29t-88.5 15q-100 0 -158.5 -76t-58.5 -187q0 -112 60.5 -187.5t155.5 -75.5q68 0 118 51v147h-147v86h249v-269q-90 -112 -230 -112q-134 0 -225.5 100.5t-91.5 259.5t92.5 259.5t231.5 100.5zM426 874h50 q-8 -122 -118 -122t-118 122h50q5 -65 68 -65t68 65z"/>
<glyph glyph-name="gbreve" horiz-adv-x="465" unicode="ğ" d="M271 29h-42q-50 0 -77 8q-25 -21 -25 -60q0 -21 10 -34.5t28.5 -18.5t32.5 -6.5t34 -1.5q108 0 108 61q0 52 -69 52zM230 449q-37 0 -60 -25t-23 -70v-1q0 -49 22 -76t61 -27t61 27t22 76v1q0 45 -23 70t-60 25zM49 353q0 76 49 126.5t132 50.5q19 0 76 -10h132v-73 l-63 -6q36 -31 36 -98q0 -70 -50.5 -119t-130.5 -49q-46 0 -81 20q-23 -17 -23 -43q0 -19 14 -29.5t29.5 -12.5t40.5 -2h24h39q85 0 120.5 -37.5t35.5 -95.5q0 -145 -192 -145q-24 0 -46 2t-51.5 10.5t-50.5 22t-36 39.5t-15 60q0 59 52 100q-44 25 -44 79q0 59 48 90 q-45 47 -45 120zM121 706h50q5 -65 68 -65t68 65h50q-8 -122 -118 -122t-118 122z"/>
<glyph glyph-name="Gdotaccent" horiz-adv-x="631" unicode="Ġ" d="M363 710q109 0 196 -58l-40 -83q-21 14 -63.5 29t-88.5 15q-100 0 -158.5 -76t-58.5 -187q0 -112 60.5 -187.5t155.5 -75.5q68 0 118 51v147h-147v86h249v-269q-90 -112 -230 -112q-134 0 -225.5 100.5t-91.5 259.5t92.5 259.5t231.5 100.5zM304 804q0 22 14.5 37.5 t35.5 15.5q22 0 37 -15.5t15 -37.5t-15 -37t-37 -15q-21 0 -35.5 15t-14.5 37z"/>
<glyph glyph-name="gdotaccent" horiz-adv-x="465" unicode="ġ" d="M271 29h-42q-50 0 -77 8q-25 -21 -25 -60q0 -21 10 -34.5t28.5 -18.5t32.5 -6.5t34 -1.5q108 0 108 61q0 52 -69 52zM230 449q-37 0 -60 -25t-23 -70v-1q0 -49 22 -76t61 -27t61 27t22 76v1q0 45 -23 70t-60 25zM49 353q0 76 49 126.5t132 50.5q19 0 76 -10h132v-73 l-63 -6q36 -31 36 -98q0 -70 -50.5 -119t-130.5 -49q-46 0 -81 20q-23 -17 -23 -43q0 -19 14 -29.5t29.5 -12.5t40.5 -2h24h39q85 0 120.5 -37.5t35.5 -95.5q0 -145 -192 -145q-24 0 -46 2t-51.5 10.5t-50.5 22t-36 39.5t-15 60q0 59 52 100q-44 25 -44 79q0 59 48 90 q-45 47 -45 120zM176 644q0 22 15 37.5t36 15.5q22 0 37 -15.5t15 -37.5t-15 -37.5t-37 -15.5q-21 0 -36 15.5t-15 37.5z"/>
<glyph glyph-name="Gcommaaccent" horiz-adv-x="631" unicode="Ģ" d="M363 710q109 0 196 -58l-40 -83q-21 14 -63.5 29t-88.5 15q-100 0 -158.5 -76t-58.5 -187q0 -112 60.5 -187.5t155.5 -75.5q68 0 118 51v147h-147v86h249v-269q-90 -112 -230 -112q-134 0 -225.5 100.5t-91.5 259.5t92.5 259.5t231.5 100.5zM351 -85q26 0 40 -20t14 -51 q0 -70 -73 -113l-16 29q44 36 43 83q-4 -12 -19 -12t-24.5 11.5t-9.5 26.5q0 19 12.5 32.5t32.5 13.5z"/>
<glyph glyph-name="gcommaaccent" horiz-adv-x="465" unicode="ģ" d="M271 29h-42q-50 0 -77 8q-25 -21 -25 -60q0 -21 10 -34.5t28.5 -18.5t32.5 -6.5t34 -1.5q108 0 108 61q0 52 -69 52zM230 449q-37 0 -60 -25t-23 -70v-1q0 -49 22 -76t61 -27t61 27t22 76v1q0 45 -23 70t-60 25zM49 353q0 76 49 126.5t132 50.5q19 0 76 -10h132v-73 l-63 -6q36 -31 36 -98q0 -70 -50.5 -119t-130.5 -49q-46 0 -81 20q-23 -17 -23 -43q0 -19 14 -29.5t29.5 -12.5t40.5 -2h24h39q85 0 120.5 -37.5t35.5 -95.5q0 -145 -192 -145q-24 0 -46 2t-51.5 10.5t-50.5 22t-36 39.5t-15 60q0 59 52 100q-44 25 -44 79q0 59 48 90 q-45 47 -45 120zM237 590q-26 0 -40 20t-14 51q0 70 73 113l16 -29q-44 -36 -43 -83q4 12 19 12t24.5 -11.5t9.5 -26.5q0 -19 -12.5 -32.5t-32.5 -13.5z"/>
<glyph glyph-name="Hcircumflex" horiz-adv-x="645" unicode="Ĥ" d="M76 700h106v-301h280v301h106v-700h-106v293h-280v-293h-106v700zM262 747h-70l97 133h78l97 -133h-70l-66 91z"/>
<glyph glyph-name="hcircumflex" horiz-adv-x="515" unicode="ĥ" d="M162 0h-103v732h103v-287q12 29 47 57t93 28q68 0 112.5 -52.5t44.5 -162.5v-315h-103v320q0 57 -24.5 87.5t-64.5 30.5q-50 0 -77.5 -37t-27.5 -92v-309zM47 750h-70l97 133h78l97 -133h-70l-66 91z"/>
<glyph glyph-name="Hbar" horiz-adv-x="651" unicode="Ħ" d="M188 399h280v124h-280v-124zM82 700h106v-124h280v124h106v-124h52v-53h-52v-523h-106v293h-280v-293h-106v523h-50v53h50v124z"/>
<glyph glyph-name="hbar" horiz-adv-x="517" unicode="ħ" d="M164 0h-103v603h-59v38h59v91h103v-91h114v-38h-114v-158q12 29 47 57t93 28q68 0 112.5 -52.5t44.5 -162.5v-315h-103v320q0 57 -24.5 87.5t-64.5 30.5q-50 0 -77.5 -37t-27.5 -92v-309z"/>
<glyph glyph-name="Itilde" horiz-adv-x="261" unicode="Ĩ" d="M77 700h107v-700h-107v700zM20 763l-28 24q39 76 93 76q24 0 58 -21.5t53 -21.5q24 0 47 34l27 -22q-37 -78 -92 -78q-26 0 -58.5 21t-51.5 21q-26 0 -48 -33z"/>
<glyph glyph-name="itilde" horiz-adv-x="240" unicode="ĩ" d="M31 520h148v-520h-103v436l-45 11v73zM-1 605l-28 24q39 76 93 76q24 0 58 -21.5t53 -21.5q24 0 47 34l27 -22q-37 -78 -92 -78q-26 0 -58.5 21t-51.5 21q-26 0 -48 -33z"/>
<glyph glyph-name="Imacron" horiz-adv-x="260" unicode="Ī" d="M77 700h107v-700h-107v700zM-1 829h262v-64h-262v64z"/>
<glyph glyph-name="imacron" horiz-adv-x="240" unicode="ī" d="M30 520h148v-520h-103v436l-45 11v73zM-22 669h263v-64h-263v64z"/>
<glyph glyph-name="Ibreve" horiz-adv-x="261" unicode="Ĭ" d="M77 700h107v-700h-107v700zM12 874h50q5 -65 68 -65t68 65h50q-8 -122 -118 -122t-118 122z"/>
<glyph glyph-name="ibreve" horiz-adv-x="241" unicode="ĭ" d="M31 520h148v-520h-103v436l-45 11v73zM-6 706h50q5 -65 68 -65t68 65h50q-8 -122 -118 -122t-118 122z"/>
<glyph glyph-name="Iogonek" horiz-adv-x="259" unicode="Į" d="M74 700h107v-700q-31 -9 -47.5 -35.5t-16.5 -51.5q0 -46 39 -46q13 0 24 4l9 -36q-22 -14 -56 -14q-33 0 -53 24.5t-20 59.5q0 52 45 95h-31v700z"/>
<glyph glyph-name="iogonek" horiz-adv-x="243" unicode="į" d="M120 597q-27 0 -44.5 19t-17.5 46t17.5 46t44.5 19t44.5 -19t17.5 -46t-17.5 -46t-44.5 -19zM32 520h148v-520q-60 -20 -60 -87q0 -46 39 -46q13 0 24 4l9 -36q-22 -14 -56 -14q-33 0 -53 24.5t-20 59.5q0 56 41 95h-27v436l-45 11v73z"/>
<glyph glyph-name="Idotaccent" horiz-adv-x="259" unicode="İ" d="M76 700h107v-700h-107v700zM79 804q0 22 14.5 37.5t35.5 15.5q22 0 37 -15.5t15 -37.5t-15 -37t-37 -15q-21 0 -35.5 15t-14.5 37z"/>
<glyph glyph-name="dotlessi" horiz-adv-x="241" unicode="ı" d="M31 520h148v-520h-103v436l-45 11v73z"/>
<glyph glyph-name="Jcircumflex" horiz-adv-x="439" unicode="Ĵ" d="M191 -10q-39 0 -71.5 10.5t-55.5 30t-35 33.5t-26 34l67 60q16 -21 27 -32.5t35 -25t52 -13.5q46 0 68 30.5t22 78.5v504h106v-478q0 -110 -48.5 -171t-140.5 -61zM262 747h-70l97 133h78l97 -133h-70l-66 91z"/>
<glyph glyph-name="jcircumflex" horiz-adv-x="245" unicode="ĵ" d="M51 589h-70l97 133h78l97 -133h-70l-66 91zM38 -84q20 0 31 15t11 56v449l-45 11v73h148v-514q0 -176 -129 -176q-39 0 -72 14l16 77q20 -5 40 -5z"/>
<glyph glyph-name="Kcommaaccent" horiz-adv-x="564" unicode="Ķ" d="M76 0v700h107l-2 -350l2 -1l245 351h122l-220 -314l231 -386h-124l-179 309l-75 -101v-208h-107zM288 -85q26 0 40 -20t14 -51q0 -70 -73 -113l-16 29q44 36 43 83q-4 -12 -19 -12t-24.5 11.5t-9.5 26.5q0 19 12.5 32.5t32.5 13.5z"/>
<glyph glyph-name="kcommaaccent" horiz-adv-x="454" unicode="ķ" d="M62 732h103v-449l170 237h108l-172 -237l167 -283h-106l-119 207l-48 -62v-145h-103v732zM231 -85q26 0 40 -20t14 -51q0 -70 -73 -113l-16 29q44 36 43 83q-4 -12 -19 -12t-24.5 11.5t-9.5 26.5q0 19 12.5 32.5t32.5 13.5z"/>
<glyph glyph-name="kgreenlandic" horiz-adv-x="454" unicode="ĸ" d="M62 520h103v-237l170 237h108l-172 -237l167 -283h-106l-119 207l-48 -62v-145h-103v520z"/>
<glyph glyph-name="Lacute" horiz-adv-x="486" unicode="Ĺ" d="M76 700h106v-603h290v-97h-396v700zM160 922l72 -36l-67 -139h-66z"/>
<glyph glyph-name="lacute" horiz-adv-x="251" unicode="ĺ" d="M66 732h103v-618q0 -35 27 -35l30 4v-82q-42 -11 -74 -11q-86 0 -86 113v629zM152 935l72 -36l-67 -139h-66z"/>
<glyph glyph-name="Lcommaaccent" horiz-adv-x="486" unicode="Ļ" d="M76 700h106v-603h290v-97h-396v700zM277 -85q26 0 40 -20t14 -51q0 -70 -73 -113l-16 29q44 36 43 83q-4 -12 -19 -12t-24.5 11.5t-9.5 26.5q0 19 12.5 32.5t32.5 13.5z"/>
<glyph glyph-name="lcommaaccent" horiz-adv-x="252" unicode="ļ" d="M66 732h103v-618q0 -35 27 -35l30 4v-82q-42 -11 -74 -11q-86 0 -86 113v629zM136 -85q26 0 40 -20t14 -51q0 -70 -73 -113l-16 29q44 36 43 83q-4 -12 -19 -12t-24.5 11.5t-9.5 26.5q0 19 12.5 32.5t32.5 13.5z"/>
<glyph glyph-name="Lcaron" horiz-adv-x="488" unicode="Ľ" d="M76 700h106v-603h290v-97h-396v700zM325 700h80q0 -50 -18.5 -105.5t-40.5 -83.5l-48 20q27 64 27 169z"/>
<glyph glyph-name="lcaron" horiz-adv-x="289" unicode="ľ" d="M65 732h103v-618q0 -35 27 -35l30 4v-82q-42 -11 -74 -11q-86 0 -86 113v629zM278 732h80q0 -50 -18.5 -105.5t-40.5 -83.5l-48 20q27 64 27 169z"/>
<glyph glyph-name="Lslash" horiz-adv-x="505" unicode="Ł" d="M90 700h106v-313l134 92v-53l-134 -92v-237h290v-97h-396v261l-85 -58v53l85 58v386z"/>
<glyph glyph-name="lslash" horiz-adv-x="296" unicode="ł" d="M79 732h103v-325l107 73v-76l-107 -72v-218q0 -35 27 -35l30 4v-82q-42 -11 -74 -11q-86 0 -86 113v161l-74 -49v72l74 50v395z"/>
<glyph glyph-name="Nacute" horiz-adv-x="633" unicode="Ń" d="M76 700h112l267 -518h2l-6 293v225h106v-700h-112l-267 524h-2l6 -246v-278h-106v700zM338 922l72 -36l-67 -139h-66z"/>
<glyph glyph-name="nacute" horiz-adv-x="519" unicode="ń" d="M62 520h82l18 -83q8 27 44.5 60t97.5 33q69 0 113.5 -52.5t44.5 -162.5v-315h-103v320q0 57 -24 87.5t-66 30.5q-49 0 -76.5 -39.5t-27.5 -94.5v-304h-103v520zM279 764l72 -36l-67 -139h-66z"/>
<glyph glyph-name="Ncommaaccent" horiz-adv-x="633" unicode="Ņ" d="M76 700h112l267 -518h2l-6 293v225h106v-700h-112l-267 524h-2l6 -246v-278h-106v700zM312 -85q26 0 40 -20t14 -51q0 -70 -73 -113l-16 29q44 36 43 83q-4 -12 -19 -12t-24.5 11.5t-9.5 26.5q0 19 12.5 32.5t32.5 13.5z"/>
<glyph glyph-name="ncommaaccent" horiz-adv-x="519" unicode="ņ" d="M62 520h82l18 -83q8 27 44.5 60t97.5 33q69 0 113.5 -52.5t44.5 -162.5v-315h-103v320q0 57 -24 87.5t-66 30.5q-49 0 -76.5 -39.5t-27.5 -94.5v-304h-103v520zM265 -85q26 0 40 -20t14 -51q0 -70 -73 -113l-16 29q44 36 43 83q-4 -12 -19 -12t-24.5 11.5t-9.5 26.5 q0 19 12.5 32.5t32.5 13.5z"/>
<glyph glyph-name="Ncaron" horiz-adv-x="633" unicode="Ň" d="M76 700h112l267 -518h2l-6 293v225h106v-700h-112l-267 524h-2l6 -246v-278h-106v700zM194 880h70l66 -91l63 91h71l-101 -133h-72z"/>
<glyph glyph-name="ncaron" horiz-adv-x="519" unicode="ň" d="M62 520h82l18 -83q8 27 44.5 60t97.5 33q69 0 113.5 -52.5t44.5 -162.5v-315h-103v320q0 57 -24 87.5t-66 30.5q-49 0 -76.5 -39.5t-27.5 -94.5v-304h-103v520zM129 722h70l66 -91l63 91h71l-101 -133h-72z"/>
<glyph glyph-name="Eng" horiz-adv-x="640" unicode="Ŋ" d="M564 700v-709q-1 -80 -42.5 -113.5t-127.5 -45.5l-16 71q43 14 59 32.5t17 63.5l-271 518h-2l4 -235v-282h-108v700h116l265 -505h2l-4 234v271h108z"/>
<glyph glyph-name="eng" horiz-adv-x="519" unicode="ŋ" d="M62 520h82l18 -82q8 27 44 59.5t97 32.5q70 0 114.5 -52t44.5 -163v-315q-1 -142 -164 -170l-19 68q39 13 59.5 30.5t20.5 49.5v342q0 57 -24 87.5t-66 30.5q-49 0 -76.5 -39.5t-27.5 -94.5v-304h-103v520z"/>
<glyph glyph-name="Omacron" horiz-adv-x="695" unicode="Ō" d="M150 350q0 -117 53 -190t145 -73q93 0 145.5 73t52.5 190q0 114 -54 188.5t-144 74.5q-89 0 -143.5 -74.5t-54.5 -188.5zM40 351q0 158 84 258.5t224 100.5t224 -100.5t84 -258.5q0 -157 -82 -259t-226 -102t-226 102t-82 259zM219 829h262v-64h-262v64z"/>
<glyph glyph-name="omacron" horiz-adv-x="530" unicode="ō" d="M265 438q-61 0 -93.5 -50t-32.5 -128t33 -128t93 -50t93 50t33 128t-32.5 128t-93.5 50zM265 530q104 0 168 -75.5t64 -194.5t-64 -194.5t-168 -75.5t-168 75.5t-64 194.5t64 194.5t168 75.5zM135 669h262v-64h-262v64z"/>
<glyph glyph-name="Obreve" horiz-adv-x="695" unicode="Ŏ" d="M150 350q0 -117 53 -190t145 -73q93 0 145.5 73t52.5 190q0 114 -54 188.5t-144 74.5q-89 0 -143.5 -74.5t-54.5 -188.5zM40 351q0 158 84 258.5t224 100.5t224 -100.5t84 -258.5q0 -157 -82 -259t-226 -102t-226 102t-82 259zM231 874h50q5 -65 68 -65t68 65h50 q-8 -122 -118 -122t-118 122z"/>
<glyph glyph-name="obreve" horiz-adv-x="530" unicode="ŏ" d="M265 438q-61 0 -93.5 -50t-32.5 -128t33 -128t93 -50t93 50t33 128t-32.5 128t-93.5 50zM265 530q104 0 168 -75.5t64 -194.5t-64 -194.5t-168 -75.5t-168 75.5t-64 194.5t64 194.5t168 75.5zM147 706h50q5 -65 68 -65t68 65h50q-8 -122 -118 -122t-118 122z"/>
<glyph glyph-name="Ohungarumlaut" horiz-adv-x="695" unicode="Ő" d="M150 350q0 -117 53 -190t145 -73q93 0 145.5 73t52.5 190q0 114 -54 188.5t-144 74.5q-89 0 -143.5 -74.5t-54.5 -188.5zM40 351q0 158 84 258.5t224 100.5t224 -100.5t84 -258.5q0 -157 -82 -259t-226 -102t-226 102t-82 259zM430 922l72 -36l-67 -139h-66zM298 922 l72 -36l-67 -139h-66z"/>
<glyph glyph-name="ohungarumlaut" horiz-adv-x="530" unicode="ő" d="M265 438q-61 0 -93.5 -50t-32.5 -128t33 -128t93 -50t93 50t33 128t-32.5 128t-93.5 50zM265 530q104 0 168 -75.5t64 -194.5t-64 -194.5t-168 -75.5t-168 75.5t-64 194.5t64 194.5t168 75.5zM348 764l72 -36l-67 -139h-66zM216 764l72 -36l-67 -139h-66z"/>
<glyph glyph-name="OE" horiz-adv-x="1022" unicode="Œ" d="M151 350q0 -117 53 -190t145 -73q93 0 145.5 73t52.5 190q0 114 -54 188.5t-144 74.5q-89 0 -143.5 -74.5t-54.5 -188.5zM41 351q0 158 83.5 258.5t223.5 100.5h2q125 0 199 -92v82h424v-97h-316v-215h273v-93h-273v-198h324v-97h-432v82q-75 -91 -199 -91h-2 q-143 0 -225 101.5t-82 258.5z"/>
<glyph glyph-name="oe" horiz-adv-x="845" unicode="œ" d="M570 298h221v6q0 54 -27.5 94t-78.5 40q-47 0 -79 -37.5t-36 -102.5zM264 438q-61 0 -93.5 -50t-32.5 -128t33 -128t93 -50t93 50t33 128t-32.5 128t-93.5 50zM264 530q78 0 134.5 -43t80.5 -118q24 73 78 117t126 44q94 0 149.5 -70t55.5 -175q0 -38 -4 -61h-313 q4 -66 44 -104t103 -38q57 0 121 31l27 -81q-76 -42 -166 -42q-78 0 -136.5 43.5t-84.5 117.5q-24 -74 -81 -117.5t-134 -43.5q-104 0 -168 75.5t-64 194.5t64 194.5t168 75.5z"/>
<glyph glyph-name="Racute" horiz-adv-x="581" unicode="Ŕ" d="M184 603v-223h135q49 0 81 31t32 81q0 48 -31.5 79.5t-81.5 31.5h-135zM78 700h251q93 0 150 -57.5t57 -150.5q0 -143 -125 -193l146 -299h-116l-134 284h-123v-284h-106v700zM285 922l72 -36l-67 -139h-66z"/>
<glyph glyph-name="racute" horiz-adv-x="318" unicode="ŕ" d="M62 520h81l14 -102q9 38 42 71.5t97 33.5v-95q-131 0 -131 -151v-277h-103v520zM199 764l72 -36l-67 -139h-66z"/>
<glyph glyph-name="Rcommaaccent" horiz-adv-x="581" unicode="Ŗ" d="M184 603v-223h135q49 0 81 31t32 81q0 48 -31.5 79.5t-81.5 31.5h-135zM78 700h251q93 0 150 -57.5t57 -150.5q0 -143 -125 -193l146 -299h-116l-134 284h-123v-284h-106v700zM288 -85q26 0 40 -20t14 -51q0 -70 -73 -113l-16 29q44 36 43 83q-4 -12 -19 -12t-24.5 11.5 t-9.5 26.5q0 19 12.5 32.5t32.5 13.5z"/>
<glyph glyph-name="rcommaaccent" horiz-adv-x="318" unicode="ŗ" d="M62 520h81l14 -102q9 38 42 71.5t97 33.5v-95q-131 0 -131 -151v-277h-103v520zM112 -85q26 0 40 -20t14 -51q0 -70 -73 -113l-16 29q44 36 43 83q-4 -12 -19 -12t-24.5 11.5t-9.5 26.5q0 19 12.5 32.5t32.5 13.5z"/>
<glyph glyph-name="Rcaron" horiz-adv-x="581" unicode="Ř" d="M184 603v-223h135q49 0 81 31t32 81q0 48 -31.5 79.5t-81.5 31.5h-135zM78 700h251q93 0 150 -57.5t57 -150.5q0 -143 -125 -193l146 -299h-116l-134 284h-123v-284h-106v700zM151 880h70l66 -91l63 91h71l-101 -133h-72z"/>
<glyph glyph-name="rcaron" horiz-adv-x="317" unicode="ř" d="M61 520h81l14 -102q9 38 42 71.5t97 33.5v-95q-131 0 -131 -151v-277h-103v520zM52 722h70l66 -91l63 91h71l-101 -133h-72z"/>
<glyph glyph-name="Sacute" horiz-adv-x="505" unicode="Ś" d="M247 -10q-104 0 -208 52l34 85q1 -1 10 -5t16 -7t19 -8t24.5 -8.5t27 -6.5t31 -5t33.5 -2q67 0 100 28t33 70q0 30 -17.5 52t-46 37t-62.5 28.5t-68 30.5t-62.5 39.5t-46 60.5t-17.5 87q0 94 60 143t156 49q94 0 190 -46l-32 -84q-1 0 -8 3t-16 7t-23 8.5t-29 8t-33.5 6 t-36.5 2.5q-60 0 -92 -26t-32 -67q0 -30 17.5 -52t46 -36t62.5 -27.5t68 -31t62.5 -40.5t46 -61t17.5 -89q0 -100 -63 -147.5t-161 -47.5zM273 922l72 -36l-67 -139h-66z"/>
<glyph glyph-name="sacute" horiz-adv-x="408" unicode="ś" d="M205 -10q-82 0 -168 42l27 78q75 -34 130 -34q83 0 83 64q0 17 -7 29.5t-24.5 23t-28.5 15.5t-38 16q-143 55 -143 157q0 74 49.5 111.5t123.5 37.5q72 0 150 -37l-27 -77q-56 28 -113 28q-81 0 -81 -61q0 -16 7 -28t24 -22t27.5 -14.5t36.5 -14.5q29 -10 50.5 -21.5 t45 -30t36.5 -47t13 -64.5q0 -75 -48.5 -113t-124.5 -38zM220 764l72 -36l-67 -139h-66z"/>
<glyph glyph-name="Scircumflex" horiz-adv-x="505" unicode="Ŝ" d="M247 -10q-104 0 -208 52l34 85q1 -1 10 -5t16 -7t19 -8t24.5 -8.5t27 -6.5t31 -5t33.5 -2q67 0 100 28t33 70q0 30 -17.5 52t-46 37t-62.5 28.5t-68 30.5t-62.5 39.5t-46 60.5t-17.5 87q0 94 60 143t156 49q94 0 190 -46l-32 -84q-1 0 -8 3t-16 7t-23 8.5t-29 8t-33.5 6 t-36.5 2.5q-60 0 -92 -26t-32 -67q0 -30 17.5 -52t46 -36t62.5 -27.5t68 -31t62.5 -40.5t46 -61t17.5 -89q0 -100 -63 -147.5t-161 -47.5zM201 747h-70l97 133h78l97 -133h-70l-66 91z"/>
<glyph glyph-name="scircumflex" horiz-adv-x="408" unicode="ŝ" d="M205 -10q-82 0 -168 42l27 78q75 -34 130 -34q83 0 83 64q0 17 -7 29.5t-24.5 23t-28.5 15.5t-38 16q-143 55 -143 157q0 74 49.5 111.5t123.5 37.5q72 0 150 -37l-27 -77q-56 28 -113 28q-81 0 -81 -61q0 -16 7 -28t24 -22t27.5 -14.5t36.5 -14.5q29 -10 50.5 -21.5 t45 -30t36.5 -47t13 -64.5q0 -75 -48.5 -113t-124.5 -38zM146 589h-70l97 133h78l97 -133h-70l-66 91z"/>
<glyph glyph-name="Scedilla" horiz-adv-x="506" unicode="Ş" d="M214 -99l-17 20l19 71q-89 6 -177 50l34 85q1 -1 10 -5t16 -7t19 -8t24.5 -8.5t27 -6.5t31 -5t33.5 -2q67 0 100 28t33 70q0 30 -17.5 52t-46 37t-62.5 28.5t-68 30.5t-62.5 39.5t-46 60.5t-17.5 87q0 94 60 143t156 49q94 0 190 -46l-32 -84q-1 0 -8 3t-16 7t-23 8.5 t-29 8t-33.5 6t-36.5 2.5q-60 0 -92 -26t-32 -67q0 -30 17.5 -52t46 -36t62.5 -27.5t68 -31t62.5 -40.5t46 -61t17.5 -89q0 -95 -57 -142.5t-148 -51.5l-10 -53q7 1 11 1q28 0 49 -16.5t21 -52.5q0 -38 -27 -56t-69 -18q-32 0 -65 11l9 39q28 -7 45 -7q40 0 40 32t-34 32z "/>
<glyph glyph-name="scedilla" horiz-adv-x="409" unicode="ş" d="M157 -99l-17 20l21 72q-64 9 -124 39l27 78q75 -34 130 -34q83 0 83 64q0 17 -7 29.5t-24.5 23t-28.5 15.5t-38 16q-143 55 -143 157q0 74 49.5 111.5t123.5 37.5q72 0 150 -37l-27 -77q-56 28 -113 28q-81 0 -81 -61q0 -16 7 -28t24 -22t27.5 -14.5t36.5 -14.5 q29 -10 50.5 -21.5t45 -30t36.5 -47t13 -64.5q0 -74 -47 -111.5t-120 -39.5l-12 -52q7 1 11 1q28 0 49 -16.5t21 -52.5q0 -38 -27.5 -56t-69.5 -18q-31 0 -64 11l9 39q28 -7 45 -7q40 0 40 32t-34 32z"/>
<glyph glyph-name="Scaron" horiz-adv-x="505" unicode="Š" d="M247 -10q-104 0 -208 52l34 85q1 -1 10 -5t16 -7t19 -8t24.5 -8.5t27 -6.5t31 -5t33.5 -2q67 0 100 28t33 70q0 30 -17.5 52t-46 37t-62.5 28.5t-68 30.5t-62.5 39.5t-46 60.5t-17.5 87q0 94 60 143t156 49q94 0 190 -46l-32 -84q-1 0 -8 3t-16 7t-23 8.5t-29 8t-33.5 6 t-36.5 2.5q-60 0 -92 -26t-32 -67q0 -30 17.5 -52t46 -36t62.5 -27.5t68 -31t62.5 -40.5t46 -61t17.5 -89q0 -100 -63 -147.5t-161 -47.5zM127 880h70l66 -91l63 91h71l-101 -133h-72z"/>
<glyph glyph-name="scaron" horiz-adv-x="408" unicode="š" d="M205 -10q-82 0 -168 42l27 78q75 -34 130 -34q83 0 83 64q0 17 -7 29.5t-24.5 23t-28.5 15.5t-38 16q-143 55 -143 157q0 74 49.5 111.5t123.5 37.5q72 0 150 -37l-27 -77q-56 28 -113 28q-81 0 -81 -61q0 -16 7 -28t24 -22t27.5 -14.5t36.5 -14.5q29 -10 50.5 -21.5 t45 -30t36.5 -47t13 -64.5q0 -75 -48.5 -113t-124.5 -38zM74 722h70l66 -91l63 91h71l-101 -133h-72z"/>
<glyph glyph-name="Tcommaaccent" horiz-adv-x="504" unicode="Ţ" d="M11 700h483v-94h-187v-606h-107v606h-189v94zM250 -85q26 0 40 -20t14 -51q0 -70 -73 -113l-16 29q44 36 43 83q-4 -12 -19 -12t-24.5 11.5t-9.5 26.5q0 19 12.5 32.5t32.5 13.5z"/>
<glyph glyph-name="tcommaaccent" horiz-adv-x="320" unicode="ţ" d="M95 670h86v-150h106v-76h-106v-298q0 -39 12 -54.5t40 -15.5q9 0 22 2.5t22 5.5l9 2l4 -78q-47 -18 -91 -18q-67 0 -94 37t-27 118v299h-60v66l60 8zM174 -85q26 0 40 -20t14 -51q0 -70 -73 -113l-16 29q44 36 43 83q-4 -12 -19 -12t-24.5 11.5t-9.5 26.5q0 19 12.5 32.5 t32.5 13.5z"/>
<glyph glyph-name="Tcaron" horiz-adv-x="504" unicode="Ť" d="M11 700h483v-94h-187v-606h-107v606h-189v94zM120 880h70l66 -91l63 91h71l-101 -133h-72z"/>
<glyph glyph-name="tcaron" horiz-adv-x="320" unicode="ť" d="M95 670h86v-150h106v-76h-106v-298q0 -39 12 -54.5t40 -15.5q9 0 22 2.5t22 5.5l9 2l4 -78q-47 -18 -91 -18q-67 0 -94 37t-27 118v299h-60v66l60 8zM277 770h80q0 -50 -18.5 -105.5t-40.5 -83.5l-48 20q27 64 27 169z"/>
<glyph glyph-name="Tbar" horiz-adv-x="507" unicode="Ŧ" d="M12 700h483v-97h-187v-222h128v-56h-128v-325h-107v325h-126v56h126v222h-189v97z"/>
<glyph glyph-name="tbar" horiz-adv-x="321" unicode="ŧ" d="M96 670h86v-150h106v-76h-106v-106h100v-39h-100v-153q0 -39 12 -54.5t40 -15.5q9 0 22 2.5t22 5.5l9 2l4 -78q-47 -18 -91 -18q-67 0 -94 37t-27 118v154h-59v39h59v106h-60v66l60 8z"/>
<glyph glyph-name="Utilde" horiz-adv-x="614" unicode="Ũ" d="M70 700h106v-467q0 -66 36 -106t96 -40t95.5 40t35.5 106v467h106v-463q0 -110 -63.5 -178.5t-173.5 -68.5q-114 0 -176 70t-62 177v463zM200 763l-28 24q39 76 93 76q24 0 58 -21.5t53 -21.5q24 0 47 34l27 -22q-37 -78 -92 -78q-26 0 -58.5 21t-51.5 21q-26 0 -48 -33z "/>
<glyph glyph-name="utilde" horiz-adv-x="520" unicode="ũ" d="M58 520h103v-317q0 -121 90 -121q53 0 78 37t25 93v308h104v-520h-82l-17 76q-40 -86 -146 -86q-65 0 -110 46t-45 153v331zM151 605l-28 24q39 76 93 76q24 0 58 -21.5t53 -21.5q24 0 47 34l27 -22q-37 -78 -92 -78q-26 0 -58.5 21t-51.5 21q-26 0 -48 -33z"/>
<glyph glyph-name="Umacron" horiz-adv-x="614" unicode="Ū" d="M70 700h106v-467q0 -66 36 -106t96 -40t95.5 40t35.5 106v467h106v-463q0 -110 -63.5 -178.5t-173.5 -68.5q-114 0 -176 70t-62 177v463zM177 829h262v-64h-262v64z"/>
<glyph glyph-name="umacron" horiz-adv-x="520" unicode="ū" d="M58 520h103v-317q0 -121 90 -121q53 0 78 37t25 93v308h104v-520h-82l-17 76q-40 -86 -146 -86q-65 0 -110 46t-45 153v331zM127 669h262v-64h-262v64z"/>
<glyph glyph-name="Ubreve" horiz-adv-x="614" unicode="Ŭ" d="M70 700h106v-467q0 -66 36 -106t96 -40t95.5 40t35.5 106v467h106v-463q0 -110 -63.5 -178.5t-173.5 -68.5q-114 0 -176 70t-62 177v463zM190 874h50q5 -65 68 -65t68 65h50q-8 -122 -118 -122t-118 122z"/>
<glyph glyph-name="ubreve" horiz-adv-x="520" unicode="ŭ" d="M58 520h103v-317q0 -121 90 -121q53 0 78 37t25 93v308h104v-520h-82l-17 76q-40 -86 -146 -86q-65 0 -110 46t-45 153v331zM142 706h50q5 -65 68 -65t68 65h50q-8 -122 -118 -122t-118 122z"/>
<glyph glyph-name="Uring" horiz-adv-x="614" unicode="Ů" d="M70 700h106v-467q0 -66 36 -106t96 -40t95.5 40t35.5 106v467h106v-463q0 -110 -63.5 -178.5t-173.5 -68.5q-114 0 -176 70t-62 177v463zM262 840q0 -24 13.5 -37.5t34.5 -13.5t34.5 13.5t13.5 37.5t-13.5 37.5t-34.5 13.5t-34.5 -13.5t-13.5 -37.5zM220 840 q0 40 26.5 65t63.5 25t63.5 -25t26.5 -65t-26.5 -65t-63.5 -25t-63.5 25t-26.5 65z"/>
<glyph glyph-name="uring" horiz-adv-x="520" unicode="ů" d="M58 520h103v-317q0 -121 90 -121q53 0 78 37t25 93v308h104v-520h-82l-17 76q-40 -86 -146 -86q-65 0 -110 46t-45 153v331zM209 679q0 -24 13.5 -37.5t34.5 -13.5t34.5 13.5t13.5 37.5t-13.5 37.5t-34.5 13.5t-34.5 -13.5t-13.5 -37.5zM167 679q0 40 26.5 65t63.5 25 t63.5 -25t26.5 -65t-26.5 -65t-63.5 -25t-63.5 25t-26.5 65z"/>
<glyph glyph-name="Uhungarumlaut" horiz-adv-x="614" unicode="Ű" d="M70 700h106v-467q0 -66 36 -106t96 -40t95.5 40t35.5 106v467h106v-463q0 -110 -63.5 -178.5t-173.5 -68.5q-114 0 -176 70t-62 177v463zM388 922l72 -36l-67 -139h-66zM256 922l72 -36l-67 -139h-66z"/>
<glyph glyph-name="uhungarumlaut" horiz-adv-x="520" unicode="ű" d="M58 520h103v-317q0 -121 90 -121q53 0 78 37t25 93v308h104v-520h-82l-17 76q-40 -86 -146 -86q-65 0 -110 46t-45 153v331zM343 764l72 -36l-67 -139h-66zM211 764l72 -36l-67 -139h-66z"/>
<glyph glyph-name="Uogonek" horiz-adv-x="614" unicode="Ų" d="M69 700h106v-467q0 -66 36 -106t96 -40t95.5 40t35.5 106v467h106v-463q0 -82 -36 -142.5t-102 -86.5q-23 -14 -37 -47t-14 -57q0 -46 39 -46q13 0 24 4l9 -36q-22 -14 -56 -14t-53.5 24t-19.5 60q0 56 36 95q-9 -1 -27 -1q-114 0 -176 70t-62 177v463z"/>
<glyph glyph-name="uogonek" horiz-adv-x="520" unicode="ų" d="M58 520h103v-317q0 -121 90 -121q53 0 78 37t25 93v308h104v-520q-32 -9 -47 -35.5t-15 -51.5q0 -46 39 -46q13 0 24 4l9 -36q-22 -14 -54 -14q-36 0 -54.5 21.5t-18.5 54.5q0 29 13.5 58t34.5 45h-13l-17 76q-40 -86 -146 -86q-65 0 -110 46t-45 153v331z"/>
<glyph glyph-name="Wcircumflex" horiz-adv-x="857" unicode="Ŵ" d="M376 700h125l120 -559l122 559h109l-164 -703h-134l-117 542l-115 -542h-135l-167 703h114l122 -559zM371 747h-70l97 133h78l97 -133h-70l-66 91z"/>
<glyph glyph-name="wcircumflex" horiz-adv-x="733" unicode="ŵ" d="M315 520h101l94 -382l100 382h98l-137 -520h-120l-85 355l-83 -355h-121l-137 520h100l100 -383zM299 589h-70l97 133h78l97 -133h-70l-66 91z"/>
<glyph glyph-name="Ycircumflex" horiz-adv-x="532" unicode="Ŷ" d="M419 700h107l-210 -417v-283h-103v283l-210 417h113l151 -314h1zM201 747h-70l97 133h78l97 -133h-70l-66 91z"/>
<glyph glyph-name="ycircumflex" horiz-adv-x="487" unicode="ŷ" d="M23 520h108l116 -392l109 392h108l-213 -690h-110l49 160zM181 589h-70l97 133h78l97 -133h-70l-66 91z"/>
<glyph glyph-name="Ydieresis" horiz-adv-x="532" unicode="Ÿ" d="M419 700h107l-210 -417v-283h-103v283l-210 417h113l151 -314h1zM116 805q0 22 15 37.5t35 15.5q23 0 37.5 -15t14.5 -38t-14.5 -37t-37.5 -14q-22 0 -36 14.5t-14 36.5zM311 805q0 22 15 37.5t35 15.5q23 0 38 -15t15 -38q0 -22 -15 -36.5t-38 -14.5q-21 0 -35.5 14.5 t-14.5 36.5z"/>
<glyph glyph-name="Zacute" horiz-adv-x="528" unicode="Ź" d="M43 700h451v-73l-323 -531l1 -2l129 3h190v-97h-462v74l322 529l-1 2l-126 -2h-181v97zM285 922l72 -36l-67 -139h-66z"/>
<glyph glyph-name="zacute" horiz-adv-x="437" unicode="ź" d="M42 520h359v-73l-243 -359v-3l120 2h123v-87h-372v75l244 357v3l-127 -2h-104v87zM242 764l72 -36l-67 -139h-66z"/>
<glyph glyph-name="Zdotaccent" horiz-adv-x="528" unicode="Ż" d="M43 700h451v-73l-323 -531l1 -2l129 3h190v-97h-462v74l322 529l-1 2l-126 -2h-181v97zM209 804q0 22 15 37.5t36 15.5q22 0 37 -15.5t15 -37.5t-15 -37t-37 -15q-21 0 -36 15t-15 37z"/>
<glyph glyph-name="zdotaccent" horiz-adv-x="437" unicode="ż" d="M42 520h359v-73l-243 -359v-3l120 2h123v-87h-372v75l244 357v3l-127 -2h-104v87zM168 644q0 22 15 37.5t36 15.5q22 0 36.5 -15t14.5 -38q0 -22 -14.5 -37.5t-36.5 -15.5t-36.5 15.5t-14.5 37.5z"/>
<glyph glyph-name="Zcaron" horiz-adv-x="528" unicode="Ž" d="M43 700h451v-73l-323 -531l1 -2l129 3h190v-97h-462v74l322 529l-1 2l-126 -2h-181v97zM135 880h70l66 -91l63 91h71l-101 -133h-72z"/>
<glyph glyph-name="zcaron" horiz-adv-x="437" unicode="ž" d="M42 520h359v-73l-243 -359v-3l120 2h123v-87h-372v75l244 357v3l-127 -2h-104v87zM89 722h70l66 -91l63 91h71l-101 -133h-72z"/>
<glyph glyph-name="AEacute" horiz-adv-x="843" unicode="Ǽ" d="M373 603h-32l-122 -330h154v330zM1 0l283 700h511v-97h-316v-215h273v-93h-273v-198h324v-97h-430v181h-189l-70 -181h-113zM550 922l72 -36l-67 -139h-66z"/>
<glyph glyph-name="aeacute" horiz-adv-x="767" unicode="ǽ" d="M440 298h235v6q0 54 -28 95.5t-78 41.5q-54 0 -89.5 -38.5t-39.5 -104.5zM212 76q95 0 133 83q-14 37 -14 79q-42 6 -91 6q-113 0 -113 -87q0 -40 23.5 -60.5t61.5 -20.5zM88 419l-19 81q94 30 172 30q124 0 171 -68q65 68 155 68q94 0 149.5 -70t55.5 -175q0 -38 -4 -61 h-327q4 -67 47 -104.5t114 -37.5q55 0 121 32l27 -82q-76 -42 -170 -42q-136 0 -202 103q-61 -103 -186 -103q-76 0 -121.5 41.5t-45.5 118.5q0 85 54.5 127.5t140.5 42.5q59 0 112 -7q2 15 8 34v1q0 56 -27 74.5t-87 18.5q-70 0 -138 -22zM416 764l72 -36l-67 -139h-66z "/>
<glyph glyph-name="Oslashacute" horiz-adv-x="695" unicode="Ǿ" d="M369 922l72 -36l-67 -139h-66zM546 350q0 107 -49 181l-235 -424q38 -20 86 -20q93 0 145.5 73t52.5 190zM150 350q0 -119 54 -192l237 428q-43 27 -93 27q-89 0 -143.5 -74.5t-54.5 -188.5zM40 351q0 158 84 258.5t224 100.5q79 0 142 -34l31 55h87l-56 -100 q104 -101 104 -280q0 -157 -82 -259t-226 -102q-75 0 -135 29l-30 -54h-86l53 97q-110 99 -110 289z"/>
<glyph glyph-name="oslashacute" horiz-adv-x="530" unicode="ǿ" d="M263 763l72 -36l-67 -139h-66zM265 438q-61 0 -93.5 -50t-32.5 -128q0 -69 25 -115l155 279q-23 14 -54 14zM391 260q0 69 -26 116l-156 -280q25 -14 56 -14q60 0 93 50t33 128zM265 530q56 0 100 -23l29 52h73l-49 -88q79 -76 79 -211q0 -119 -64 -194.5t-168 -75.5 q-56 0 -102 23l-29 -52h-72l49 89q-78 75 -78 210q0 119 64 194.5t168 75.5z"/>
<glyph glyph-name="Scommaaccent" horiz-adv-x="505" unicode="Ș" d="M247 -10q-104 0 -208 52l34 85q1 -1 10 -5t16 -7t19 -8t24.5 -8.5t27 -6.5t31 -5t33.5 -2q67 0 100 28t33 70q0 30 -17.5 52t-46 37t-62.5 28.5t-68 30.5t-62.5 39.5t-46 60.5t-17.5 87q0 94 60 143t156 49q94 0 190 -46l-32 -84q-1 0 -8 3t-16 7t-23 8.5t-29 8t-33.5 6 t-36.5 2.5q-60 0 -92 -26t-32 -67q0 -30 17.5 -52t46 -36t62.5 -27.5t68 -31t62.5 -40.5t46 -61t17.5 -89q0 -100 -63 -147.5t-161 -47.5zM257 -85q26 0 40 -20t14 -51q0 -70 -73 -113l-16 29q44 36 43 83q-4 -12 -19 -12t-24.5 11.5t-9.5 26.5q0 19 12.5 32.5t32.5 13.5z "/>
<glyph glyph-name="scommaaccent" horiz-adv-x="408" unicode="ș" d="M205 -10q-82 0 -168 42l27 78q75 -34 130 -34q83 0 83 64q0 17 -7 29.5t-24.5 23t-28.5 15.5t-38 16q-143 55 -143 157q0 74 49.5 111.5t123.5 37.5q72 0 150 -37l-27 -77q-56 28 -113 28q-81 0 -81 -61q0 -16 7 -28t24 -22t27.5 -14.5t36.5 -14.5q29 -10 50.5 -21.5 t45 -30t36.5 -47t13 -64.5q0 -75 -48.5 -113t-124.5 -38zM208 -85q26 0 40 -20t14 -51q0 -70 -73 -113l-16 29q44 36 43 83q-4 -12 -19 -12t-24.5 11.5t-9.5 26.5q0 19 12.5 32.5t32.5 13.5z"/>
<glyph glyph-name="circumflex" horiz-adv-x="434" unicode="ˆ" d="M155 616h-70l97 133h78l97 -133h-70l-66 91z"/>
<glyph glyph-name="caron" horiz-adv-x="435" unicode="ˇ" d="M84 746h70l66 -91l63 91h71l-101 -133h-72z"/>
<glyph glyph-name="breve" horiz-adv-x="376" unicode="˘" d="M70 716h48q8 -32 23 -48t48 -16q31 0 46.5 15.5t23.5 48.5h47q-8 -123 -117 -123q-111 0 -119 123z"/>
<glyph glyph-name="dotaccent" horiz-adv-x="243" unicode="˙" d="M70 726q0 22 15 37.5t36 15.5q22 0 36.5 -15t14.5 -38q0 -22 -14.5 -37t-36.5 -15t-36.5 15t-14.5 37z"/>
<glyph glyph-name="ring" horiz-adv-x="298" unicode="˚" d="M152 701q-40 0 -40 -51t40 -51t40 51t-40 51zM70 650q0 41 24 65.5t58 24.5t58 -24.5t24 -65.5t-24 -65.5t-58 -24.5t-58 24.5t-24 65.5z"/>
<glyph glyph-name="ogonek" horiz-adv-x="269" unicode="˛" d="M163 32l20 -26q-28 -14 -42 -41t-14 -52q0 -46 39 -46q13 0 24 4l9 -36q-22 -14 -56 -14q-33 0 -53 24.5t-20 59.5q0 43 26 77.5t67 49.5z"/>
<glyph glyph-name="tilde" horiz-adv-x="417" unicode="˜" d="M98 603l-28 24q39 76 93 76q24 0 58 -21.5t53 -21.5q24 0 47 34l27 -22q-37 -78 -92 -78q-26 0 -58.5 21t-51.5 21q-26 0 -48 -33z"/>
<glyph glyph-name="hungarumlaut" horiz-adv-x="393" unicode="˝" d="M252 747l63 -37l-61 -122h-54zM123 747l64 -37l-62 -122h-54z"/>
<glyph glyph-name="Wgrave" horiz-adv-x="857" unicode="Ẁ" d="M376 700h125l120 -559l122 559h109l-164 -703h-134l-117 542l-115 -542h-135l-167 703h114l122 -559zM338 886l72 36l61 -175h-66z"/>
<glyph glyph-name="wgrave" horiz-adv-x="733" unicode="ẁ" d="M315 520h101l94 -382l100 382h98l-137 -520h-120l-85 355l-83 -355h-121l-137 520h100l100 -383zM263 728l72 36l61 -175h-66z"/>
<glyph glyph-name="Wacute" horiz-adv-x="857" unicode="Ẃ" d="M376 700h125l120 -559l122 559h109l-164 -703h-134l-117 542l-115 -542h-135l-167 703h114l122 -559zM468 922l72 -36l-67 -139h-66z"/>
<glyph glyph-name="wacute" horiz-adv-x="733" unicode="ẃ" d="M315 520h101l94 -382l100 382h98l-137 -520h-120l-85 355l-83 -355h-121l-137 520h100l100 -383zM405 761l72 -40l-75 -130h-57z"/>
<glyph glyph-name="Wdieresis" horiz-adv-x="857" unicode="Ẅ" d="M376 700h125l120 -559l122 559h109l-164 -703h-134l-117 542l-115 -542h-135l-167 703h114l122 -559zM283 805q0 22 15 37.5t35 15.5q23 0 38 -15t15 -38q0 -22 -15 -36.5t-38 -14.5q-21 0 -35.5 14.5t-14.5 36.5zM478 805q0 22 15.5 37.5t34.5 15.5q23 0 38.5 -15 t15.5 -38q0 -22 -15.5 -36.5t-38.5 -14.5q-21 0 -35.5 14.5t-14.5 36.5z"/>
<glyph glyph-name="wdieresis" horiz-adv-x="733" unicode="ẅ" d="M315 520h101l94 -382l100 382h98l-137 -520h-120l-85 355l-83 -355h-121l-137 520h100l100 -383zM217 644q0 22 14.5 37t35.5 15q23 0 37.5 -14.5t14.5 -37.5t-14.5 -37.5t-37.5 -14.5q-22 0 -36 14.5t-14 37.5zM412 644q0 22 15.5 37t34.5 15q23 0 38.5 -14.5 t15.5 -37.5t-15.5 -37.5t-38.5 -14.5q-21 0 -35.5 14.5t-14.5 37.5z"/>
<glyph glyph-name="germandbls.case" horiz-adv-x="596" unicode="ẞ" d="M70 446q0 122 57 193t167 71q125 0 217 -113l-106 -197q167 -42 167 -205q0 -103 -61.5 -160.5t-154.5 -57.5q-56 0 -113 18l16 90q36 -14 75 -14q59 0 98.5 31t39.5 99q0 119 -143 130l-26 50l98 192q-46 45 -106 45q-53 0 -86 -44.5t-33 -120.5v-453h-106v446z"/>
<glyph glyph-name="Ygrave" horiz-adv-x="532" unicode="Ỳ" d="M419 700h107l-210 -417v-283h-103v283l-210 417h113l151 -314h1zM176 886l72 36l61 -175h-66z"/>
<glyph glyph-name="ygrave" horiz-adv-x="487" unicode="ỳ" d="M23 520h108l116 -392l109 392h108l-213 -690h-110l49 160zM166 728l72 36l61 -175h-66z"/>
<glyph glyph-name="endash" horiz-adv-x="608" unicode="–" d="M59 372h490v-72h-490v72z"/>
<glyph glyph-name="emdash" horiz-adv-x="764" unicode="—" d="M59 372h646v-72h-646v72z"/>
<glyph glyph-name="quoteleft" horiz-adv-x="229" unicode="‘" d="M122 468q-32 0 -51 26.5t-19 62.5q0 90 94 142l20 -33q-54 -44 -54 -96v-6q4 9 19 9q19 0 31 -13t12 -36q0 -24 -14.5 -40t-37.5 -16z"/>
<glyph glyph-name="quoteright" horiz-adv-x="226" unicode="’" d="M107 700q32 0 51 -26.5t19 -62.5q0 -90 -94 -142l-20 33q55 43 55 96v6q-4 -9 -19 -9q-19 0 -31 13t-12 36q0 24 14.5 40t36.5 16z"/>
<glyph glyph-name="quotesinglbase" horiz-adv-x="230" unicode="‚" d="M108 106q31 0 50 -27t19 -63q0 -90 -93 -142l-21 34q55 41 55 96v6q0 -1 -2.5 -3t-7 -4.5t-9.5 -2.5q-19 0 -31 13.5t-12 36.5t14.5 39.5t37.5 16.5z"/>
<glyph glyph-name="quotedblleft" horiz-adv-x="404" unicode="“" d="M121 468q-32 0 -51 26.5t-19 62.5q0 91 94 142l20 -33q-57 -44 -55 -102q6 9 19 9q19 0 31 -13.5t12 -35.5q0 -24 -14.5 -40t-36.5 -16zM297 468q-32 0 -51 26.5t-19 62.5q0 90 94 142l20 -33q-54 -40 -54 -96v-6q3 9 18 9q20 0 32 -14t12 -35q0 -24 -15 -40t-37 -16z "/>
<glyph glyph-name="quotedblright" horiz-adv-x="403" unicode="”" d="M284 699q32 0 51 -26.5t19 -62.5q0 -90 -94 -142l-20 33q56 45 54 102q-3 -9 -19 -9q-19 0 -31 13.5t-12 35.5q0 24 15 40t37 16zM107 699q32 0 51 -26.5t19 -62.5q0 -90 -94 -142l-20 33q23 16 39.5 43t15.5 59q-6 -9 -19 -9q-20 0 -31.5 14t-11.5 35q0 24 14.5 40 t36.5 16z"/>
<glyph glyph-name="quotedblbase" horiz-adv-x="406" unicode="„" d="M284 106q32 0 51 -27t19 -63q0 -90 -94 -142l-20 34q58 41 55 102q-5 -10 -19 -10q-19 0 -31 13.5t-12 36.5q0 24 14.5 40t36.5 16zM108 106q32 0 51 -27t19 -63q0 -90 -94 -142l-21 34q55 39 55 96v6q-2 -10 -18 -10q-20 0 -32 14t-12 36q0 24 15 40t37 16z"/>
<glyph glyph-name="dagger" horiz-adv-x="511" unicode="†" d="M474 547v-79l-140 14v48zM37 547l141 -17v-48l-141 -14v79zM212 700h88l-12 -598h-64z"/>
<glyph glyph-name="daggerdbl" horiz-adv-x="540" unicode="‡" d="M52 284l140 -17v-48l-140 -16v81zM488 284v-81l-140 16v48zM52 547l140 -17v-48l-140 -14v79zM488 547v-79l-140 14v48zM225 700h90l-12 -700h-65z"/>
<glyph glyph-name="bullet" horiz-adv-x="352" unicode="•" d="M177 457q42 0 71.5 -32t29.5 -78q0 -45 -30 -76.5t-71 -31.5q-42 0 -72.5 32t-30.5 78q0 45 30.5 76.5t72.5 31.5z"/>
<glyph glyph-name="ellipsis" horiz-adv-x="658" unicode="…" d="M441 44q0 23 15.5 39t37.5 16t37 -16t15 -39t-15 -38.5t-37 -15.5t-37.5 16t-15.5 38zM248 44q0 23 15 39t37 16t37.5 -16t15.5 -39q0 -22 -15.5 -38t-37.5 -16t-37 15.5t-15 38.5zM55 44q0 23 15.5 39t37.5 16t37 -16t15 -39t-15 -38.5t-37 -15.5t-37.5 16t-15.5 38z "/>
<glyph glyph-name="perthousand" horiz-adv-x="1053" unicode="‰" d="M885 69q22 0 36 24t14 65q0 42 -14 66t-36 24q-23 0 -36.5 -23.5t-13.5 -65.5q0 -90 50 -90zM885 -10q-63 0 -102.5 46.5t-39.5 120.5t40.5 122.5t103.5 48.5q61 0 100.5 -48t39.5 -122q0 -72 -40.5 -120t-101.5 -48zM541 69q22 0 36 24t14 65q0 42 -14 66t-36 24 q-23 0 -36.5 -23.5t-13.5 -65.5q0 -90 50 -90zM167 451q23 0 36.5 24t13.5 66t-14 65.5t-36 23.5t-36 -24t-14 -65q0 -44 13.5 -67t36.5 -23zM541 -10q-63 0 -102.5 46.5t-39.5 120.5t40.5 122.5t103.5 48.5q61 0 100.5 -48t39.5 -122q0 -72 -40.5 -120t-101.5 -48zM129 0 l342 700h106l-339 -700h-109zM165 373q-62 0 -101 47t-39 119q0 75 40 123t104 48q62 0 101 -47t39 -121t-40 -121.5t-104 -47.5z"/>
<glyph glyph-name="guilsinglleft" horiz-adv-x="308" unicode="‹" d="M211 506l52 -55l-119 -191l119 -192l-52 -54l-176 234v24z"/>
<glyph glyph-name="guilsinglright" horiz-adv-x="308" unicode="›" d="M45 451l52 55l176 -234v-24l-176 -234l-52 54l119 192z"/>
<glyph glyph-name="fraction" horiz-adv-x="353" unicode="⁄" d="M263 700h83l-254 -700h-84z"/>
<glyph glyph-name="Euro" horiz-adv-x="674" unicode="€" d="M34 386l19 55h69q23 125 112 197t213 72q109 -3 187 -53l-30 -84q-65 41 -159 41q-72 0 -130 -45t-79 -128h292l-19 -55h-283q-2 -12 -2 -36q0 -22 3 -41h255l-19 -55h-226q21 -82 78.5 -125t129.5 -43q93 0 165 39v-99q-75 -36 -163 -36q-122 0 -211 70t-113 194h-85 l19 55h57q-1 13 -1 41q0 24 1 36h-80z"/>
<glyph glyph-name="trademark" horiz-adv-x="684" unicode="™" d="M58 700h238v-60h-88v-252h-62v252h-88v60zM557 700h58v-312h-56v186l-62 -146h-42l-62 146v-186h-56v312h58l81 -204z"/>
<glyph glyph-name="commaaccent" horiz-adv-x="226" unicode="" d="M107 -85q26 0 40 -20t14 -51q0 -70 -73 -113l-16 29q44 36 43 83q-4 -12 -19 -12t-24.5 11.5t-9.5 26.5q0 19 12.5 32.5t32.5 13.5z"/>
<glyph glyph-name="apple" horiz-adv-x="1124" unicode="" d="M1057 479h8v-31h30v-9h-30v-65q0 -25 19 -25q10 0 15 2l1 -8q-6 -3 -17 -3q-28 0 -28 35v64h-16v8l16 1zM922 394q0 -19 12.5 -32.5t31.5 -13.5t32.5 13.5t13.5 32.5q0 20 -13 33t-33 13q-19 0 -31.5 -13t-12.5 -33zM966 449q24 0 40 -15.5t16 -39.5q0 -23 -16.5 -39.5 t-39.5 -16.5q-22 0 -38 16.5t-16 39.5t15.5 39t38.5 16zM794 394q0 -20 12 -33t30 -13t30.5 13.5t12.5 32.5t-12.5 32.5t-30.5 13.5t-30 -13t-12 -33zM889 394q0 -23 -14.5 -39.5t-37.5 -16.5q-33 0 -42 26v-59h-11v143h8l2 -25q12 26 43 26q22 0 37 -16t15 -39zM665 398h81 q0 16 -10.5 29t-27.5 13t-29.5 -12.5t-13.5 -29.5zM707 449q22 0 36 -16t14 -38l-1 -5h-91q1 -18 13.5 -30t31.5 -12q16 0 34 8l4 -8q-20 -10 -38 -10q-24 0 -40 16.5t-16 39.5t15.5 39t37.5 16zM531 394q0 -20 12 -33.5t31 -13.5q18 0 30 13.5t12 33.5q0 19 -12.5 32.5 t-29.5 13.5q-19 0 -31 -13t-12 -33zM615 492h10v-152h-8l-1 25q-13 -27 -43 -27q-23 0 -38 16.5t-15 39.5t15 39t38 16q29 0 42 -25v68zM370 402h59q-2 28 -27 28q-27 0 -32 -28zM400 450q23 0 36.5 -16t13.5 -39l-1 -10h-79q3 -28 34 -28q11 0 32 7l7 -16q-17 -10 -40 -10 q-24 0 -40 15.5t-16 39.5q0 25 15 41t38 16zM243 394q0 -16 9 -26t24 -10q14 0 23 10t9 26t-9 26t-23 10t-23.5 -10t-9.5 -26zM331 394q0 -24 -14 -40t-38 -16t-34 15v-48h-23v143h18l3 -16q11 18 36 18q23 0 37.5 -16t14.5 -40zM98 448h23l31 -84l30 84h24l-45 -113 q-13 -30 -33 -30q-10 0 -21 3l4 20q6 -2 12 -2q10 0 17 14zM44 479h18v-31h25v-17h-25v-56q0 -16 14 -16q2 0 6 0.5t7 0.5l4 -16q-12 -4 -20 -4q-33 0 -33 37v54h-15v14l15 3zM491 492v-192h-4v192h4z"/>
<glyph glyph-name="a.alt" d="M237 530q50 0 90 -25t56 -63l15 78h84v-520h-101v77q-21 -42 -62 -64.5t-87 -22.5q-89 0 -143 78t-54 191q0 114 56 192.5t146 78.5zM265 438q-54 0 -89 -51t-35 -128t34.5 -127t89.5 -50q53 0 87.5 49.5t34.5 127.5t-34 128.5t-88 50.5z"/>
<glyph glyph-name="g.alt" d="M264 125q57 0 89 46t32 111t-32 110.5t-89 45.5q-56 0 -88.5 -44.5t-32.5 -111.5q0 -68 32.5 -112.5t88.5 -44.5zM66 -118l33 82q73 -40 142 -40q60 0 99 34.5t39 100.5v55q-17 -36 -55 -57.5t-84 -21.5q-81 0 -142 65.5t-61 181.5q0 115 61 181.5t142 66.5 q51 0 91.5 -26.5t55.5 -60.5l15 77h80v-435q0 -125 -62 -190t-167 -65q-102 0 -187 52z"/>
<glyph glyph-name="f_b" d="M563 440q-55 0 -88.5 -51.5t-33.5 -129.5q0 -77 33 -127.5t89 -50.5q55 0 87.5 50.5t32.5 127.5t-32.5 129t-87.5 52zM423 0h-88v547q0 55 -21.5 81.5t-56.5 26.5t-56.5 -26.5t-21.5 -81.5v-27h86v-76h-86v-444h-103v444h-59v65l59 11v27q0 93 50 144t131 51t130.5 -50.5 t50.5 -144.5v-111q21 46 62 70t82 24q96 0 151.5 -79t55.5 -191q0 -114 -57 -192t-150 -78q-54 0 -93 27t-56 73z" horiz-adv-x="825"/>
<glyph glyph-name="f_f_b" d="M808 440q-55 0 -88.5 -51.5t-33.5 -129.5q0 -77 33 -127.5t89 -50.5q55 0 87.5 50.5t32.5 127.5t-32.5 129t-87.5 52zM668 0h-88v555q0 55 -21.5 81.5t-56.5 26.5t-56.5 -26.5t-21.5 -81.5v-35h86v-76h-86v-444h-103v444h-59h-83v-444h-103v444h-59v65l59 11v53 q0 85 31 127t107 42q32 0 64 -9l-15 -84q-18 4 -32 4q-52 0 -52 -81v-52h142v35q0 93 50 144t131 51t130.5 -50.5t50.5 -144.5v-119q21 46 62 70t82 24q96 0 151.5 -79t55.5 -191q0 -114 -57 -192t-150 -78q-54 0 -93 27t-56 73z" horiz-adv-x="1068"/>
<glyph glyph-name="f_h" d="M438 0h-103v547q0 55 -21.5 81.5t-56.5 26.5t-56.5 -26.5t-21.5 -81.5v-27h86v-76h-86v-444h-103v444h-59v65l59 11v27q0 93 50 144t131 51t130.5 -50.5t50.5 -144.5v-100q14 31 49 57t85 26q69 0 113 -52t44 -162v-316h-103v316q0 60 -23 91.5t-65 31.5q-47 0 -73.5 -41 t-26.5 -96v-302z" horiz-adv-x="786"/>
<glyph glyph-name="f_f_h" d="M683 0h-103v555q0 55 -21.5 81.5t-56.5 26.5t-56.5 -26.5t-21.5 -81.5v-35h86v-76h-86v-444h-103v444h-142v-444h-103v444h-59v65l59 11v53q0 83 30.5 126t101.5 43q38 0 70 -9l-15 -82q-18 4 -32 4q-52 0 -52 -81v-54h142v35q0 93 50 144t131 51t130.5 -50.5 t50.5 -144.5v-108q14 31 49 57t86 26q68 0 112 -52t44 -162v-316h-103v315q0 60 -23 91.5t-64 31.5q-48 0 -74.5 -41t-26.5 -96v-301z" horiz-adv-x="1031"/>
<glyph glyph-name="f_k" d="M438 0h-103v547q0 55 -21.5 81.5t-56.5 26.5t-56.5 -26.5t-21.5 -81.5v-27h86v-76h-86v-444h-103v444h-59v65l59 11v27q0 93 50 144t131 51t130.5 -50.5t50.5 -144.5v-264l170 237h108l-172 -237l167 -283h-106l-119 207l-48 -62v-145z" horiz-adv-x="727"/>
<glyph glyph-name="f_f_k" d="M684 0h-103v555q0 55 -21.5 81.5t-56.5 26.5t-56.5 -26.5t-21.5 -81.5v-35h86v-76h-86v-444h-103v444h-142v-444h-103v444h-59v65l59 11v53q0 85 31 127t107 42q32 0 64 -9l-15 -82q-18 4 -32 4q-52 0 -52 -81v-54h142v35q0 93 50 144t131 51t130.5 -50.5t50.5 -144.5 v-272l170 237h108l-172 -237l167 -283h-106l-119 207l-48 -62v-145z" horiz-adv-x="973"/>
<glyph glyph-name="dollar.tnum" d="M332 -98h-72v89q-99 7 -179 44l36 87q90 -37 163 -37q58 0 90.5 25.5t32.5 71.5q0 44 -33.5 72.5t-81 45.5t-95 38t-81 65t-33.5 112q0 86 49.5 135t131.5 58v92h72v-92q92 -7 162 -41l-34 -86q-17 9 -59.5 21.5t-86.5 12.5q-61 0 -92.5 -26t-31.5 -70q0 -32 18 -55.5 t46.5 -38.5t63 -28t69 -29.5t63 -38.5t46.5 -59t18 -87q0 -81 -46.5 -130t-135.5 -62v-89z" horiz-adv-x="585"/>
<glyph glyph-name="percent.tnum" d="M466 53q29 0 46.5 29t17.5 76q0 48 -18 77t-46 29q-29 0 -45.5 -28.5t-16.5 -76.5q0 -50 16.5 -78t45.5 -28zM121 436q29 0 46 28.5t17 75.5q0 49 -17.5 78t-45.5 29q-29 0 -46 -29t-17 -78q0 -46 17.5 -75t45.5 -29zM464 -10q-59 0 -93.5 47.5t-34.5 121.5 q0 73 34.5 121t93.5 48q58 0 96 -48t38 -120q0 -74 -37.5 -122t-96.5 -48zM89 0l323 700h84l-323 -700h-84zM119 373q-60 0 -94.5 47.5t-34.5 121.5q0 73 35 120.5t94 47.5q58 0 95.5 -47.5t37.5 -119.5q0 -74 -36.5 -122t-96.5 -48z" horiz-adv-x="587"/>
<glyph glyph-name="plus.tnum" d="M256 529h72v-159h149v-73h-149v-160h-72v160h-148v73h148v159z" horiz-adv-x="586"/>
<glyph glyph-name="hyphen.tnum" d="M121 372h343v-72h-343v72z" horiz-adv-x="586"/>
<glyph glyph-name="zero.tnum" d="M294 83q68 0 106.5 71t38.5 195t-39.5 196t-106.5 72q-68 0 -107 -71.5t-39 -194.5q0 -126 39 -197t108 -71zM293 -10q-114 0 -184.5 99.5t-70.5 260.5q0 160 71 260t185 100q113 0 183.5 -99.5t70.5 -258.5q0 -161 -70.5 -261.5t-184.5 -100.5z" horiz-adv-x="586"/>
<glyph glyph-name="one.tnum" d="M126 0v82h130v497l-110 -39l-35 69l171 91h75v-618h132v-82h-363z" horiz-adv-x="585"/>
<glyph glyph-name="two.tnum" d="M114 581l-38 76q106 53 202 53q92 0 151.5 -60t59.5 -152q0 -53 -23.5 -105t-49.5 -84t-66 -72l-152 -150h317v-87h-439l219 306q93 95 93 183q0 56 -35 92t-96 36q-57 0 -143 -36z" horiz-adv-x="586"/>
<glyph glyph-name="three.tnum" d="M126 593l-27 76q88 41 178 41q89 0 144 -51.5t55 -130.5q0 -109 -112 -156q137 -44 137 -175q0 -93 -64.5 -150t-167.5 -57q-105 0 -187 53l35 73q72 -35 138 -35q61 0 100.5 34.5t39.5 93.5q0 65 -45.5 96t-106.5 31h-43v76h49q52 0 88.5 25.5t36.5 75.5 q0 48 -32.5 76.5t-87.5 28.5q-59 0 -128 -25z" horiz-adv-x="585"/>
<glyph glyph-name="four.tnum" d="M360 540l-205 -299h205v299zM373 700h88v-459h73v-77h-73v-164h-101v164h-309v73z" horiz-adv-x="592"/>
<glyph glyph-name="five.tnum" d="M486 700v-92h-279l-20 -192q52 40 117 40q87 0 145.5 -62.5t58.5 -165.5q0 -111 -68 -174.5t-172 -63.5q-106 0 -192 55l36 76q66 -38 139 -38q72 0 113 38.5t41 111.5q0 67 -33.5 105.5t-90.5 38.5q-63 0 -110 -42q-3 2 -70 38l34 327h351z" horiz-adv-x="585"/>
<glyph glyph-name="six.tnum" d="M304 371q-55 0 -90 -43t-35 -105t35 -105.5t90 -43.5q54 0 88.5 41.5t34.5 107.5t-35 107t-88 41zM499 659l-35 -74q-61 37 -131 37q-78 0 -124 -66.5t-46 -178.5q0 -19 1 -29q18 49 61 78.5t101 29.5q87 0 141.5 -65.5t54.5 -167.5t-57 -167.5t-156 -65.5q-81 0 -136 47 t-78.5 121t-23.5 170q0 65 11.5 125.5t38 121.5t80.5 98t129 37q101 0 169 -51z" horiz-adv-x="586"/>
<glyph glyph-name="seven.tnum" d="M91 700h421v-93l-258 -607h-104l257 608h-316v92z" horiz-adv-x="586"/>
<glyph glyph-name="eight.tnum" d="M292 624q-43 0 -70.5 -29.5t-27.5 -78.5q0 -48 26 -79t72 -31t72 31t26 79q0 49 -27.5 78.5t-70.5 29.5zM174 196q0 -58 34.5 -90t83.5 -32t83.5 32t34.5 90q0 55 -32.5 88t-85.5 33q-54 0 -86 -33t-32 -88zM292 710q81 0 137.5 -50t56.5 -134q0 -59 -30.5 -100 t-75.5 -56q55 -16 93.5 -61t38.5 -116q0 -92 -64.5 -147.5t-154.5 -55.5t-155.5 55t-65.5 149q0 69 38.5 114.5t93.5 61.5q-45 15 -75.5 55.5t-30.5 99.5q0 85 56.5 135t137.5 50z" horiz-adv-x="586"/>
<glyph glyph-name="nine.tnum" d="M280 329q56 0 91 42.5t35 103.5q0 64 -35 107.5t-90 43.5q-54 0 -88.5 -41.5t-34.5 -109.5q0 -63 33.5 -104.5t88.5 -41.5zM86 42l37 74q62 -38 129 -38q78 0 124 66t46 177q0 19 -1 29q-14 -48 -59.5 -78t-103.5 -30q-86 0 -140.5 66.5t-54.5 168.5q0 103 57.5 168 t156.5 65q119 0 178 -94.5t59 -243.5q0 -41 -4.5 -81.5t-15 -85t-30.5 -82t-47 -68t-68.5 -48t-92.5 -17.5q-100 0 -170 52z" horiz-adv-x="585"/>
<glyph glyph-name="equal.tnum" d="M129 290h329v-73h-329v73zM129 451h329v-73h-329v73z" horiz-adv-x="587"/>
<glyph glyph-name="cent.tnum" d="M338 -10h-47v85q-93 12 -149 85t-56 182q0 110 56 183.5t149 84.5v82h47v-80q62 -3 123 -36l-28 -76q-48 24 -98 24q-69 0 -104 -53t-35 -129q0 -78 36.5 -129t104.5 -51q49 0 101 26l25 -77q-65 -36 -125 -39v-82z" horiz-adv-x="587"/>
<glyph glyph-name="sterling.tnum" d="M498 630l-71 -62q-37 46 -82 46q-42 0 -65 -33t-23 -87v-129h194v-61h-194v-108q0 -39 -13.5 -67t-33.5 -39h301v-90h-420v89q2 1 6 2.5t14 9.5t17.5 18t13.5 29t6 41v115h-43v61h43v123q0 96 50.5 159t141.5 63q97 0 158 -80z" horiz-adv-x="597"/>
<glyph glyph-name="yen.tnum" d="M34 700h110l151 -318h1l151 318h110l-210 -417v-30h98v-49h-98v-50h98v-49h-98v-105h-103v105h-98v49h98v50h-98v49h98v30z" horiz-adv-x="589"/>
<glyph glyph-name="multiply.tnum" d="M294 281l-105 -108l-43 40l106 111l-102 108l41 39l102 -105l102 105l40 -39l-101 -109l107 -111l-43 -39z" horiz-adv-x="588"/>
<glyph glyph-name="divide.tnum" d="M241 157q0 23 15.5 39t37.5 16q20 0 36 -16.5t16 -38.5t-16 -38.5t-36 -16.5q-22 0 -37.5 16t-15.5 39zM91 360h404v-70h-404v70zM241 495q0 23 15.5 39t37.5 16q21 0 37 -16t16 -39q0 -24 -16 -40t-37 -16q-22 0 -37.5 16.5t-15.5 39.5z" horiz-adv-x="586"/>
<glyph glyph-name="Euro.tnum" d="M-6 386l19 55h69q23 125 112 197t213 72q109 -3 187 -53l-30 -84q-65 41 -159 41q-72 0 -130 -45t-79 -128h292l-19 -55h-283q-2 -12 -2 -36q0 -22 3 -41h255l-19 -55h-226q21 -82 78.5 -125t129.5 -43q93 0 165 39v-99q-75 -36 -163 -36q-122 0 -211 70t-113 194h-85 l19 55h57q-2 28 -2 42q0 13 2 35h-80z" horiz-adv-x="589"/>
<glyph glyph-name="agrave.alt" d="M237 530q50 0 90 -25t56 -63l15 78h84v-520h-101v77q-21 -42 -62 -64.5t-87 -22.5q-89 0 -143 78t-54 191q0 114 56 192.5t146 78.5zM265 438q-54 0 -89 -51t-35 -128t34.5 -127t89.5 -50q53 0 87.5 49.5t34.5 127.5t-34 128.5t-88 50.5zM188 728l72 36l61 -175h-66z"/>
<glyph glyph-name="acircumflex.alt" d="M237 530q50 0 90 -25t56 -63l15 78h84v-520h-101v77q-21 -42 -62 -64.5t-87 -22.5q-89 0 -143 78t-54 191q0 114 56 192.5t146 78.5zM265 438q-54 0 -89 -51t-35 -128t34.5 -127t89.5 -50q53 0 87.5 49.5t34.5 127.5t-34 128.5t-88 50.5zM220 589h-70l97 133h78l97 -133 h-70l-66 91z"/>
<glyph glyph-name="aacute.alt" d="M237 530q50 0 90 -25t56 -63l15 78h84v-520h-101v77q-21 -42 -62 -64.5t-87 -22.5q-89 0 -143 78t-54 191q0 114 56 192.5t146 78.5zM265 438q-54 0 -89 -51t-35 -128t34.5 -127t89.5 -50q53 0 87.5 49.5t34.5 127.5t-34 128.5t-88 50.5zM277 764l72 -36l-67 -139h-66z "/>
<glyph glyph-name="adieresis.alt" d="M237 530q50 0 90 -25t56 -63l15 78h84v-520h-101v77q-21 -42 -62 -64.5t-87 -22.5q-89 0 -143 78t-54 191q0 114 56 192.5t146 78.5zM265 438q-54 0 -89 -51t-35 -128t34.5 -127t89.5 -50q53 0 87.5 49.5t34.5 127.5t-34 128.5t-88 50.5zM123 644q0 22 14.5 37t35.5 15 q23 0 37.5 -14.5t14.5 -37.5t-14.5 -37.5t-37.5 -14.5q-22 0 -36 14.5t-14 37.5zM318 644q0 22 15 37t35 15q23 0 38 -14.5t15 -37.5t-15 -37.5t-38 -14.5q-22 0 -36 14.5t-14 37.5z"/>
<glyph glyph-name="aring.alt" d="M237 530q50 0 90 -25t56 -63l15 78h84v-520h-101v77q-21 -42 -62 -64.5t-87 -22.5q-89 0 -143 78t-54 191q0 114 56 192.5t146 78.5zM265 438q-54 0 -89 -51t-35 -128t34.5 -127t89.5 -50q53 0 87.5 49.5t34.5 127.5t-34 128.5t-88 50.5zM224 679q0 -24 13.5 -37.5 t34.5 -13.5t34.5 13.5t13.5 37.5t-13.5 37.5t-34.5 13.5t-34.5 -13.5t-13.5 -37.5zM182 679q0 40 26.5 65t63.5 25t63.5 -25t26.5 -65t-26.5 -65t-63.5 -25t-63.5 25t-26.5 65z"/>
<glyph glyph-name="aogonek.alt" d="M265 438q-54 0 -89 -51t-35 -128t34.5 -127t89.5 -50q53 0 87.5 49.5t34.5 127.5t-34 128.5t-88 50.5zM237 530q50 0 90 -25t56 -63l15 78h84v-520h-11q-21 -10 -37 -37.5t-16 -57.5q0 -39 40 -39q13 0 24 4l9 -36q-22 -14 -56 -14q-36 0 -54.5 22t-18.5 55q0 64 45 103 h-26v77q-21 -42 -62 -64.5t-87 -22.5q-89 0 -143 78t-54 191q0 114 56 192.5t146 78.5z" horiz-adv-x="542"/>
<glyph glyph-name="amacron.alt" d="M237 530q50 0 90 -25t56 -63l15 78h84v-520h-101v77q-21 -42 -62 -64.5t-87 -22.5q-89 0 -143 78t-54 191q0 114 56 192.5t146 78.5zM265 438q-54 0 -89 -51t-35 -128t34.5 -127t89.5 -50q53 0 87.5 49.5t34.5 127.5t-34 128.5t-88 50.5zM138 669h262v-64h-262v64z"/>
<glyph glyph-name="atilde.alt" d="M237 530q50 0 90 -25t56 -63l15 78h84v-520h-101v77q-21 -42 -62 -64.5t-87 -22.5q-89 0 -143 78t-54 191q0 114 56 192.5t146 78.5zM265 438q-54 0 -89 -51t-35 -128t34.5 -127t89.5 -50q53 0 87.5 49.5t34.5 127.5t-34 128.5t-88 50.5zM161 605l-28 24q39 76 93 76 q24 0 58 -21.5t53 -21.5q24 0 47 34l27 -22q-37 -78 -92 -78q-26 0 -58.5 21t-51.5 21q-26 0 -48 -33z"/>
<glyph glyph-name="abreve.alt" d="M237 530q50 0 90 -25t56 -63l15 78h84v-520h-101v77q-21 -42 -62 -64.5t-87 -22.5q-89 0 -143 78t-54 191q0 114 56 192.5t146 78.5zM265 438q-54 0 -89 -51t-35 -128t34.5 -127t89.5 -50q53 0 87.5 49.5t34.5 127.5t-34 128.5t-88 50.5zM152 706h50q5 -65 68 -65t68 65 h50q-8 -122 -118 -122t-118 122z"/>
<glyph glyph-name="gbreve.alt" d="M264 125q57 0 89 46t32 111t-32 110.5t-89 45.5q-56 0 -88.5 -44.5t-32.5 -111.5q0 -68 32.5 -112.5t88.5 -44.5zM66 -118l33 82q73 -40 142 -40q60 0 99 34.5t39 100.5v55q-17 -36 -55 -57.5t-84 -21.5q-81 0 -142 65.5t-61 181.5q0 115 61 181.5t142 66.5 q51 0 91.5 -26.5t55.5 -60.5l15 77h80v-435q0 -125 -62 -190t-167 -65q-102 0 -187 52zM151 706h50q5 -65 68 -65t68 65h50q-8 -122 -118 -122t-118 122z"/>
<glyph glyph-name="gcircumflex.alt" d="M264 125q57 0 89 46t32 111t-32 110.5t-89 45.5q-56 0 -88.5 -44.5t-32.5 -111.5q0 -68 32.5 -112.5t88.5 -44.5zM66 -118l33 82q73 -40 142 -40q60 0 99 34.5t39 100.5v55q-17 -36 -55 -57.5t-84 -21.5q-81 0 -142 65.5t-61 181.5q0 115 61 181.5t142 66.5 q51 0 91.5 -26.5t55.5 -60.5l15 77h80v-435q0 -125 -62 -190t-167 -65q-102 0 -187 52zM205 591h-70l97 133h78l97 -133h-70l-66 91z"/>
<glyph glyph-name="gcommaaccent.alt" d="M264 125q57 0 89 46t32 111t-32 110.5t-89 45.5q-56 0 -88.5 -44.5t-32.5 -111.5q0 -68 32.5 -112.5t88.5 -44.5zM66 -118l33 82q73 -40 142 -40q60 0 99 34.5t39 100.5v55q-17 -36 -55 -57.5t-84 -21.5q-81 0 -142 65.5t-61 181.5q0 115 61 181.5t142 66.5 q51 0 91.5 -26.5t55.5 -60.5l15 77h80v-435q0 -125 -62 -190t-167 -65q-102 0 -187 52zM263 590q-26 0 -40 20t-14 51q0 70 73 113l16 -29q-44 -36 -43 -83q4 12 19 12t24.5 -11.5t9.5 -26.5q0 -19 -12.5 -32.5t-32.5 -13.5z"/>
<glyph glyph-name="gdotaccent.alt" d="M264 125q57 0 89 46t32 111t-32 110.5t-89 45.5q-56 0 -88.5 -44.5t-32.5 -111.5q0 -68 32.5 -112.5t88.5 -44.5zM66 -118l33 82q73 -40 142 -40q60 0 99 34.5t39 100.5v55q-17 -36 -55 -57.5t-84 -21.5q-81 0 -142 65.5t-61 181.5q0 115 61 181.5t142 66.5 q51 0 91.5 -26.5t55.5 -60.5l15 77h80v-435q0 -125 -62 -190t-167 -65q-102 0 -187 52zM215 644q0 22 15 37t36 15q22 0 36.5 -15t14.5 -37t-14.5 -37.5t-36.5 -15.5t-36.5 15.5t-14.5 37.5z"/>
<glyph glyph-name="J.alt" d="M35 -140l-35 76q109 67 109 159v507l-65 15v83h171v-590q0 -175 -180 -250z" horiz-adv-x="290"/>
<glyph glyph-name="Jcircumflex.alt" d="M35 -140l-35 76q109 67 109 159v507l-65 15v83h171v-590q0 -175 -180 -250zM74 747h-70l97 133h78l97 -133h-70l-66 91z" horiz-adv-x="291"/>
<glyph glyph-name="j.alt" d="M122 597q-27 0 -44.5 19t-17.5 46t17.5 46t44.5 19t44.5 -19t17.5 -46t-17.5 -46t-44.5 -19zM34 520h148v-476q0 -88 -44.5 -141.5t-97.5 -72.5l-36 69q75 48 75 127v410l-45 11v73z" horiz-adv-x="243"/>
<glyph glyph-name="jcircumflex.alt" d="M33 520h148v-476q0 -88 -44.5 -141.5t-97.5 -72.5l-36 69q75 48 75 127v410l-45 11v73zM46 589h-70l97 133h78l97 -133h-70l-66 91z" horiz-adv-x="242"/>
</font>
</defs>
</svg>
