<?xml version="1.0" encoding="UTF-8"?>
<svg width="24px" height="24px" viewBox="0 0 24 24" version="1.1" xmlns="http://www.w3.org/2000/svg" xmlns:xlink="http://www.w3.org/1999/xlink">
    <!-- Generator: Sketch 46.2 (44496) - http://www.bohemiancoding.com/sketch -->
    <title>alert</title>
    <desc>Created with Sketch.</desc>
    <defs></defs>
    <g id="Status-&amp;-Feedback" stroke="none" stroke-width="1" fill="none" fill-rule="evenodd">
        <g id="alert" fill="#9E9E9E">
            <g transform="translate(5.000000, 4.000000)" id="Combined-Shape">
                <path d="M2.003582,6.80896971 C2.09124,4.47541828 3.77810887,2.55103821 6,2.10001812 L6,1.0093689 C6,0.451909848 6.44386482,0 7,0 C7.55228475,0 8,0.443353176 8,1.0093689 L8,2.10001812 C10.2218911,2.55103821 11.90876,4.47541828 11.996418,6.80896971 C11.9987935,6.83850956 12,6.86900441 12,6.90047704 C12,10.100477 13.5758514,13.0892835 13.5758514,13.0892835 C13.8009205,13.5880006 13.5509732,14 12.9970707,14 L9,14 C9,15.1045695 8.1045695,16 7,16 C5.8954305,16 5,15.1045695 5,14 L1.00292933,14 C0.449026756,14 0.199079514,13.5880006 0.42414856,13.0892835 C0.42414856,13.0892835 2,10.100477 2,6.90047704 C2,6.86900441 2.0012065,6.83850956 2.003582,6.80896971 Z"></path>
            </g>
        </g>
    </g>
</svg>