<?xml version="1.0" encoding="UTF-8"?>
<svg width="24px" height="24px" viewBox="0 0 24 24" version="1.1" xmlns="http://www.w3.org/2000/svg" xmlns:xlink="http://www.w3.org/1999/xlink">
    <!-- Generator: Sketch 46.2 (44496) - http://www.bohemiancoding.com/sketch -->
    <title>arrow-right-clock</title>
    <desc>Created with Sketch.</desc>
    <defs>
        <path d="M16.5,10 C17.386,10 18.23,10.179 19,10.5 L19,0 L0,0 L0,18 L10.181,18 C10.067,17.518 10,17.018 10,16.5 C10,12.91 12.91,10 16.5,10 Z" id="path-1"></path>
    </defs>
    <g id="Status-&amp;-Feedback" stroke="none" stroke-width="1" fill="none" fill-rule="evenodd">
        <g id="arrow-right-clock">
            <g transform="translate(1.000000, 1.000000)">
                <g>
                    <g id="arrow-right">
                        <mask id="mask-2" fill="white">
                            <use xlink:href="#path-1"></use>
                        </mask>
                        <g id="Page-1"></g>
                        <path d="M12.6139712,8 L0,8 L0,11 L12.6139712,11 L8,15.8937112 L9.98588674,18 L18,9.5 L9.98588674,1 L8,3.10628883 L12.6139712,8 Z" id="Combined-Shape" fill="#9E9E9E" mask="url(#mask-2)"></path>
                    </g>
                    <g id="clock" transform="translate(11.000000, 11.000000)" fill-rule="nonzero" fill="#696969">
                        <path d="M5.5,10 C7.98528137,10 10,7.98528137 10,5.5 C10,3.01471863 7.98528137,1 5.5,1 C3.01471863,1 1,3.01471863 1,5.5 C1,7.98528137 3.01471863,10 5.5,10 Z M5.5,11 C2.46243388,11 0,8.53756612 0,5.5 C0,2.46243388 2.46243388,0 5.5,0 C8.53756612,0 11,2.46243388 11,5.5 C11,8.53756612 8.53756612,11 5.5,11 Z M6,6 L6,2 L5,2 L5,5 L3,5 L3,6 L6,6 Z" id="Combined-Shape"></path>
                    </g>
                </g>
            </g>
        </g>
    </g>
</svg>