<?xml version="1.0" encoding="UTF-8"?>
<svg width="24px" height="24px" viewBox="0 0 24 24" version="1.1" xmlns="http://www.w3.org/2000/svg" xmlns:xlink="http://www.w3.org/1999/xlink">
    <!-- Generator: Sketch 46.2 (44496) - http://www.bohemiancoding.com/sketch -->
    <title>cake</title>
    <desc>Created with Sketch.</desc>
    <defs></defs>
    <g id="Status-&amp;-Feedback" stroke="none" stroke-width="1" fill="none" fill-rule="evenodd">
        <g id="cake" fill="#9E9E9E">
            <g transform="translate(2.000000, 3.000000)" id="Combined-Shape">
                <g>
                    <path d="M0,17 L20,17 L20,19 L0,19 L0,17 Z M3,7 L17,7 C17.5522847,7 18,7.44771525 18,8 L18,17 L2,17 L2,8 C2,7.44771525 2.44771525,7 3,7 Z M2,10 L2,11 L18,11 L18,10 L2,10 Z M9,4 L11,4 L11,7 L9,7 L9,4 Z M4,4 L6,4 L6,7 L4,7 L4,4 Z M14,4 L16,4 L16,7 L14,7 L14,4 Z M5,3 C4.44771525,3 4,2.52962338 4,1.94117647 C4,1.36914543 4.99105556,0 5,0 C5.00894444,0 6,1.36914543 6,1.94117647 C6,2.52962338 5.55228475,3 5,3 Z M10,3 C9.44771525,3 9,2.52962338 9,1.94117647 C9,1.36914543 9.99105556,0 10,0 C10.0089444,0 11,1.36914543 11,1.94117647 C11,2.52962338 10.5522847,3 10,3 Z M15,3 C14.4477153,3 14,2.52962338 14,1.94117647 C14,1.36914543 14.9910556,0 15,0 C15.0089444,0 16,1.36914543 16,1.94117647 C16,2.52962338 15.5522847,3 15,3 Z"></path>
                </g>
            </g>
        </g>
    </g>
</svg>