<?xml version="1.0" encoding="utf-8"?>
<!-- Generator: Adobe Illustrator 21.1.0, SVG Export Plug-In . SVG Version: 6.00 Build 0)  -->
<svg version="1.1" id="Layer_4" xmlns="http://www.w3.org/2000/svg" xmlns:xlink="http://www.w3.org/1999/xlink" x="0px" y="0px"
	 width="24px" height="24px" viewBox="0 0 24 24" style="enable-background:new 0 0 24 24;" xml:space="preserve">
<style type="text/css">
	.st0{display:none;fill:none;stroke:#000000;stroke-miterlimit:10;}
	.st1{display:none;}
	.st2{display:inline;fill:#9E9E9E;}
	.st3{fill:#696969;}
	.st4{fill:#9E9E9E;}
</style>
<path class="st0" d="M21.9462376,80.9720154c0,0.8430099-0.5913963,1.5279541-1.3978481,1.5279541H3.5053771
	c-0.7526891,0-1.3978498-0.6849442-1.3978498-1.5279541L2,69.7494354c0-0.7376404,0.6989253-1.3698959,1.5591397-1.3698959
	h2.9032269V65.797821c0-3.0032272,2.4731174-5.4268837,5.5376344-5.4268837s5.5376329,2.4236565,5.5376329,5.4268837v2.5817184
	h2.9032249C21.3010731,68.3795395,22,68.9591064,22,69.7494354L21.9462376,80.9720154z"/>
<g class="st1">
	<path class="st2" d="M186.0622253,3.1592331l4.7510376,0.0275803l0.0282593,4.7519455l-5.4674988,5.4670486l-4.7795105-4.77948
		L186.0622253,3.1592331 M185.6504517,2.1568298l-6.4701843,6.4694595l6.1937256,6.1937103l6.4700012-6.4694595
		l-0.0366516-6.1579742L185.6504517,2.1568298L185.6504517,2.1568298z"/>
</g>
<g>
	<path class="st3" d="M23,21v-2h-4l-0.723135-3.0263424c0.7540455-0.3068161,1.285635-1.0469217,1.285635-1.9111872
		c0-1.1390867-0.9234123-2.0625-2.0625-2.0625s-2.0625,0.9234133-2.0625,2.0625c0,0.8642654,0.5315886,1.6043711,1.285635,1.9111872
		L16,19h-4v2H23z"/>
	<rect x="12" y="22" class="st3" width="11" height="1"/>
</g>
<path class="st4" d="M13,18h2.3571777l0.3453369-1.6115112C14.9763794,15.8409424,14.5,14.9794922,14.5,14
	c0-1.107605,0.6070557-2.064209,1.5-2.5839233V11h3l-8-9H9l-8,9h3v7h3v-4h6V18z M11,9v2H9V9H7V7h2V5.0009766h2V7h2v2H11z"/>
</svg>
