<?xml version="1.0" encoding="utf-8"?>
<!-- Generator: Adobe Illustrator 21.1.0, SVG Export Plug-In . SVG Version: 6.00 Build 0)  -->
<svg version="1.1" id="Layer_1" xmlns="http://www.w3.org/2000/svg" xmlns:xlink="http://www.w3.org/1999/xlink" x="0px" y="0px"
	 width="24px" height="24px" viewBox="0 0 24 24" style="enable-background:new 0 0 24 24;" xml:space="preserve">
<style type="text/css">
	.st0{fill:#9E9E9E;}
	.st1{fill:#696969;}
	.st2{fill:#FFFFFF;}
</style>
<title>document-addition</title>
<desc>Created with Sketch.</desc>
<path id="Combined-Shape" class="st0" d="M14,12c-1.8041563,1.1550694-3,3.1987619-3,5.4999714
	c0,0.5162697,0.0601883,1.0184803,0.1739321,1.5H1v-13h5v-5h8V12z M5,0.9999707v4H1L5,0.9999707z"/>
<path id="Combined-Shape_1_" class="st1" d="M17.5,22.9999714c-3.0375662,0-5.5-2.4624348-5.5-5.5s2.4624338-5.500001,5.5-5.500001
	s5.5,2.4624338,5.5,5.500001S20.5375652,22.9999714,17.5,22.9999714z"/>
<path id="_x3F_" class="st2" d="M17.25,19.7799721c0.2200012,0,0.3966656,0.0549984,0.5299988,0.164999
	c0.1333351,0.1100006,0.2000008,0.2783318,0.2000008,0.5050011c0,0.4466686-0.24333,0.6700001-0.7299995,0.6700001
	s-0.7299995-0.2233315-0.7299995-0.6700001C16.5200005,20.0033016,16.7633305,19.7799721,17.25,19.7799721z M17.3899994,13.8799706
	c0.3733368,0,0.7199993,0.0583324,1.0400009,0.1750002c0.3200016,0.1166668,0.5916653,0.3166647,0.8150005,0.5999994
	c0.2233334,0.2833347,0.3349991,0.6283312,0.3349991,1.0349998c0,0.3000021-0.0616665,0.5616665-0.1849995,0.7850018
	c-0.1233349,0.2233334-0.2749996,0.4016647-0.4549999,0.5349998c-0.1800022,0.1333332-0.3599987,0.2583332-0.5400009,0.375
	c-0.1800003,0.1166668-0.331665,0.2499981-0.4549999,0.3999996c-0.123333,0.1500015-0.1849995,0.3216667-0.1849995,0.5149994
	v0.5200005h-1.0900002v-0.5599995c0-0.253334,0.0549984-0.4799995,0.164999-0.6800003s0.2433338-0.3633327,0.4000015-0.4899998
	c0.1566658-0.126667,0.3149986-0.248333,0.4749985-0.3649998c0.1600018-0.1166687,0.2950001-0.251667,0.4050007-0.4050007
	s0.1650009-0.3233328,0.1650009-0.5100002c0-0.2600021-0.0916672-0.458333-0.2750015-0.5950003
	c-0.1833324-0.1366673-0.4183311-0.2049999-0.7049999-0.2049999c-0.4466667,0-0.9366646,0.1566648-1.4699993,0.4699993
	l-0.4300003-0.9699993C15.9933367,14.0899687,16.656662,13.8799706,17.3899994,13.8799706z"/>
</svg>
