<?xml version="1.0" encoding="UTF-8"?>
<svg width="24px" height="24px" viewBox="0 0 24 24" version="1.1" xmlns="http://www.w3.org/2000/svg" xmlns:xlink="http://www.w3.org/1999/xlink">
    <!-- Generator: Sketch 46.2 (44496) - http://www.bohemiancoding.com/sketch -->
    <title>female</title>
    <desc>Created with Sketch.</desc>
    <defs></defs>
    <g id="Status-&amp;-Feedback" stroke="none" stroke-width="1" fill="none" fill-rule="evenodd">
        <g id="female" fill="#9E9E9E">
            <g>
                <path d="M13,17 L16,17 L16,19 L13,19 L13,22 L11,22 L11,19 L8,19 L8,17 L11,17 L11,13.9170416 C8.16228666,13.4409635 6,10.9729963 6,8 C6,4.6862915 8.6862915,2 12,2 C15.3137085,2 18,4.6862915 18,8 C18,10.9729963 15.8377133,13.4409635 13,13.9170416 L13,17 Z M12,12 C14.209139,12 16,10.209139 16,8 C16,5.790861 14.209139,4 12,4 C9.790861,4 8,5.790861 8,8 C8,10.209139 9.790861,12 12,12 Z"></path>
            </g>
        </g>
    </g>
</svg>