<?xml version="1.0" encoding="UTF-8"?>
<svg width="24px" height="24px" viewBox="0 0 24 24" version="1.1" xmlns="http://www.w3.org/2000/svg" xmlns:xlink="http://www.w3.org/1999/xlink">
    <!-- Generator: Sketch 46.2 (44496) - http://www.bohemiancoding.com/sketch -->
    <title>male</title>
    <desc>Created with Sketch.</desc>
    <defs></defs>
    <g id="Status-&amp;-Feedback" stroke="none" stroke-width="1" fill="none" fill-rule="evenodd">
        <g id="male" fill="#9E9E9E">
            <g>
                <path d="M12.6295079,9.54312477 L15.936374,5.1547653 L12.4980455,5.75472583 L12.3245737,4.13204566 L18.8122417,3 L19.5122933,9.54838086 L17.9046577,9.82890029 L17.533645,6.35839535 L14.255771,10.7082811 C15.3338387,11.7930109 16,13.2875858 16,14.937751 C16,18.2514595 13.3137085,20.937751 10,20.937751 C6.6862915,20.937751 4,18.2514595 4,14.937751 C4,11.6240425 6.6862915,8.93775102 10,8.93775102 C10.9431532,8.93775102 11.8354797,9.15536613 12.6295079,9.54312477 Z M10,18.937751 C12.209139,18.937751 14,17.14689 14,14.937751 C14,12.728612 12.209139,10.937751 10,10.937751 C7.790861,10.937751 6,12.728612 6,14.937751 C6,17.14689 7.790861,18.937751 10,18.937751 Z"></path>
            </g>
        </g>
    </g>
</svg>