<?xml version="1.0" encoding="UTF-8"?>
<svg width="24px" height="24px" viewBox="0 0 24 24" version="1.1" xmlns="http://www.w3.org/2000/svg" xmlns:xlink="http://www.w3.org/1999/xlink">
    <!-- Generator: Sketch 46.2 (44496) - http://www.bohemiancoding.com/sketch -->
    <title>medicine-interrogation</title>
    <desc>Created with Sketch.</desc>
    <defs></defs>
    <g id="Status-&amp;-Feedback" stroke="none" stroke-width="1" fill="none" fill-rule="evenodd">
        <g id="medicine-interrogation">
            <g transform="translate(1.000000, 1.000000)">
                <g>
                    <g id="medicine-circle" fill-rule="nonzero">
                        <path d="M12,11.8 L12,6 L0,6 L0,19 L10.5,19 C10.2,18.2 10,17.4 10,16.5 C10,14.7 10.8,13 12,11.8 Z M7.5,3 L12,6 L0,6 L4.5,3 L3,3 L3,0 L9,0 L9,3 L7.5,3 Z" id="Combined-Shape" fill="#9E9E9E"></path>
                        <polygon id="Combined-Shape_1_" fill="#FFFFFF" points="2 9 10 9 10 14 2 14"></polygon>
                    </g>
                    <g id="interrogation" transform="translate(11.000000, 11.000000)">
                        <path d="M5.5,11 C2.46243388,11 0,8.53756612 0,5.5 C0,2.46243388 2.46243388,0 5.5,0 C8.53756612,0 11,2.46243388 11,5.5 C11,8.53756612 8.53756612,11 5.5,11 Z" id="Combined-Shape" fill="#696969" fill-rule="nonzero"></path>
                        <path d="M5.25,7.78 C5.4700011,7.78 5.646666,7.83499945 5.78,7.945 C5.913334,8.05500055 5.98,8.2233322 5.98,8.45 C5.98,8.8966689 5.7366691,9.12 5.25,9.12 C4.7633309,9.12 4.52,8.8966689 4.52,8.45 C4.52,8.0033311 4.7633309,7.78 5.25,7.78 Z M5.39,1.88 C5.7633352,1.88 6.1099984,1.93833275 6.43,2.055 C6.7500016,2.17166725 7.02166555,2.37166525 7.245,2.655 C7.46833445,2.93833475 7.58,3.2833313 7.58,3.69 C7.58,3.9900015 7.51833395,4.25166555 7.395,4.475 C7.27166605,4.69833445 7.1200009,4.876666 6.94,5.01 C6.7599991,5.143334 6.5800009,5.26833275 6.4,5.385 C6.2199991,5.50166725 6.06833395,5.63499925 5.945,5.785 C5.82166605,5.93500075 5.76,6.1066657 5.76,6.3 L5.76,6.82 L4.67,6.82 L4.67,6.26 C4.67,6.0066654 4.72499945,5.780001 4.835,5.58 C4.94500055,5.379999 5.07833255,5.2166673 5.235,5.09 C5.39166745,4.9633327 5.5499992,4.84166725 5.71,4.725 C5.8700008,4.60833275 6.00499945,4.4733341 6.115,4.32 C6.22500055,4.1666659 6.28,3.9966676 6.28,3.81 C6.28,3.5499987 6.18833425,3.35166735 6.005,3.215 C5.82166575,3.07833265 5.5866681,3.01 5.3,3.01 C4.8533311,3.01 4.363336,3.1666651 3.83,3.48 L3.4,2.51 C3.9933363,2.0899979 4.656663,1.88 5.39,1.88 Z" id="?" fill="#FFFFFF"></path>
                    </g>
                </g>
            </g>
        </g>
    </g>
</svg>