<?xml version="1.0" encoding="UTF-8"?>
<svg width="24px" height="24px" viewBox="0 0 24 24" version="1.1" xmlns="http://www.w3.org/2000/svg" xmlns:xlink="http://www.w3.org/1999/xlink">
    <!-- Generator: Sketch 46.2 (44496) - http://www.bohemiancoding.com/sketch -->
    <title>microscope-check</title>
    <desc>Created with Sketch.</desc>
    <defs>
        <path d="M14,11.1739318 L14,0 L0,0 L0,18 L9.01894482,18 C9.00639146,17.8349792 9,17.668236 9,17.5 C9,14.4264184 11.1333,11.8510956 14,11.1739318 Z" id="path-1"></path>
    </defs>
    <g id="Status-&amp;-Feedback" stroke="none" stroke-width="1" fill="none" fill-rule="evenodd">
        <g id="microscope-check">
            <g transform="translate(2.000000, 0.000000)">
                <g>
                    <g id="microscope">
                        <mask id="mask-2" fill="white">
                            <use xlink:href="#path-1"></use>
                        </mask>
                        <g id="Mask"></g>
                        <path d="M11.5831,0.7498875 L12.64375,1.8105375 L11.052775,3.4015125 L9.992125,2.3408625 L11.5831,0.7498875 Z M11.875,15 L11.875,15.7125 L13.375,15.7125 L13.375,17.2125 L1.375,17.2125 L1.375,15.7125 L2.875,15.7125 L2.875,14.9625 L4,14.9625 C3.2875,14.475 2.6875,13.8375 2.2375,13.0875 L0.625,13.0875 L0.625,11.5875 L5.5,11.5875 L5.5,13.0875 L4.075,13.0875 C4.9,13.95 6.1,14.5125 7.375,14.5125 C9.85,14.5125 11.875,12.4875 11.875,10.0125 C11.875,8.2875 10.9,6.7875 9.4375,6.0375 L5.725,9.75 L5.2,9.225 L4.675,9.75 L3.625,8.7 L4.15,8.175 L3.625,7.65 L9.4,1.8 L11.5375,3.9375 L10.525,4.95 C12.25,6 13.375,7.9125 13.375,10.05 C13.375,12.1125 12.325,13.9125 10.75,15 L11.875,15 Z" id="Combined-Shape" fill="#9E9E9E" fill-rule="nonzero" mask="url(#mask-2)"></path>
                    </g>
                    <g id="check" transform="translate(10.000000, 12.000000)">
                        <circle id="Oval-2" fill="#3FB763" cx="5.5" cy="5.5" r="5.5"></circle>
                        <path d="M4.65282357,6.19348952 L8.04152928,3 L9,3.90325524 L5.30149422,7.3886979 L4.65282357,8 L2,5.5 L2.95847072,4.59674476 L4.65282357,6.19348952 Z" id="Combined-Shape" fill="#FFFFFF" fill-rule="nonzero"></path>
                    </g>
                </g>
            </g>
        </g>
    </g>
</svg>