<?xml version="1.0" encoding="UTF-8"?>
<svg width="24px" height="24px" viewBox="0 0 24 24" version="1.1" xmlns="http://www.w3.org/2000/svg" xmlns:xlink="http://www.w3.org/1999/xlink">
    <!-- Generator: Sketch 46.2 (44496) - http://www.bohemiancoding.com/sketch -->
    <title>patient-arrow-up-grey</title>
    <desc>Created with Sketch.</desc>
    <defs></defs>
    <g id="Status-&amp;-Feedback" stroke="none" stroke-width="1" fill="none" fill-rule="evenodd">
        <g id="patient-arrow-up-grey">
            <g transform="translate(1.000000, 1.000000)" id="Combined-Shape">
                <g>
                    <path d="M11.3177951,10 L12.0037973,10 C13.513978,10 14.8285045,10.840596 15.5080565,12.07773 L10.5857864,17 L11.5857864,18 L0,18 L0,14 C0,11.790861 1.78883037,10 3.99620271,10 L4.68220488,10 C5.63251117,10.6318473 6.77326225,11 8,11 C9.22673775,11 10.3674888,10.6318473 11.3177951,10 Z M8,10 C5.23857625,10 3,7.76142375 3,5 C3,2.23857625 5.23857625,0 8,0 C10.7614237,0 13,2.23857625 13,5 C13,7.76142375 10.7614237,10 8,10 Z" fill="#9E9E9E"></path>
                    <path d="M16,16 L13.5,18.5 L12,17 L17,12 L22,17 L20.5,18.5 L18,16 L18,22 L16,22 L16,16 Z" fill="#696969"></path>
                </g>
            </g>
        </g>
    </g>
</svg>