<?xml version="1.0" encoding="UTF-8"?>
<svg width="24px" height="24px" viewBox="0 0 24 24" version="1.1" xmlns="http://www.w3.org/2000/svg" xmlns:xlink="http://www.w3.org/1999/xlink">
    <!-- Generator: Sketch 46.2 (44496) - http://www.bohemiancoding.com/sketch -->
    <title>patient-isolated-precaution-grey</title>
    <desc>Created with Sketch.</desc>
    <defs>
        <path d="M13,22 L0,22 L0,0 L22,0 L22,17.7638935 C21.5914988,17.398275 21.0822155,17.1429485 20.5189587,17.0447226 C21.2730791,15.8822225 21.140533,14.3121059 20.1213203,13.2928932 L19.4142136,12.5857864 L18,14 L16.5857864,12.5857864 L15.8786797,13.2928932 C14.859467,14.3121059 14.7269209,15.8822225 15.4810413,17.0447226 C14.0715237,17.2905273 13,18.5201298 13,20 L13,20.5 L13,22 Z M22,21 L22,22 L21,22 L21,21 L22,21 Z" id="path-1"></path>
    </defs>
    <g id="Status-&amp;-Feedback" stroke="none" stroke-width="1" fill="none" fill-rule="evenodd">
        <g id="patient-isolated-precaution-grey">
            <g transform="translate(1.000000, 1.000000)">
                <g>
                    <path d="M12.5,19 L11.5,19 L11.5,13.5096658 C11.5,13.2224731 11.2761424,13 11,13 C10.7319336,13 10.5,13.2281852 10.5,13.5096658 L10.5,19 L9.5,19 L9.5,9.49826741 C9.5,9.21990657 9.27614237,9 9,9 C8.73193359,9 8.5,9.22308192 8.5,9.49826741 L8.5,16 L8.5,13 L7.5,13 L7.5,9.0085302 C7.5,7.8992496 8.38655484,7 9.50591905,7 L12.4940809,7 C13.6019194,7 14.5,7.90195036 14.5,9.0085302 L14.5,13 L13.5,13 L13.5,16 L13.5,9.49826741 C13.5,9.21990657 13.2761424,9 13,9 C12.7319336,9 12.5,9.22308192 12.5,9.49826741 L12.5,19 Z M11,6 C10.1715729,6 9.5,5.32842712 9.5,4.5 C9.5,3.67157288 10.1715729,3 11,3 C11.8284271,3 12.5,3.67157288 12.5,4.5 C12.5,5.32842712 11.8284271,6 11,6 Z" id="patient-isolated" fill="#9E9E9E"></path>
                    <g id="Combined-Shape">
                        <g id="Mask">
                            <mask id="mask-2" fill="white">
                                <use xlink:href="#path-1"></use>
                            </mask>
                            <g></g>
                            <path d="M11,20 C15.9705627,20 20,15.9705627 20,11 C20,6.02943725 15.9705627,2 11,2 C6.02943725,2 2,6.02943725 2,11 C2,15.9705627 6.02943725,20 11,20 Z M11,22 C4.92486775,22 0,17.0751322 0,11 C0,4.92486775 4.92486775,0 11,0 C17.0751322,0 22,4.92486775 22,11 C22,17.0751322 17.0751322,22 11,22 Z" fill="#696969" fill-rule="nonzero" mask="url(#mask-2)"></path>
                        </g>
                    </g>
                    <path d="M16.9561878,19.7063401 C16.686484,19.5410028 16.4589972,19.313516 16.2936599,19.0438122 C16.2008028,19.0153287 16.1021915,19 16,19 C15.4477153,19 15,19.4477153 15,20 L14,20 C14,18.8954305 14.8954305,18 16,18 C16,17.5070717 16.1783255,17.0557935 16.4739833,16.7071585 C15.8067092,15.9213652 15.8439769,14.7418095 16.5857864,14 L17.2928932,14.7071068 C16.9023689,15.0976311 16.9023689,15.7307961 17.2928932,16.1213203 C17.2946589,16.123086 17.2964294,16.1248436 17.298205,16.1265933 C17.5165715,16.0447539 17.7530593,16 18,16 C18.2469407,16 18.4834285,16.0447539 18.701795,16.1265933 C18.7035706,16.1248436 18.7053411,16.123086 18.7071068,16.1213203 C19.0976311,15.7307961 19.0976311,15.0976311 18.7071068,14.7071068 L19.4142136,14 C20.1560231,14.7418095 20.1932908,15.9213652 19.5260167,16.7071585 C19.8216745,17.0557935 20,17.5070717 20,18 C21.1045695,18 22,18.8954305 22,20 L21,20 C21,19.4477153 20.5522847,19 20,19 C19.8978085,19 19.7991972,19.0153287 19.7063401,19.0438122 C19.5410028,19.313516 19.313516,19.5410028 19.0438122,19.7063401 C19.0153287,19.7991972 19,19.8978085 19,20 C19,20.5522847 19.4477153,21 20,21 L20,22 C18.8954305,22 18,21.1045695 18,20 C18,21.1045695 17.1045695,22 16,22 L16,21 C16.5522847,21 17,20.5522847 17,20 C17,19.8978085 16.9846713,19.7991972 16.9561878,19.7063401 Z" id="Combined-Shape-Copy" fill="#696969" fill-rule="nonzero"></path>
                </g>
            </g>
        </g>
    </g>
</svg>