<?xml version="1.0" encoding="UTF-8"?>
<svg width="24px" height="24px" viewBox="0 0 24 24" version="1.1" xmlns="http://www.w3.org/2000/svg" xmlns:xlink="http://www.w3.org/1999/xlink">
    <!-- Generator: Sketch 46.2 (44496) - http://www.bohemiancoding.com/sketch -->
    <title>patient-isolated-grey</title>
    <desc>Created with Sketch.</desc>
    <defs></defs>
    <g id="Status-&amp;-Feedback" stroke="none" stroke-width="1" fill="none" fill-rule="evenodd">
        <g id="patient-isolated-grey" fill="#9E9E9E">
            <g transform="translate(1.000000, 1.000000)" id="patient-isolated">
                <g>
                    <path d="M12.5,19 L11.5,19 L11.5,13.5096658 C11.5,13.2224731 11.2761424,13 11,13 C10.7319336,13 10.5,13.2281852 10.5,13.5096658 L10.5,19 L9.5,19 L9.5,9.49826741 C9.5,9.21990657 9.27614237,9 9,9 C8.73193359,9 8.5,9.22308192 8.5,9.49826741 L8.5,16 L8.5,13 L7.5,13 L7.5,9.0085302 C7.5,7.8992496 8.38655484,7 9.50591905,7 L12.4940809,7 C13.6019194,7 14.5,7.90195036 14.5,9.0085302 L14.5,13 L13.5,13 L13.5,16 L13.5,9.49826741 C13.5,9.21990657 13.2761424,9 13,9 C12.7319336,9 12.5,9.22308192 12.5,9.49826741 L12.5,19 Z M11,6 C10.1715729,6 9.5,5.32842712 9.5,4.5 C9.5,3.67157288 10.1715729,3 11,3 C11.8284271,3 12.5,3.67157288 12.5,4.5 C12.5,5.32842712 11.8284271,6 11,6 Z M1,12 C0.44771525,12 0,11.5522847 0,11 C0,10.4477153 0.44771525,10 1,10 C1.55228475,10 2,10.4477153 2,11 C2,11.5522847 1.55228475,12 1,12 Z M1.37047355,8.09367053 C0.862092754,7.87787569 0.624904978,7.29081534 0.840699821,6.78243455 C1.05649466,6.27405376 1.64355501,6.03686598 2.1519358,6.25266082 C2.6603166,6.46845567 2.89750437,7.05551601 2.68170953,7.5638968 C2.46591468,8.0722776 1.87885434,8.30946537 1.37047355,8.09367053 Z M3.22182541,4.63603897 C2.83130112,4.24551468 2.83130112,3.6123497 3.22182541,3.22182541 C3.6123497,2.83130112 4.24551468,2.83130112 4.63603897,3.22182541 C5.02656326,3.6123497 5.02656326,4.24551468 4.63603897,4.63603897 C4.24551468,5.02656326 3.6123497,5.02656326 3.22182541,4.63603897 Z M6.24598182,2.13581127 C6.03909231,1.62374177 6.28648958,1.04091033 6.79855908,0.83402082 C7.31062859,0.627131312 7.89346002,0.874528578 8.10034953,1.38659808 C8.30723904,1.89866758 8.05984177,2.48149902 7.54777227,2.68838853 C7.03570277,2.89527804 6.45287133,2.64788077 6.24598182,2.13581127 Z M10,1 C10,0.44771525 10.4477153,9.50500275e-17 11,6.123234e-17 C11.5522847,2.74146524e-17 12,0.44771525 12,1 C12,1.55228475 11.5522847,2 11,2 C10.4477153,2 10,1.55228475 10,1 Z M13.9063295,1.37047355 C14.1221243,0.862092754 14.7091847,0.624904978 15.2175655,0.840699821 C15.7259462,1.05649466 15.963134,1.64355501 15.7473392,2.1519358 C15.5315443,2.6603166 14.944484,2.89750437 14.4361032,2.68170953 C13.9277224,2.46591468 13.6905346,1.87885434 13.9063295,1.37047355 Z M17.363961,3.22182541 C17.7544853,2.83130112 18.3876503,2.83130112 18.7781746,3.22182541 C19.1686989,3.6123497 19.1686989,4.24551468 18.7781746,4.63603897 C18.3876503,5.02656326 17.7544853,5.02656326 17.363961,4.63603897 C16.9734367,4.24551468 16.9734367,3.6123497 17.363961,3.22182541 Z M19.8641887,6.24598182 C20.3762582,6.03909231 20.9590897,6.28648958 21.1659792,6.79855908 C21.3728687,7.31062859 21.1254714,7.89346002 20.6134019,8.10034953 C20.1013324,8.30723904 19.518501,8.05984177 19.3116115,7.54777227 C19.104722,7.03570277 19.3521192,6.45287133 19.8641887,6.24598182 Z M21,10 C21.5522847,10 22,10.4477153 22,11 C22,11.5522847 21.5522847,12 21,12 C20.4477153,12 20,11.5522847 20,11 C20,10.4477153 20.4477153,10 21,10 Z M20.6295265,13.9063295 C21.1379072,14.1221243 21.375095,14.7091847 21.1593002,15.2175655 C20.9435053,15.7259462 20.356445,15.963134 19.8480642,15.7473392 C19.3396834,15.5315443 19.1024956,14.944484 19.3182905,14.4361032 C19.5340853,13.9277224 20.1211457,13.6905346 20.6295265,13.9063295 Z M18.7781746,17.363961 C19.1686989,17.7544853 19.1686989,18.3876503 18.7781746,18.7781746 C18.3876503,19.1686989 17.7544853,19.1686989 17.363961,18.7781746 C16.9734367,18.3876503 16.9734367,17.7544853 17.363961,17.363961 C17.7544853,16.9734367 18.3876503,16.9734367 18.7781746,17.363961 Z M15.7473392,19.8480642 C15.963134,20.356445 15.7259462,20.9435053 15.2175655,21.1593002 C14.7091847,21.375095 14.1221243,21.1379072 13.9063295,20.6295265 C13.6905346,20.1211457 13.9277224,19.5340853 14.4361032,19.3182905 C14.944484,19.1024956 15.5315443,19.3396834 15.7473392,19.8480642 Z M12,21 C12,21.5522847 11.5522847,22 11,22 C10.4477153,22 10,21.5522847 10,21 C10,20.4477153 10.4477153,20 11,20 C11.5522847,20 12,20.4477153 12,21 Z M8.09367053,20.6295265 C7.87787569,21.1379072 7.29081534,21.375095 6.78243455,21.1593002 C6.27405376,20.9435053 6.03686598,20.356445 6.25266082,19.8480642 C6.46845567,19.3396834 7.05551601,19.1024956 7.5638968,19.3182905 C8.0722776,19.5340853 8.30946537,20.1211457 8.09367053,20.6295265 Z M4.63603897,18.7781746 C4.24551468,19.1686989 3.6123497,19.1686989 3.22182541,18.7781746 C2.83130112,18.3876503 2.83130112,17.7544853 3.22182541,17.363961 C3.6123497,16.9734367 4.24551468,16.9734367 4.63603897,17.363961 C5.02656326,17.7544853 5.02656326,18.3876503 4.63603897,18.7781746 Z M2.13581127,15.7540182 C1.62374177,15.9609077 1.04091033,15.7135104 0.83402082,15.2014409 C0.627131312,14.6893714 0.874528578,14.10654 1.38659808,13.8996505 C1.89866758,13.692761 2.48149902,13.9401582 2.68838853,14.4522277 C2.89527804,14.9642972 2.64788077,15.5471287 2.13581127,15.7540182 Z"></path>
                </g>
            </g>
        </g>
    </g>
</svg>