<?xml version="1.0" encoding="UTF-8"?>
<svg width="24px" height="24px" viewBox="0 0 24 24" version="1.1" xmlns="http://www.w3.org/2000/svg" xmlns:xlink="http://www.w3.org/1999/xlink">
    <!-- Generator: Sketch 46.2 (44496) - http://www.bohemiancoding.com/sketch -->
    <title>prescription-clock-yellow</title>
    <desc>Created with Sketch.</desc>
    <defs>
        <path d="M15,10.1739318 L15,0 L0,0 L0,19 L10.4981633,19 C10.1772281,18.2304079 10,17.3859009 10,16.5 C10,13.4264184 12.1333,10.8510956 15,10.1739318 Z" id="path-1"></path>
        <rect id="path-3" x="0" y="0" width="15" height="19"></rect>
    </defs>
    <g id="Status-&amp;-Feedback" stroke="none" stroke-width="1" fill="none" fill-rule="evenodd">
        <g id="prescription-clock-yellow">
            <g transform="translate(1.000000, 1.000000)">
                <g>
                    <g id="prescription">
                        <mask id="mask-2" fill="white">
                            <use xlink:href="#path-1"></use>
                        </mask>
                        <g id="Mask"></g>
                        <g id="Rectangle-10" mask="url(#mask-2)">
                            <use fill="#FFFFFF" fill-rule="evenodd" xlink:href="#path-3"></use>
                            <rect stroke="#9E9E9E" stroke-width="1" x="0.5" y="0.5" width="14" height="18"></rect>
                        </g>
                        <rect id="Rectangle-11" fill="#9E9E9E" mask="url(#mask-2)" x="3" y="4" width="9" height="1.5"></rect>
                        <rect id="Rectangle-11-Copy" fill="#9E9E9E" mask="url(#mask-2)" x="3" y="7" width="9" height="1.5"></rect>
                        <rect id="Rectangle-11-Copy-2" fill="#9E9E9E" mask="url(#mask-2)" x="3" y="10" width="9" height="1.5"></rect>
                        <rect id="Rectangle-11-Copy-3" fill="#9E9E9E" mask="url(#mask-2)" x="7" y="13" width="5" height="1.5"></rect>
                    </g>
                    <g id="clock" transform="translate(11.000000, 11.000000)" fill-rule="nonzero" fill="#F2BE00">
                        <path d="M5.5,10 C7.98528137,10 10,7.98528137 10,5.5 C10,3.01471863 7.98528137,1 5.5,1 C3.01471863,1 1,3.01471863 1,5.5 C1,7.98528137 3.01471863,10 5.5,10 Z M5.5,11 C2.46243388,11 0,8.53756612 0,5.5 C0,2.46243388 2.46243388,0 5.5,0 C8.53756612,0 11,2.46243388 11,5.5 C11,8.53756612 8.53756612,11 5.5,11 Z M6,6 L6,2 L5,2 L5,5 L3,5 L3,6 L6,6 Z" id="Combined-Shape"></path>
                    </g>
                </g>
            </g>
        </g>
    </g>
</svg>