<?xml version="1.0" encoding="UTF-8"?>
<svg width="24px" height="24px" viewBox="0 0 24 24" version="1.1" xmlns="http://www.w3.org/2000/svg" xmlns:xlink="http://www.w3.org/1999/xlink">
    <!-- Generator: Sketch 46.2 (44496) - http://www.bohemiancoding.com/sketch -->
    <title>settings-blue</title>
    <desc>Created with Sketch.</desc>
    <defs></defs>
    <g id="Status-&amp;-Feedback" stroke="none" stroke-width="1" fill="none" fill-rule="evenodd">
        <g id="settings-blue" fill="#0096ED">
            <g transform="translate(10.000000, 5.000000)">
                <path d="M-4.5,9 C-5.32842712,9 -6,8.32842712 -6,7.5 C-6,6.67157288 -5.32842712,6 -4.5,6 C-3.67157288,6 -3,6.67157288 -3,7.5 C-3,8.32842712 -3.67157288,9 -4.5,9 Z M1.5,9 C0.671572875,9 8.8817842e-16,8.32842712 8.8817842e-16,7.5 C8.8817842e-16,6.67157288 0.671572875,6 1.5,6 C2.32842712,6 3,6.67157288 3,7.5 C3,8.32842712 2.32842712,9 1.5,9 Z M7.5,9 C6.67157288,9 6,8.32842712 6,7.5 C6,6.67157288 6.67157288,6 7.5,6 C8.32842712,6 9,6.67157288 9,7.5 C9,8.32842712 8.32842712,9 7.5,9 Z" transform="translate(1.500000, 7.500000) rotate(-270.000000) translate(-1.500000, -7.500000) "></path>
            </g>
        </g>
    </g>
</svg>